<svg xmlns="http://www.w3.org/2000/svg" viewBox="0 0 60 56.76"><path d="M37.27 0C34.56 0 31.89.59 30 1.36 28.12.59 25.44 0 22.73 0 10.79 0 0 11.3 0 26.8c0 16.9 13.81 29.97 30 29.97S60 43.7 60 26.8C60 11.3 49.21 0 37.27 0ZM30 9.2c2.3 1.37 5.34 5.34 5.34 9.81 0 3.28-2.17 5.87-5.34 5.87s-5.34-2.58-5.34-5.87c0-4.48 3.04-8.44 5.34-9.81Zm0 40.18c-12.38 0-22.63-9.96-22.63-22.73 0-11.66 8.42-19.63 15.03-19.33-3.13 3.12-5.03 7.67-5.03 12.07 0 7.57 6.01 12.88 12.63 12.88s12.63-5.31 12.63-12.88c0-4.4-1.9-8.95-5.03-12.07 6.61-.3 15.03 7.67 15.03 19.33 0 12.77-10.24 22.73-22.63 22.73Z" style="fill:#0072BC;fill-rule:evenodd"/></svg>
