<svg width="193" height="24" class="m-renewal-groupFooter__logoImg">
                <title>東京海上グループ</title>
                <g clip-path="url(#a)"><path d="M86.528 9.612h9.312V7.176h-9.312V1.332h-2.904v18.576H75.38v2.412h22.008v-2.412h-10.86V9.612ZM72.908 7.477H58.916c-.132 1.56-.348 3.708-.588 6H57.02v2.196h1.056c-.288 2.4-.612 4.776-.924 6.612H72.5c.12-1.86.204-4.224.252-6.612h1.212v-2.196H72.8c.048-2.208.072-4.344.096-6M63.62 20.089h-3.516c.192-1.356.384-2.88.564-4.416h3.444c-.156 1.536-.336 3.06-.492 4.416Zm.72-6.612h-3.42c.156-1.368.276-2.688.372-3.804h3.384c-.096 1.176-.216 2.472-.336 3.804Zm5.628 6.612h-3.756c.168-1.344.348-2.868.492-4.416h3.456c-.06 1.536-.132 3.048-.192 4.416Zm.264-6.612h-3.324c.132-1.356.216-2.664.288-3.804h3.12c-.024 1.176-.06 2.472-.108 3.804M53.768 13.871c.024 1.572-.732 4.944-2.364 6.144v3.096c3.612-1.2 4.872-6.204 4.956-9.24h-2.58M56.3 6.06V3.312c-1.284-.516-3.648-1.452-4.908-1.812v2.652c1.332.42 3.612 1.38 4.896 1.92M56.3 12.095V9.347c-1.236-.516-3.648-1.452-4.908-1.812v2.652c1.224.372 3.672 1.38 4.908 1.92"></path><path d="M60.38 5.291h13.224V3.083H61.82c.3-.576.564-1.14.792-1.716h-2.748c-.612 1.284-1.548 2.856-2.82 3.888v3.048a13.074 13.074 0 0 0 3.348-3M12.944 1.332h-2.748V3H.5v2.208h9.696v1.296h-8.4v8.94H8.24c-1.992 2.016-4.824 3.96-7.656 4.824v2.748c3.348-.996 7.056-3.48 9.612-6.312V23.1h2.748v-6.42c2.568 2.844 6.288 5.34 9.636 6.336v-2.748c-2.832-.864-5.664-2.808-7.656-4.812h6.42v-8.94h-8.412V5.22h9.732V3.012h-9.732V1.344l.012-.012Zm-2.748 11.976h-5.76v-1.44h5.772v1.44h-.012Zm0-3.276h-5.76V8.664h5.772v1.368h-.012Zm8.532 3.276h-5.784v-1.44h5.784v1.44Zm0-3.276h-5.784V8.664h5.784v1.368ZM38.144 1.344h-2.76v1.668H25.7V5.22h22.152V3.012h-9.708V1.344ZM45.728 6.805H27.824v7.764h7.656v5.328c0 .468-.048.816-.948.816h-2.1v2.376h3c1.644 0 2.868-.696 2.868-2.328v-6.192h7.428V6.805ZM43.04 12.42H30.488V8.965H43.04v3.456Z"></path><path d="M30.284 15.877c-.588 1.62-2.892 3.684-4.488 4.308v2.712c3.828-1.116 6.504-4.656 7.536-7.008h-3.036M43.268 15.875h-3.036c1.032 2.376 3.708 5.904 7.524 7.008v-2.712c-1.596-.624-3.9-2.688-4.488-4.308M168.152 10.26H149.6v2.808h18.552V10.26ZM130.412 2.783h-2.772v5.724c.084 5.904-.48 8.568-2.868 11.316V23.1c4.44-2.424 5.868-7.104 5.64-14.196-.084-2.304 0-6.12 0-6.12ZM143.24 10.129c-.624 4.392-3.468 7.5-6.096 8.844V2.809h-2.928v20.328c6.528-1.908 10.488-5.196 12.024-13.02h-3v.012ZM124.412 1.309h-2.568v3.504h2.568V1.309ZM120.104 1.309h-2.556v3.504h2.556V1.309ZM116.06 5.915V2.783h-12.072v.036h-.036c-.228 3.3-2.976 4.92-4.2 5.58v3.06c1.836-.228 5.412-2.652 6.648-5.868h8.58c.144 6.42-4.236 13.788-13.968 14.664v2.868c11.124-1.26 16.188-7.956 17.1-17.196h-2.076l.024-.012ZM189.572 0a2.912 2.912 0 0 0-2.928 2.904c0 1.608 1.32 2.904 2.928 2.904 1.608 0 2.928-1.296 2.928-2.904A2.912 2.912 0 0 0 189.572 0Zm0 4.224a1.33 1.33 0 0 1-1.344-1.32c0-.732.6-1.32 1.344-1.32a1.319 1.319 0 1 1 0 2.64ZM184.964 2.867v-.096h-16.512V5.58h15c.144 6.42-4.236 13.788-13.968 14.665v2.867c10.956-1.248 16.032-7.776 17.052-16.812a4.485 4.485 0 0 1-1.572-3.42"></path></g><defs><clipPath id="a"><path transform="translate(.5)" d="M0 0h192v24H0z"></path></clipPath></defs>
              </svg>