<?xml version="1.0" encoding="utf-8"?>
<!-- Generator: Adobe Illustrator 15.1.0, SVG Export Plug-In . SVG Version: 6.00 Build 0)  -->
<!DOCTYPE svg PUBLIC "-//W3C//DTD SVG 1.1//EN" "http://www.w3.org/Graphics/SVG/1.1/DTD/svg11.dtd">
<svg version="1.1" id="レイヤー_1" xmlns="http://www.w3.org/2000/svg" xmlns:xlink="http://www.w3.org/1999/xlink" x="0px"
	 y="0px" width="209px" height="43px" viewBox="0 0 209 43" enable-background="new 0 0 209 43" xml:space="preserve">
<g>
	<rect x="53.61" y="23.52" fill="#FFFFFF" width="2.03" height="1.561"/>
	<path fill="#FFFFFF" d="M149.529,23.34c-1.039-0.04-1.949,0.23-2.479,0.74c-0.37,0.359-0.56,0.83-0.56,1.4
		c0,0.479,0.16,0.879,0.46,1.18c0.45,0.439,1.229,0.68,2.19,0.68c1.949-0.01,1.969-0.859,1.989-2.71c0,0,0-0.93-0.021-1.08
		C150.561,23.439,150.02,23.359,149.529,23.34z"/>
	<path fill="#FFFFFF" d="M56.71,13.11c-1.01,1.66-2.44,2.95-4.34,3.89h8.54C59.33,16.14,57.87,14.94,56.71,13.11z"/>
	<path fill="#FFFFFF" d="M16.77,28.51c3.15,0,6.06-1.01,8.42-2.74c-3.7,2.26-10,0.83-13.33-4.709c-1.23-2.05-4.18-7.48-5.14-9.26
		c9.2,2.07,10.22-8.15,3.88-8.15c-4.51,0-7.04,4.22-7.75,7.36c-0.23,1.04-0.36,2.11-0.36,3.22C2.49,22.12,8.88,28.51,16.77,28.51z"
		/>
	<path fill="#FFFFFF" d="M4.26,38.12c0,0-0.56,0-0.64,0c0,0.08,0,1.351,0,1.43c0.08,0,0.57,0,0.57,0c0.65,0,1.04-0.28,1.04-0.739
		C5.23,38.37,4.88,38.109,4.26,38.12z"/>
	<path fill="#FFFFFF" d="M27.18,40.55c0.11,0,1.74,0,1.86,0c-0.05-0.11-0.86-2.14-0.93-2.319C28.04,38.41,27.22,40.439,27.18,40.55z
		"/>
	<path fill="#FFFFFF" d="M164.38,13.35h6.75c-1.2-0.79-2.38-1.77-3.42-2.86C166.7,11.59,165.67,12.47,164.38,13.35z"/>
	<path fill="#FFFFFF" d="M17.4,38.029c-0.42-0.01-0.78,0.131-1.06,0.41c-0.34,0.34-0.54,0.891-0.54,1.5c0,0.881,0.42,1.91,1.6,1.91
		c1.18,0,1.6-1.029,1.6-1.91c0-0.609-0.19-1.16-0.54-1.5C18.18,38.17,17.83,38.029,17.4,38.029z"/>
	<rect x="176.93" y="11.15" fill="#FFFFFF" width="4.461" height="1.52"/>
	<path fill="#FFFFFF" d="M176.93,19.94v7.02c0.98-0.13,1.891-0.29,2.91-0.5l0.25-0.04c-1.39-1.88-2.369-4.07-2.869-6.48H176.93z"/>
	<rect x="176.93" y="15.38" fill="#FFFFFF" width="4.461" height="1.77"/>
	<path fill="#FFFFFF" d="M209.23,14.89V0H0v16.62c0-2.02,0.36-3.96,1.02-5.76c2.42-6.73,8.51-9.41,12.32-9.1
		c8.67,0.7,7.31,10.87-0.88,10.78c0.92,1.8,3.22,5.93,4.16,7.45c4.11,6.67,9.99,4.7,11.39,3.06c0.28-0.36,0.54-0.72,0.78-1.1
		c-0.14,0.159-0.37,0.329-0.64,0.47c-3.27,1.77-6.8,0.939-8.88-2.79c-0.78-1.38-2.72-4.77-3.88-6.82
		c10.39-0.43,8.38-14.47-4.41-11.72c-0.13,0.02-0.16-0.16-0.03-0.2c13.85-4.52,20.12,9.55,9.17,11.64c0.7,1.32,3.05,5.7,3.45,6.37
		c2.25,3.741,5.67,3.05,6.67,0.09c0.52-1.479,0.81-3.08,0.81-4.75c0-5.71-3.34-10.63-8.18-12.92c-0.05-0.02-0.09-0.07-0.09-0.13
		c0-0.09,0.07-0.15,0.15-0.15c0.02,0,0.04,0,0.06,0.01c6.18,2.47,10.54,8.51,10.55,15.57c0,9.26-7.51,16.771-16.77,16.771
		C7.51,33.391,0,25.88,0,16.62V43h209.23V17.95h-2.42v10.51c0,0.78-0.23,1.67-2,1.67l-4.541,0.011l-1.06-2.92h4.12V17.95h-7.43
		v-3.06H209.23z M196.57,8.62h12.09v3.06h-12.09V8.62z M5.59,42.48l-0.78-1.76C4.6,40.26,4.39,40.26,4.01,40.26c0,0-0.32,0-0.39,0
		c0,0.08,0,2.221,0,2.221h-0.8v-5.09h1.27c0.98,0,1.98,0.17,1.98,1.399c0,0.569-0.38,1.021-0.96,1.16
		c0.18,0.09,0.28,0.21,0.41,0.479L6.5,42.48H5.59z M10.31,38.12c0,0-2,0-2.08,0c0,0.08,0,1.29,0,1.37c0.09,0,1.9,0,1.9,0v0.72
		c0,0-1.82,0-1.9,0c0,0.08,0,1.479,0,1.56c0.08,0,2.08,0,2.08,0v0.721H7.42V37.4h2.89V38.12z M12.31,42.59
		c-0.37,0-0.71-0.109-1.04-0.21l-0.04-0.01l0.08-0.761l0.05,0.021c0.13,0.06,0.61,0.24,1.02,0.24c0.38,0,0.94-0.2,0.94-0.771
		c0-0.49-0.43-0.689-0.92-0.92c-0.58-0.27-1.23-0.58-1.23-1.449c0-0.86,0.65-1.41,1.65-1.41c0.36,0,0.75,0.07,1.08,0.18l0.03,0.01
		l-0.11,0.75l-0.05-0.02c-0.36-0.15-0.56-0.211-0.92-0.211c-0.25,0-0.83,0.061-0.83,0.621c0,0.39,0.39,0.57,0.84,0.789
		c0.58,0.281,1.31,0.631,1.32,1.621C14.18,42.029,13.5,42.59,12.31,42.59z M17.4,42.57c-1.49,0-2.45-1.03-2.45-2.631
		c0-1.569,0.99-2.629,2.45-2.629s2.45,1.06,2.45,2.629C19.85,41.54,18.89,42.57,17.4,42.57z M24.87,42.49h-0.99
		c0,0-2.08-3.78-2.21-4.01c0,0.27,0,4.01,0,4.01h-0.8V37.4h1.05c0,0,2.02,3.689,2.15,3.92c0-0.26,0-3.92,0-3.92h0.8V42.49z
		 M29.82,42.49c0,0-0.49-1.211-0.51-1.26c-0.06,0-2.33,0-2.39,0c-0.02,0.049-0.51,1.26-0.51,1.26h-0.85l2.17-5.09h0.81l2.16,5.09
		H29.82z M187.939,13.09l0.101-0.07c1.01-0.73,3.16-2.63,4.101-4.63l0.06-0.14h3.37l-0.141,0.34c-1.729,4.1-5.199,6.63-7.119,7.78
		l-0.371,0.22V13.09z M65.2,19.94h-1.8v8.07h-0.01c-0.12,1.91-1.41,2.18-2.67,2.18h-3.17l-0.68-2.279h-6.3v-7.19h8.13v6.42h1.34
		V19.94H48.26V17h0.52v-0.45h-1.27v6.56c0.53-0.199,1.06-0.409,1.57-0.649l0.35-0.16v3.181l-0.14,0.069
		c-2.51,1.16-5.35,1.87-7.27,2.3l-0.3,0.07v-3.141l0.19-0.039c0.67-0.15,1.46-0.34,2.31-0.57v-7.61h-2.43v-3.01h2.43V8.21h3.28v5.33
		h1.88v1.77c1.64-0.7,2.97-1.68,3.93-2.85h-3.89V9.52h5.36c0.08-0.35,0.14-0.72,0.17-1.09l0.02-0.23h3.41l-0.05,0.29
		c-0.05,0.36-0.12,0.7-0.2,1.04h6.29v2.95h-4.41c1.01,1.25,2.56,2.35,4.52,3.19l0.15,0.06V17h0.52V19.94z M89.14,29.76H67.71v-3.199
		h8.41V20h-6.84v-3.16h6.84v-5H68.3V8.68h20.33v3.16h-8.72v5h7.61V20h-7.61v6.561h9.23V29.76z M87.27,25.91v0.01h-3.79
		c-0.68-2.49-1.29-4.03-1.85-5.27l3.63-0.01c0.79,1.49,1.48,3.03,1.98,5.15L87.27,25.91z M92.37,22.87
		c-0.58-4.71-0.53-10.13,0.15-14.52l0.03-0.21h3.94l-0.04,0.29c-0.7,4.55-0.72,9.8-0.05,14.38l0.04,0.279H92.4L92.37,22.87z
		 M106.32,26.84c-1.99,2.189-5.22,3.29-9.88,3.35h-0.25v-3.27l0.23-0.02c9.17-0.801,9.27-3.91,8.22-18.48l-0.02-0.27h3.8l0.109,1.43
		C109.141,16.86,109.67,23.15,106.32,26.84z M134.59,18.88h-5.609c-5.03,0-6.91,2.78-6.91,4.54c0,3.18,4.209,3.43,5.5,3.43h2.38
		v3.34H127c-5.13,0-8.439-2.06-8.84-5.5c-0.26-2.229,0.779-4.469,2.52-5.819h-8.82v-3.34h5.011c2.36-1,5.33-2.44,7.5-3.63h-9.101
		V8.62h16.061v3.25l-0.141,0.08c-2.35,1.38-4.489,2.56-6.729,3.59h10.13V18.88z M140.641,26.02h-4.17l0.139-0.34
		c1.541-3.74,2.83-7.33,3.851-11.59h-3.67v-3.34h4.39c0.17-0.9,0.33-1.83,0.48-2.79l0.029-0.21h3.891l-0.04,0.28
		c-0.12,0.91-0.271,1.81-0.44,2.72h4.98v3.34v0.01h-5.7c-1.06,4.54-2.479,8.791-3.68,11.77L140.641,26.02z M159.35,27.25
		l-0.379-0.26c-1.301-0.87-2.691-1.62-4.051-2.211c-0.01,2.431-0.391,5.58-5.27,5.711c-2.121,0.06-4.32-0.711-5.601-1.971
		c-0.87-0.859-1.31-1.89-1.3-3.069c0.02-3.07,2.71-5.3,6.38-5.3c0.63,0,1.31,0.06,2,0.18c0-2.01,0-4.41,0-6.29v-3.3h8.2v3.3h-4.4
		c0,2.41,0,5.56,0,7.32c1.76,0.64,3.35,1.419,4.34,2.07l0.11,0.08L159.35,27.25z M172.99,14.42l-0.36-0.18
		c-0.19-0.09-0.37-0.19-0.55-0.29v2.3h-2.63v1.32h3.271v2.86h-3.271v6.24c1.25-0.189,2.34-0.391,3.1-0.57l0.31-0.07l-0.039,2.921
		l-0.19,0.04c-2.63,0.57-6.92,1.18-10.13,1.16h-0.25l0.04-2.871h0.25c1.12,0,2.33-0.079,3.54-0.189v-6.66h-3.689v-2.86h3.689v-1.32
		h-2.57v-2.33c-0.25,0.16-0.51,0.32-0.779,0.48l-0.371,0.22v-3.35l0.111-0.07c0.909-0.58,2.299-1.81,3.09-2.94l0.069-0.11h3.99
		l0.08,0.09c1.04,1.25,2.319,2.24,3.17,2.76l0.12,0.07V14.42z M172.779,21.3v0.25c-0.01,1.46-0.079,2.54-0.26,3.97l-0.029,0.221
		l-2.49-0.02l0.02-0.261c0.131-1.61,0.141-2.2,0.16-3.62l0.01-0.54H172.779z M165.5,26.15l0.02,0.27h-2.569l-0.03-0.21
		c-0.23-1.66-0.35-3.149-0.37-4.69l-0.01-0.25v-0.01h2.739v0.25C165.279,23,165.311,23.971,165.5,26.15z M185.09,20.96
		c-0.449,1.479-1.439,3-2.311,4.06c0.591,0.78,1.271,1.49,2.021,2.09l0.091,0.07v3.5l-0.381-0.229c-1.72-1.06-3.189-2.4-4.369-3.97
		l0.01,2.72l-0.19,0.05c-1.3,0.35-4.16,0.811-6.17,0.93l-0.261,0.021V8.45h11.201v11.49h-4.26c0.139,0.81,0.399,1.64,0.75,2.44
		c0.329-0.54,0.629-1.17,0.779-1.58l0.07-0.16h3.119L185.09,20.96z M195.779,14.15c-0.42,1.25-1.039,2.39-1.77,3.43v12.6h-3.42
		v-8.93c-0.79,0.68-1.58,1.3-2.33,1.85l-0.4,0.291V19.53l0.101-0.07c1.39-1.05,3.83-3.6,4.63-5.48l0.061-0.15h3.24L195.779,14.15z"
		/>
</g>
<path fill="#009F6B" d="M2.49,14.23c0-1.11,0.13-2.18,0.36-3.22l0,0c0.71-3.14,3.24-7.36,7.75-7.36c6.34,0,5.32,10.22-3.88,8.15
	c0.96,1.78,3.91,7.21,5.14,9.26c3.33,5.54,9.63,6.969,13.33,4.709c-2.36,1.73-5.27,2.74-8.42,2.74C8.88,28.51,2.49,22.12,2.49,14.23
	 M22.99,1.05L22.99,1.05c-0.02-0.01-0.04-0.01-0.06-0.01c-0.08,0-0.15,0.06-0.15,0.15c0,0.06,0.04,0.11,0.09,0.13
	c4.84,2.29,8.18,7.21,8.18,12.92c0,1.67-0.29,3.271-0.81,4.75l0,0c-1,2.96-4.42,3.651-6.67-0.09c-0.4-0.67-2.75-5.05-3.45-6.37
	c10.95-2.09,4.68-16.16-9.17-11.64c-0.13,0.04-0.1,0.22,0.03,0.2c12.79-2.75,14.8,11.29,4.41,11.72c1.16,2.05,3.1,5.44,3.88,6.82
	c2.08,3.729,5.61,4.56,8.88,2.79c0.27-0.141,0.5-0.311,0.64-0.47l0,0c-0.24,0.38-0.5,0.739-0.78,1.1c-1.4,1.64-7.28,3.61-11.39-3.06
	c-0.94-1.52-3.24-5.65-4.16-7.45c8.19,0.09,9.55-10.08,0.88-10.78c-3.81-0.31-9.9,2.37-12.32,9.1C0.36,12.66,0,14.6,0,16.62
	c0,9.26,7.51,16.771,16.77,16.771c9.26,0,16.77-7.511,16.77-16.771C33.53,9.56,29.17,3.52,22.99,1.05"/>
<path fill="#F1A925" d="M5.23,38.811c0,0.459-0.39,0.739-1.04,0.739c0,0-0.49,0-0.57,0c0-0.079,0-1.35,0-1.43c0.08,0,0.64,0,0.64,0
	C4.88,38.109,5.23,38.37,5.23,38.811 M5.11,39.95c0.58-0.14,0.96-0.591,0.96-1.16c0-1.229-1-1.399-1.98-1.399H2.82v5.09h0.8
	c0,0,0-2.141,0-2.221c0.07,0,0.39,0,0.39,0c0.38,0,0.59,0,0.8,0.461l0.78,1.76H6.5L5.52,40.43C5.39,40.16,5.29,40.04,5.11,39.95"/>
<path fill="#F1A925" d="M7.42,37.4v5.09h2.89V41.77c0,0-2,0-2.08,0c0-0.08,0-1.479,0-1.56c0.08,0,1.9,0,1.9,0v-0.72
	c0,0-1.81,0-1.9,0c0-0.08,0-1.29,0-1.37c0.08,0,2.08,0,2.08,0V37.4H7.42"/>
<path fill="#F1A925" d="M12.86,39.439c-0.45-0.219-0.84-0.399-0.84-0.789c0-0.561,0.58-0.621,0.83-0.621
	c0.36,0,0.56,0.061,0.92,0.211l0.05,0.02l0.11-0.75L13.9,37.5c-0.33-0.109-0.72-0.18-1.08-0.18c-1,0-1.65,0.55-1.65,1.41
	c0,0.869,0.65,1.18,1.23,1.449c0.49,0.23,0.92,0.43,0.92,0.92c0,0.57-0.56,0.771-0.94,0.771c-0.41,0-0.89-0.181-1.02-0.24
	l-0.05-0.021l-0.08,0.761l0.04,0.01c0.33,0.101,0.67,0.21,1.04,0.21c1.19,0,1.87-0.561,1.87-1.529
	C14.17,40.07,13.44,39.721,12.86,39.439"/>
<path fill="#F1A925" d="M17.4,41.85c-1.18,0-1.6-1.029-1.6-1.91c0-0.609,0.2-1.16,0.54-1.5c0.28-0.279,0.64-0.42,1.06-0.41
	c0.43,0,0.78,0.141,1.06,0.41c0.35,0.34,0.54,0.891,0.54,1.5C19,40.82,18.58,41.85,17.4,41.85 M17.4,37.311
	c-1.46,0-2.45,1.06-2.45,2.629c0,1.601,0.96,2.631,2.45,2.631c1.49,0,2.45-1.03,2.45-2.631C19.85,38.37,18.86,37.311,17.4,37.311"/>
<path fill="#F1A925" d="M24.07,37.4c0,0,0,3.66,0,3.92c-0.13-0.23-2.15-3.92-2.15-3.92h-1.05v5.09h0.8c0,0,0-3.74,0-4.01
	c0.13,0.229,2.21,4.01,2.21,4.01h0.99V37.4H24.07"/>
<path fill="#F1A925" d="M29.04,40.55c-0.12,0-1.75,0-1.86,0c0.04-0.11,0.86-2.14,0.93-2.319C28.18,38.41,28.99,40.439,29.04,40.55
	 M28.54,37.4h-0.81l-2.17,5.09h0.85c0,0,0.49-1.211,0.51-1.26c0.06,0,2.33,0,2.39,0c0.02,0.049,0.51,1.26,0.51,1.26h0.88L28.54,37.4
	"/>
<path d="M167.71,10.49c1.04,1.09,2.22,2.07,3.42,2.86h-6.75C165.67,12.47,166.7,11.59,167.71,10.49 M169.7,8.24l-0.08-0.09h-3.99
	l-0.069,0.11c-0.791,1.13-2.181,2.36-3.09,2.94l-0.111,0.07v3.35l0.371-0.22c0.27-0.16,0.529-0.32,0.779-0.48v2.33h2.57v1.32h-3.689
	v2.86h3.689v6.66c-1.21,0.11-2.42,0.189-3.54,0.189h-0.25l-0.04,2.871h0.25c3.21,0.02,7.5-0.59,10.13-1.16l0.19-0.04l0.039-2.921
	l-0.31,0.07c-0.76,0.18-1.85,0.381-3.1,0.57v-6.24h3.271v-2.86h-3.271v-1.32h2.63v-2.3c0.18,0.1,0.359,0.2,0.55,0.29l0.36,0.18
	v-3.35L172.87,11C172.02,10.48,170.74,9.49,169.7,8.24"/>
<path d="M162.54,21.27l0.01,0.25c0.021,1.541,0.14,3.03,0.37,4.69l0.03,0.21h2.569l-0.02-0.27c-0.189-2.18-0.221-3.15-0.221-4.64
	v-0.25h-2.739"/>
<path d="M170.189,21.3l-0.01,0.54c-0.02,1.42-0.029,2.01-0.16,3.62L170,25.721l2.49,0.02l0.029-0.221
	c0.181-1.43,0.25-2.51,0.26-3.97V21.3H170.189"/>
<path d="M179.84,26.46c-1.02,0.21-1.93,0.37-2.91,0.5v-7.02h0.291c0.5,2.41,1.479,4.6,2.869,6.48L179.84,26.46 M176.93,11.15h4.461
	v1.52h-4.461V11.15z M176.93,15.38h4.461v1.77h-4.461V15.38z M182,20.8c-0.15,0.41-0.45,1.04-0.779,1.58
	c-0.351-0.8-0.611-1.63-0.75-2.44h4.26V8.45h-11.201V30.2l0.261-0.021c2.01-0.119,4.87-0.58,6.17-0.93l0.19-0.05l-0.01-2.72
	c1.18,1.569,2.649,2.91,4.369,3.97l0.381,0.229v-3.5l-0.091-0.07c-0.75-0.6-1.43-1.31-2.021-2.09c0.871-1.06,1.861-2.58,2.311-4.06
	l0.1-0.32h-3.119L182,20.8"/>
<path d="M188.311,16.37c1.92-1.15,5.39-3.68,7.119-7.78l0.141-0.34h-3.37l-0.06,0.14c-0.94,2-3.091,3.9-4.101,4.63l-0.101,0.07v3.5
	L188.311,16.37"/>
<path d="M195.891,13.83h-3.24l-0.061,0.15c-0.8,1.88-3.24,4.43-4.63,5.48l-0.101,0.07v3.861l0.4-0.291
	c0.75-0.55,1.54-1.169,2.33-1.85v8.93h3.42v-12.6c0.73-1.04,1.35-2.18,1.77-3.43L195.891,13.83"/>
<rect x="196.57" y="8.62" width="12.09" height="3.06"/>
<path d="M209.23,17.95v-3.06H195.9v3.06h7.43v9.271h-4.12l1.06,2.92l4.541-0.011c1.77,0,2-0.89,2-1.67V17.95H209.23"/>
<path d="M150.08,14.09v-3.34h-4.98c0.17-0.91,0.32-1.81,0.44-2.72l0.04-0.28h-3.891l-0.029,0.21c-0.15,0.96-0.311,1.89-0.48,2.79
	h-4.39v3.34h3.67c-1.021,4.26-2.31,7.85-3.851,11.59l-0.139,0.34h4.17l0.06-0.149c1.2-2.979,2.62-7.23,3.68-11.77h5.7"/>
<path d="M151.13,24.63c-0.021,1.851-0.04,2.7-1.989,2.71c-0.961,0-1.74-0.24-2.19-0.68c-0.3-0.301-0.46-0.7-0.46-1.18
	c0-0.57,0.189-1.041,0.56-1.4c0.53-0.51,1.44-0.78,2.479-0.74c0.49,0.02,1.031,0.1,1.58,0.21C151.13,23.7,151.13,24.63,151.13,24.63
	 M154.93,21.36c0-1.76,0-4.91,0-7.32h4.4v-3.3h-8.2v3.3c0,1.88,0,4.28,0,6.29c-0.69-0.12-1.37-0.18-2-0.18
	c-3.67,0-6.36,2.23-6.38,5.3c-0.01,1.18,0.43,2.21,1.3,3.069c1.28,1.26,3.479,2.03,5.601,1.971c4.879-0.131,5.26-3.28,5.27-5.711
	c1.359,0.591,2.75,1.341,4.051,2.211l0.379,0.26l0.03-3.74l-0.11-0.08C158.279,22.779,156.689,22,154.93,21.36"/>
<path d="M96.4,22.811c-0.67-4.581-0.65-9.831,0.05-14.38l0.04-0.29h-3.94l-0.03,0.21c-0.68,4.39-0.73,9.81-0.15,14.52l0.03,0.22
	h4.04L96.4,22.811"/>
<path d="M108.42,8.15h-3.8l0.02,0.27c1.049,14.57,0.95,17.68-8.22,18.48l-0.23,0.02v3.27h0.25c4.66-0.06,7.89-1.16,9.88-3.35
	c3.35-3.689,2.82-9.98,2.209-17.26L108.42,8.15"/>
<path d="M131.33,11.87V8.62H115.27v3.28h9.101c-2.17,1.19-5.14,2.63-7.5,3.63h-5.011v3.34h8.82c-1.74,1.35-2.779,3.59-2.52,5.819
	c0.4,3.44,3.71,5.5,8.84,5.5h2.95v-3.34h-2.38c-1.291,0-5.5-0.25-5.5-3.43c0-1.76,1.88-4.54,6.91-4.54h5.609v-3.34h-10.13
	c2.24-1.03,4.38-2.21,6.729-3.59L131.33,11.87"/>
<path d="M53.61,23.52h2.03v1.561h-2.03V23.52z M60.91,17h-8.54c1.9-0.94,3.33-2.23,4.34-3.89C57.87,14.94,59.33,16.14,60.91,17
	 M64.68,17v-1.27l-0.15-0.06c-1.96-0.84-3.51-1.94-4.52-3.19h4.41V9.53h-6.29c0.08-0.34,0.15-0.68,0.2-1.04l0.05-0.29h-3.41
	l-0.02,0.23c-0.03,0.37-0.09,0.74-0.17,1.09h-5.36v2.94h3.89c-0.96,1.17-2.29,2.15-3.93,2.85v-1.77H47.5V8.21h-3.28v5.34h-2.43v3.01
	h2.43v7.61c-0.85,0.23-1.64,0.42-2.31,0.57l-0.19,0.039v3.141l0.3-0.07c1.92-0.43,4.76-1.14,7.27-2.3l0.14-0.069V22.3l-0.35,0.16
	c-0.51,0.24-1.04,0.45-1.57,0.649v-6.56h1.27V17h-0.52v2.94h11.78v7.201H58.7v-6.42h-8.13v7.19h6.3l0.68,2.279h3.17
	c1.26,0,2.55-0.27,2.67-2.18h0.01v-8.07h1.8V17H64.68"/>
<polyline points="79.91,26.561 79.91,20 87.52,20 87.52,16.84 79.91,16.84 79.91,11.84 88.63,11.84 88.63,8.68 68.3,8.68 
	68.3,11.84 76.12,11.84 76.12,16.84 69.28,16.84 69.28,20 76.12,20 76.12,26.561 67.71,26.561 67.71,29.76 89.14,29.76 
	89.14,26.561 79.91,26.561 "/>
<path d="M87.27,25.91l-0.03-0.12c-0.5-2.12-1.19-3.66-1.98-5.15l-3.63,0.01c0.56,1.24,1.17,2.78,1.85,5.27h3.79"/>
</svg>
