<?xml version="1.0" encoding="iso-8859-1"?>
<!-- Generator: Adobe Illustrator 20.1.0, SVG Export Plug-In . SVG Version: 6.00 Build 0)  -->
<svg version="1.1" id="&#x30EC;&#x30A4;&#x30E4;&#x30FC;_1"
	 xmlns="http://www.w3.org/2000/svg" xmlns:xlink="http://www.w3.org/1999/xlink" x="0px" y="0px" viewBox="0 0 305.346 34.82"
	 style="enable-background:new 0 0 305.346 34.82;" xml:space="preserve">
<g>
	<g>
		<path style="fill:#FFFFFF;" d="M293.618,21.267c5.185-8.424,4.748-16.976,4.748-16.976h-25.951v3.676h21.318
			c-0.13,2.062-0.841,8.043-4.752,13.324c-2.803,3.783-5.91,6.523-8.972,7.982c-5.666,2.699-9.681,2.584-9.681,2.584l0.649,2.24
			c0,0,11.037,1.025,19.655-8.787c0.37-0.42,0.721-0.846,1.056-1.273c0.695,0.726,2.108,2.299,3.498,4.432
			c1.505,2.312,3.416,6.088,3.416,6.088l3.442-1.838c0,0-1.682-3.1-4.1-6.375C296.233,24.025,294.564,22.229,293.618,21.267z"/>
		<rect x="299.775" y="1.648" style="fill:#FFFFFF;" width="2.183" height="6.318"/>
		<rect x="303.164" y="1.648" style="fill:#FFFFFF;" width="2.182" height="6.318"/>
	</g>
	<g>
		<rect x="208.792" y="4.262" style="fill:#FFFFFF;" width="29.275" height="3.66"/>
		<path style="fill:#FFFFFF;" d="M26.971,1.506h-4.444v20.15c0,5.467-1.738,7.455-6.992,7.455c-0.902,0-2.864-0.006-4.042,0
			c-4.508,0.027-7.048-1.219-7.048-5.916v-4.742H0l0.002,5.924c0,6.021,4.103,8.049,8.011,8.557
			c1.838,0.238,4.624,0.305,5.711,0.291c0,0,3.189-0.018,5.473-0.332c5.3-0.729,7.76-4.443,7.76-9.963L26.971,1.506z"/>
		<path style="fill:#FFFFFF;" d="M59.764,11.307c0-1.404,0-0.508,0-1.969c0-6.016-4.43-7.576-8.285-7.576
			c-0.185,0-20.137,0.002-20.137,0.002v31.699h4.418V19.961h14.287c5.254,0,5.127,1.822,5.254,6.525
			c0.054,1.963-0.05,4.217-0.05,6.976c0,0,3.283,0,4.45,0c0,0,0.004-7.56,0.004-8.25c0-3.238,0.106-5.68-3.417-7.428
			c0,0-0.006-0.045-0.006-0.092C58.431,16.732,59.764,14.492,59.764,11.307z M35.758,15.898L35.76,5.832h15.595
			c2.554,0,3.894,1.344,3.894,3.836c0,0.731,0,1.523,0,2.225c0,2.547-1.38,4.033-4.432,4.033L35.758,15.898z"/>
		<path style="fill:#FFFFFF;" d="M84.614,23.115h9.278V8.789H81.645V6.353h15.203V3.057H81.645V0.033h-3.503v3.023H62.938v3.297
			h15.203v2.435H65.914v14.326h9.258c-2.143,2.645-6.942,5.857-12.631,7.601c1.034,1.791,2.269,3.463,2.269,3.463
			c3.857-1.469,9.376-4.908,13.332-9.623v10.26h3.503v-10.26c3.956,4.715,9.475,8.154,13.332,9.623c0,0,1.234-1.672,2.269-3.463
			C91.558,28.973,86.757,25.76,84.614,23.115z M81.645,20.25v-2.785h8.745v2.785H81.645z M90.39,11.812v2.627h-8.745v-2.627H90.39z
			 M78.142,11.812v2.627h-8.726v-2.627H78.142z M69.416,17.465h8.726v2.785h-8.726V17.465z"/>
		<path style="fill:#FFFFFF;" d="M100.668,1.703v32.875h3.662v-2.389h20.599v2.389h3.662V1.703H100.668z M124.929,28.688H104.33
			V18.301h20.599V28.688z M124.929,14.957H104.33V5.365h20.599V14.957z"/>
		<path style="fill:#FFFFFF;" d="M153.852,9.754h12.723V6.092h-14.932V0h-3.661v6.092h-14.938v3.662h12.909
			c-4.254,8.963-10.069,13.269-13.656,15.75c1.354,2.07,2.309,3.582,2.309,3.582c5.692-4.449,10.416-9.977,13.376-16.178V23.41
			h-6.929v3.457h6.929v7.953h3.661v-7.953h7.463V23.41h-7.463V12.445c3.098,6.299,8.038,11.853,13.964,16.26
			c0,0,0.918-1.535,2.222-3.635C164.198,22.684,158.313,18.543,153.852,9.754z"/>
		<polygon style="fill:#FFFFFF;" points="203.628,7.445 190.05,7.445 190.05,1.869 186.268,1.869 186.268,7.445 172.495,7.445 
			172.495,11.105 186.268,11.105 186.268,34.342 190.05,34.342 190.05,11.105 203.628,11.105 		"/>
		<path style="fill:#FFFFFF;" d="M176.979,15.129c-0.213,6.633-2.707,12.418-5.838,15.92c1.061,1.063,1.752,1.752,1.752,1.752
			c4.245-2.547,8.172-9.078,8.172-17.674C179.474,15.127,176.979,15.129,176.979,15.129z"/>
		<path style="fill:#FFFFFF;" d="M195.393,16.084l2.706-1.326c2.866,4.83,5.466,12.947,6.209,17.777
			c-2.441,0.584-4.457,1.008-4.457,1.008C199.001,25.902,196.932,20.064,195.393,16.084z"/>
		<path style="fill:#FFFFFF;" d="M226.914,16.121h12.208v-3.662h-31.843v3.662h15.307c0.033,10.762-2.826,13.516-11.485,15.869
			c0.238,1.354,0.438,2.109,0.438,2.109c10.388-0.637,14.925-6.686,15.124-13.371C226.82,17.703,226.887,16.967,226.914,16.121z"/>
		<path style="fill:#FFFFFF;" d="M248.465,4.211h-3.98v11.025c-0.004,0-0.006,0-0.006,0c0,7.004-1.805,12.734-6.104,16.662
			c1.061,1.379,1.433,2.016,1.433,2.016c7.573-4.6,8.516-12.006,8.633-16.022h0.023V4.211z"/>
		<path style="fill:#FFFFFF;" d="M270.241,15.992c-2.822,9.549-7.016,12.305-10.845,13.217V4.211h-3.954v30.348l0.004-0.004
			c0,0.035,0,0.068,0,0.104c1.273-0.041,2.776-0.479,6.198-1.672c1.234-0.518,8.875-3.463,11.064-16.637L270.241,15.992z"/>
	</g>
</g>
</svg>
