<svg preserveAspectRatio="none" width="100%" height="100%" overflow="visible" style="display: block;" viewBox="0 0 216 15" fill="none" xmlns="http://www.w3.org/2000/svg">
<g id="logo-des">
<g id="DES_logo_ja">
<path d="M110.347 10.5008V3.58581H117.231V1.2003H100.455V3.58581H107.471V10.5008H99.4991V12.9089H118.319V10.5008H110.347Z" fill="var(--fill-0, #221714)"/>
<path d="M134.846 3.02718C133.707 1.92501 131.824 1.37393 129.239 1.37393H120.165V3.75944H129.239C130.918 3.75944 132.072 4.03875 132.663 4.59738C133.189 5.10317 133.451 6.03926 133.451 7.39054C133.451 8.74182 133.189 9.65526 132.663 10.1535C132.079 10.7121 130.926 10.9914 129.239 10.9914H120.165V13.377H129.239C131.824 13.377 133.707 12.8183 134.838 11.7237C135.824 10.7574 136.32 9.30045 136.32 7.39054C136.32 5.48062 135.824 3.99346 134.838 3.01963" fill="var(--fill-0, #221714)"/>
<path d="M153.118 2.846L153.081 3.14796C152.366 8.59084 147.438 11.535 138.437 11.8973L138.116 11.9124V14.4338L138.467 14.4187C143.226 14.2149 147.124 13.309 150.059 11.7388C153.614 9.83644 155.636 6.98289 156.067 3.23855L156.111 2.85355H153.125L153.118 2.846ZM145.044 8.70408L145.533 8.96075V6.28837L145.35 6.19024C144.073 5.51837 141.978 4.95974 139.131 4.51434L138.744 4.45395V6.99799L139.029 7.04328C141.73 7.46603 143.752 8.02466 145.044 8.70408ZM146.511 4.28032L146.993 4.51434V1.87972L146.803 1.78913C145.161 0.981379 142.803 0.400101 139.795 0.0452944L139.423 0V2.56668L139.722 2.59688C142.598 2.90639 144.883 3.47257 146.519 4.28032" fill="var(--fill-0, #221714)"/>
<path d="M175.74 11.2406C173.74 9.77605 171.689 8.5229 169.623 7.45848C171.105 5.75994 171.857 4.26522 171.857 2.91394C171.857 2.08354 171.543 1.41168 170.915 0.913437C170.324 0.430297 169.506 0.181178 168.506 0.181178H158.907V2.61953H167.915C168.74 2.61953 168.74 2.92149 168.74 3.07247C168.74 4.40111 167.645 5.97886 165.477 7.76799C163.163 9.60997 160.666 10.8103 158.067 11.3236L157.797 11.3764V14.1092L158.206 14.0186C161.761 13.2184 164.951 11.6482 167.703 9.3382C170.499 10.7499 173.069 12.4107 175.339 14.2904L175.886 14.7433V11.3538L175.748 11.2481L175.74 11.2406Z" fill="var(--fill-0, #221714)"/>
<path d="M177.419 4.25013V6.63563H186.158V7.18671C186.158 8.71918 185.734 9.82889 184.858 10.5762C183.997 11.3689 182.522 11.852 180.478 12.0408L180.172 12.071V14.5395L180.537 14.5093C186.209 14.0413 189.078 11.5803 189.078 7.18671V6.63563H196.421V4.25013H177.419ZM193.866 0.0150981H179.982V2.43835H193.866V0.0150981Z" fill="var(--fill-0, #221714)"/>
<path d="M215.825 13.2184C214.825 10.5611 213.445 7.96427 211.715 5.51082L211.613 5.36739H208.131L208.561 5.92602C209.576 7.2622 210.488 8.71163 211.291 10.229C210.467 10.3347 206.568 10.8556 206.568 10.8556C204.568 11.082 202.809 11.1953 201.327 11.1953C201.028 11.1953 201.028 11.1122 201.028 11.0141C201.028 10.9612 201.064 10.6744 201.75 9.73075L202.867 8.18319C204.298 6.13739 205.919 3.58581 207.693 0.603926L208.006 0.0754907H204.678L204.583 0.249119C203.028 3.09512 201.378 5.69955 199.692 8.00201L198.633 9.42879C198.159 10.1686 197.947 10.7197 197.947 11.1575C197.947 12.2748 198.48 13.6034 201.013 13.6034C203.546 13.6034 207.269 13.226 212.423 12.4862C212.554 12.8032 212.912 13.6789 212.912 13.6789H216L215.825 13.2109V13.2184Z" fill="var(--fill-0, #221714)"/>
<path d="M43.4497 1.60795C42.0846 0.80775 39.3617 0.40765 35.2882 0.40765C30.952 0.40765 28.0831 0.792652 26.6961 1.56266C25.3018 2.33266 24.6083 3.91797 24.6083 6.31857V9.42879C24.6083 11.6407 25.3091 13.1127 26.718 13.8752C28.1269 14.6301 30.8936 15 35.0181 15C39.1427 15 41.8291 14.6074 43.2964 13.8223C44.7637 13.0372 45.501 11.5727 45.501 9.42879V6.34122C45.501 3.98591 44.8148 2.40815 43.4497 1.60795ZM40.3472 8.60594C40.3472 9.73075 39.9603 10.5008 39.1938 10.9084C38.4273 11.3161 36.9745 11.5199 34.8575 11.5199C32.7405 11.5199 31.2513 11.3236 30.514 10.9311C29.7694 10.5385 29.4044 9.76095 29.4044 8.59839V6.97534C29.4044 5.71465 29.7694 4.8918 30.4921 4.48415C31.2221 4.08405 32.7259 3.88022 34.9962 3.88022C37.1351 3.88022 38.5514 4.0916 39.2741 4.50679C39.9895 4.92954 40.3472 5.75239 40.3472 6.99044V8.60594Z" fill="var(--fill-0, #221714)"/>
<path d="M19.0822 1.45697C17.6368 0.80775 14.4394 0.475591 9.50461 0.475591H0V4.26522H1.6133V11.1424H0V14.9321H9.50461C14.5635 14.9321 17.7828 14.5848 19.1771 13.8903C20.5568 13.1958 21.2576 11.5878 21.2576 9.04379V5.72974C21.2576 3.52542 20.5276 2.09864 19.0822 1.44942M13.2495 11.0594L6.05901 11.1424V4.26522C6.05901 4.26522 12.8188 4.32562 12.9794 4.32562H13.2495C15.0234 4.32562 16.4615 5.82788 16.4615 7.68495C16.4615 9.54202 15.0234 11.0518 13.2495 11.0518" fill="var(--fill-0, #221714)"/>
<path d="M92.4254 4.0765C92.4254 4.0765 92.4108 4.00856 92.4035 3.97081C91.9436 2.10619 89.8704 0.603926 87.7607 0.603926H80.0592C77.9568 0.603926 75.8763 2.10619 75.4164 3.97081C75.3872 4.11424 75.3507 4.25013 75.3215 4.37091L72.219 14.8113H77.2049L78.1685 11.5652H89.6733L90.6369 14.8113H95.6228L92.4327 4.0765H92.4254ZM79.2489 7.88123L79.9716 5.45043C80.4242 4.55209 81.1688 3.94061 81.928 3.94061H85.8554C86.6146 3.94061 87.3738 4.56719 87.8337 5.48062H87.8483L88.5637 7.88123H79.2489Z" fill="var(--fill-0, #221714)"/>
<path d="M71.3795 0.596376H66.9922L63.605 10.5536L62.3786 0.498239H56.9109L55.6407 10.5083L52.3411 0.641671H47.7786L50.7643 11.301L50.8519 11.3764C51.3994 13.3468 53.1368 14.8037 55.2319 14.8943H55.2465L58.8673 14.9019L59.6338 8.1228L60.2251 14.9019H62.4881L62.5319 14.8717C62.6925 14.8868 62.8604 14.9019 63.021 14.9019C65.2183 14.9019 67.0871 13.611 67.8244 11.7916L67.8609 11.7615L71.3868 0.588827L71.3795 0.596376Z" fill="var(--fill-0, #221714)"/>
</g>
</g>
</svg>
