<svg width="156" height="30" viewBox="0 0 156 30" fill="none" xmlns="http://www.w3.org/2000/svg">
<g id="Logo">
<path id="Union" fill-rule="evenodd" clip-rule="evenodd" d="M130.952 6.36686C131.451 5.78985 133.171 3.7387 134.306 1.57689L135.136 0H130.706L130.398 0.517727C129.661 1.75474 128.881 2.85738 128.074 3.78613C127.594 4.33943 127.033 4.89667 126.409 5.43811L126.038 5.75824V11.0185L127.778 9.52856C128.897 8.56819 129.965 7.50112 130.952 6.36291V6.36686ZM102.106 23.1793C103.272 22.9105 104.434 22.6062 104.898 22.4837L104.906 22.4718L106.173 22.1319L106.341 25.9971L105.487 26.1987C102.788 26.8429 98.0774 27.819 94.2986 28.4316L93.0741 28.6332V24.7759L93.9788 24.6415C95.3554 24.44 97.0596 24.1554 98.2997 23.946V16.2038H94.361V12.4216H98.2997V10.4416H95.0083V9.65115C94.8679 9.75391 94.7197 9.86062 94.7197 9.86062L93.0741 10.9751V6.13772L93.4991 5.8176C95.8233 4.06286 97.4885 2.32788 98.3075 0.794459L98.6077 0.23721H101.201L101.474 0.430864C102.103 0.877694 102.693 1.40572 103.368 2.01136L103.439 2.07494L103.989 2.56896C105.073 3.53328 105.943 4.31975 106.477 4.96394L106.727 5.2643V10.6985C106.727 10.6985 105.635 9.52073 105.261 9.11762V10.4495H102.106V12.4295H105.955V16.2117H102.106V23.1793ZM98.5531 6.66335H102.901C102.648 6.41437 102.402 6.18515 102.18 5.98359C101.774 5.61999 101.162 5.08251 100.491 4.54107C100.023 5.1655 99.3721 5.87688 98.5531 6.66335ZM97.8706 22.373L94.5442 23.5033V23.4994C94.5442 23.4994 94.1386 21.4799 93.4523 19.816L92.8634 18.4486L96.2757 17.0891C96.2757 17.0891 96.8957 18.6422 96.8957 18.6501C97.4534 20.0531 97.8706 22.373 97.8706 22.373ZM103.681 16.8716C103.681 16.8716 103.264 18.9149 102.878 19.9424C102.878 19.9464 102.582 20.8 102.582 20.8L105.514 21.8948L105.889 21.0885C106.554 19.5769 106.839 18.0286 106.887 17.7645C106.891 17.7461 106.893 17.734 106.894 17.7285L106.895 17.7253L106.93 17.5672L103.724 16.6938L103.685 16.8716H103.681ZM117.178 16.2116C117.33 17.0416 117.584 18.1245 117.974 19.0809C118.699 18.7331 121.975 16.9744 121.975 16.9744V21.302C121.975 21.302 119.959 22.3572 119.729 22.456C120.274 23.0725 121.971 24.1752 121.971 24.1752V29.0363L120.341 27.9099C117.911 26.25 115.993 23.9934 114.944 21.5589C114.156 19.733 113.649 17.9348 113.423 16.2116H111.488V23.6298C112.3 23.3452 112.912 23.0962 113.715 22.7682L114.698 22.3177L114.694 26.416V26.5425L114.577 26.582L114.381 26.6456C112 27.4191 111.119 27.7053 108.408 28.4711L107.667 28.6924L107.675 0.960418H121.971V16.2116H117.178ZM118.165 4.79397H111.488V6.64356H118.165V4.79397ZM111.488 12.3504H118.165V10.5008H111.488V12.3504ZM153.66 0.924742H137.367V4.78596H153.66V0.924742ZM136.142 12.7376V8.75386L136.146 8.75781H154.88V12.7415H151.261V25.5346C151.261 27.1273 150.474 27.8465 149.811 28.1667C149.081 28.5184 147.705 28.6804 145.95 28.6804H143.844L143.228 26.0286L142.896 24.6335L145.345 24.7678L145.39 24.7704C145.913 24.8003 146.175 24.8153 146.972 24.8153C147.069 24.8153 147.151 24.8074 147.221 24.7995V12.7376H136.142ZM131.817 6.38672H135.893H135.9H136.154L135.526 7.87667C134.922 9.31919 133.935 11.0739 132.952 12.4769V28.645H128.916V17.2629C128.784 17.4091 128.672 17.5379 128.568 17.6588L128.568 17.6589C128.333 17.9302 128.134 18.1612 127.812 18.4565L126.042 20.0887V14.5874L126.362 14.2712C127.192 13.4531 128.031 12.473 128.854 11.3545L128.912 11.2746C129.979 9.81459 130.905 8.54862 131.544 7.03487L131.817 6.38672ZM53.3788 0.300293H48.5198V5.03888H30.1327V9.97112H42.1087C41.7265 12.4847 39.8157 19.4997 30.2107 22.8274V27.8545C30.2107 27.8545 44.043 26.1076 46.9365 9.97112H48.5159V27.7715H53.3788V9.97112H58.1833V5.03888H53.3788V0.300293ZM8.44674 8.40209C8.44674 8.40209 16.7414 4.01524 18.4651 3.09835V3.1023C20.5709 1.99571 22.6143 1.84948 23.9831 1.84948H27.8984V6.77382H25.2154L25.0592 6.77376C23.3123 6.77278 22.0457 6.77207 19.9586 7.91598L17.2523 9.35851V27.7714H12.3854V11.9353L9.41387 13.5161C7.24498 14.6897 5.04327 14.6875 3.65918 14.6861L3.52143 14.686H0V9.75372H2.68299C4.31696 9.75372 6.30191 9.58773 8.44674 8.40209ZM76.6212 1.90099H61.3071V6.82928H76.6212V1.90099ZM61.2133 22.8275C83.9797 24.4439 82.9268 4.93227 82.9268 4.93227H82.9307H88.0939C88.6282 31.0083 61.2133 27.8546 61.2133 27.8546V22.8275Z" fill="white"/>
</g>
</svg>
