<?xml version="1.0" encoding="UTF-8"?><svg id="_レイヤー_2" xmlns="http://www.w3.org/2000/svg" viewBox="0 0 289.2 87.11"><g id="_レイヤー_1-2"><path d="M61.6,77.6h-5.9v2.3h5.4v2h-5.4v2.9h6.2v2h-8.5v-11.2h8.2v2Z"/><path d="M72.7,86.8h-2.9l-2.1-3.8-2.2,3.8h-2.7l3.6-5.7-3.4-5.5h2.8l2,3.6,2-3.6h2.7l-3.4,5.4,3.6,5.8Z"/><path d="M81.2,79.3c-.21-1.19-1.3-2.02-2.5-1.9-1.1,0-2.8.8-2.8,3.9,0,2,.8,3.8,2.8,3.8,1.24.02,2.31-.87,2.5-2.1h2.3c-.32,2.43-2.45,4.22-4.9,4.1-3,0-5.1-2-5.1-5.9s2.2-5.9,5.1-5.9c3.3,0,4.7,2.3,4.8,3.9l-2.2.1Z"/><path d="M87.5,86.8h-2.3v-11.2h2.3v11.2Z"/><path d="M94.4,86.8h-2.3v-9.2h-3.4v-2h9.1v2h-3.4v9.2Z"/><path d="M101.3,86.8h-2.3v-11.2h2.3v11.2Z"/><path d="M110.3,75.6h2.2v11.2h-2.3l-4.5-8h0v8h-2.2v-11.2h2.5l4.4,7.8h0l-.1-7.8Z"/><path d="M119.9,80.7h4.7v6h-1.6l-.2-1.4c-.83,1.1-2.13,1.73-3.5,1.7-2.7,0-5.1-1.9-5.1-5.9,0-3,1.7-5.9,5.5-5.9,3.4,0,4.8,2.2,4.9,3.8h-2.3c-.26-1.1-1.27-1.86-2.4-1.8-1.7,0-3.2,1.1-3.2,4s1.7,3.8,3.2,3.8c1.41,0,2.59-1.09,2.7-2.5h-2.6l-.1-1.8Z"/><path d="M131.1,75.6h5.4c2.7,0,3.4,1.7,3.4,2.9.08.99-.48,1.92-1.4,2.3,1.11.41,1.81,1.52,1.7,2.7-.01.87-.37,1.7-1,2.3-.6.6-1.2,1-3.5,1h-4.7l.1-11.2ZM133.3,80h2.7c.9,0,1.6-.4,1.6-1.2s-.7-1.2-1.7-1.2h-2.7l.1,2.4ZM133.3,84.8h2.9c1.1,0,1.8-.5,1.8-1.6s-.8-1.4-1.7-1.4h-3v3Z"/><path d="M147.2,75.3c1.5,0,5.4.6,5.4,5.9s-3.9,5.9-5.4,5.9-5.4-.6-5.4-5.9,3.9-5.9,5.4-5.9ZM147.2,85.1c1.3,0,3-.8,3-3.9s-1.8-3.9-3-3.9-3,.8-3,3.9,1.7,3.9,3,3.9Z"/><path d="M159.2,75.3c1.5,0,5.4.6,5.4,5.9s-3.9,5.9-5.4,5.9-5.4-.6-5.4-5.9,4-5.9,5.4-5.9ZM159.2,85.1c1.3,0,3-.8,3-3.9s-1.8-3.9-3-3.9-3,.8-3,3.9,1.8,3.9,3,3.9Z"/><path d="M169,86.8h-2.3v-11.2h2.3v4.5l4.2-4.5h3l-4.5,4.6,4.8,6.6h-3l-3.5-4.9-1.1,1.2v3.7h.1Z"/><path d="M183.7,83.3c0,.6.3,1.8,2.4,1.8,1.1,0,2.3-.3,2.3-1.5,0-.9-.8-1.1-2-1.4l-1.2-.3c-1.8-.4-3.5-.8-3.5-3.3,0-1.2.7-3.4,4.3-3.4,3.4,0,4.3,2.2,4.3,3.6h-2.3c-.1-.5-.2-1.7-2.3-1.7-.9,0-1.9.3-1.9,1.3s.7,1.1,1.2,1.2l2.7.7c1.5.4,2.9,1,2.9,3,0,3.4-3.4,3.6-4.4,3.6-4.1,0-4.8-2.4-4.8-3.7l2.3.1Z"/><path d="M197.1,86.8h-2.3v-9.2h-3.4v-2h9.1v2h-3.4v9.2Z"/><path d="M206.5,75.3c1.5,0,5.4.6,5.4,5.9s-3.9,5.9-5.4,5.9-5.4-.6-5.4-5.9,3.9-5.9,5.4-5.9ZM206.5,85.1c1.3,0,3-.8,3-3.9s-1.8-3.9-3-3.9-3,.8-3,3.9,1.7,3.9,3,3.9Z"/><path d="M213.7,75.6h5.6c3,0,3.5,2.2,3.5,3.1.11,1.16-.6,2.23-1.7,2.6.9.4,1.4.8,1.4,2.8,0,1.6,0,2,.5,2.2v.3h-2.6c-.22-.75-.29-1.53-.2-2.3,0-1.5-.1-2.1-1.8-2.1h-2.4v4.4h-2.3v-11ZM218.7,80.5c1.2,0,1.8-.4,1.8-1.5.04-.79-.56-1.46-1.35-1.51-.08,0-.17,0-.25,0h-2.9v3h2.7Z"/><path d="M233.1,77.6h-5.9v2.3h5.4v2h-5.4v2.9h6.2v2h-8.5v-11.2h8.2v2Z"/><path d="M7,8.8l3.8,38.2,3.5-38.3h7l-6.2,48.3H6L0,8.8h7Z"/><path d="M137.3,12.3l3.8,38.3,3.5-38.3h7l-6.1,48.3h-9.1l-6-48.3h6.9Z"/><path d="M21.2,73.7V25.4h7v48.3h-7Z"/><path d="M93.8,37.2v24.1h-3.5l-.2-3h-.1c-1.08,2.5-3.58,4.08-6.3,4-3.3,0-8.1-1.8-8.1-8.1V20.1c0-6.3,4.8-8.1,9.1-8.1s9.1,1.8,9.1,8.1v10.3h-7v-9.6c0-2.4-.7-3-2.1-3s-2.2.5-2.2,3v32.7c0,2.4.7,3,2.2,3s2.1-.5,2.1-3v-10.6h-2.8v-5.8l9.8.1Z"/><path d="M97,61.2V13h15.5v6.3h-8.5v12.4h8.2v6.4h-8.2v17h8.7v6.3l-15.7-.2Z"/><path d="M182.3,7.4v30.1l-6.7-30.1h-8v43l-3.6-32.6h-10.5l-5.3,48.3h6.3l.7-7h6.4l.6,7h7l-1-9.2h5V21.4l7.9,34.3h6.9V7.4h-5.7ZM155.9,53.4l2.4-26.8h.5l2.2,26.8h-5.1Z"/><path d="M208.3,34.4v24.1h-3.5l-.2-3.1h-.1c-1.08,2.5-3.58,4.08-6.3,4-3.3,0-8.1-1.8-8.1-8.1V17.4c0-6.3,4.8-8.1,9.1-8.1s9.1,1.8,9.1,8.1v10.2h-7v-9.6c0-2.4-.7-3-2.1-3s-2.2.5-2.2,3v32.7c0,2.5.7,3,2.2,3s2.1-.5,2.1-3v-10.5h-2.7v-5.8h9.7Z"/><path d="M250.9,69.6V21.3h9.2c5.6,0,9,2,9,8.3v6.9c0,3.6-1,6.6-6.9,7.3v.1c3.1.4,6.6,1.5,6.6,5.9,0,11.4,0,17.7,1.1,19.9h-7c-.6-3-.9-6-.9-18.5,0-2.9-1-4.1-4.3-3.9v22.4l-6.8-.1ZM257.9,41.3h1.3c2.4,0,3-1.4,3-3.1v-8.8c0-1.8-1-2.4-2.6-2.4h-1.6l-.1,14.3Z"/><path d="M271,10.2h8.4c6.9,0,9.8,2.4,9.8,10.9v28.6c0,4.6-2.9,8.8-8.3,8.8h-9.9V10.2ZM278,52.7h1.6c1.8,0,2.6-.5,2.6-3.6v-29.6c0-3.1-.9-3.6-2.6-3.6h-1.6v36.8Z"/><path d="M69.5,20.4h-9.1l-4.5,35.2h-4.2V13.6h-7v45.4h-6.5V17h-7v48.3h15.8v-3.5h8l-.9,6.8h7l.6-6.8h6.1l.7,6.8h7l-6-48.2ZM62.3,55.6l2.3-25.1,2.6,25.1h-4.9Z"/><path d="M244.2,4.6h-9.1l-6,46.6V15h-7v40.5c0,2.4-.7,3-2.1,3s-2.2-.5-2.2-3V15h-7v41.1c0,6.3,4.8,8.1,9.1,8.1s9.1-1.8,9.1-8.1v-3.2h6.8l.5-5.8h6.1l.8,5.8h7l-6-48.3ZM237.1,40.6l2.3-27.1,2.4,27.1h-4.7Z"/><polygon points="129.3 0 128.5 0 115.9 66.5 116.8 66.5 129.3 0"/><path d="M61.6,77.6h-5.9v2.3h5.4v2h-5.4v2.9h6.2v2h-8.5v-11.2h8.2v2Z"/><path d="M72.7,86.8h-2.9l-2.1-3.8-2.2,3.8h-2.7l3.6-5.7-3.4-5.5h2.8l2,3.6,2-3.6h2.7l-3.4,5.4,3.6,5.8Z"/><path d="M81.2,79.3c-.21-1.19-1.3-2.02-2.5-1.9-1.1,0-2.8.8-2.8,3.9,0,2,.8,3.8,2.8,3.8,1.24.02,2.31-.87,2.5-2.1h2.3c-.32,2.43-2.45,4.22-4.9,4.1-3,0-5.1-2-5.1-5.9s2.2-5.9,5.1-5.9c3.3,0,4.7,2.3,4.8,3.9l-2.2.1Z"/><path d="M87.5,86.8h-2.3v-11.2h2.3v11.2Z"/><path d="M94.4,86.8h-2.3v-9.2h-3.4v-2h9.1v2h-3.4v9.2Z"/><path d="M101.3,86.8h-2.3v-11.2h2.3v11.2Z"/><path d="M110.3,75.6h2.2v11.2h-2.3l-4.5-8h0v8h-2.2v-11.2h2.5l4.4,7.8h0l-.1-7.8Z"/><path d="M119.9,80.7h4.7v6h-1.6l-.2-1.4c-.83,1.1-2.13,1.73-3.5,1.7-2.7,0-5.1-1.9-5.1-5.9,0-3,1.7-5.9,5.5-5.9,3.4,0,4.8,2.2,4.9,3.8h-2.3c-.26-1.1-1.27-1.86-2.4-1.8-1.7,0-3.2,1.1-3.2,4s1.7,3.8,3.2,3.8c1.41,0,2.59-1.09,2.7-2.5h-2.6l-.1-1.8Z"/><path d="M131.1,75.6h5.4c2.7,0,3.4,1.7,3.4,2.9.08.99-.48,1.92-1.4,2.3,1.11.41,1.81,1.52,1.7,2.7-.01.87-.37,1.7-1,2.3-.6.6-1.2,1-3.5,1h-4.7l.1-11.2ZM133.3,80h2.7c.9,0,1.6-.4,1.6-1.2s-.7-1.2-1.7-1.2h-2.7l.1,2.4ZM133.3,84.8h2.9c1.1,0,1.8-.5,1.8-1.6s-.8-1.4-1.7-1.4h-3v3Z"/><path d="M147.2,75.3c1.5,0,5.4.6,5.4,5.9s-3.9,5.9-5.4,5.9-5.4-.6-5.4-5.9,3.9-5.9,5.4-5.9ZM147.2,85.1c1.3,0,3-.8,3-3.9s-1.8-3.9-3-3.9-3,.8-3,3.9,1.7,3.9,3,3.9Z"/><path d="M159.2,75.3c1.5,0,5.4.6,5.4,5.9s-3.9,5.9-5.4,5.9-5.4-.6-5.4-5.9,4-5.9,5.4-5.9ZM159.2,85.1c1.3,0,3-.8,3-3.9s-1.8-3.9-3-3.9-3,.8-3,3.9,1.8,3.9,3,3.9Z"/><path d="M169,86.8h-2.3v-11.2h2.3v4.5l4.2-4.5h3l-4.5,4.6,4.8,6.6h-3l-3.5-4.9-1.1,1.2v3.7h.1Z"/><path d="M183.7,83.3c0,.6.3,1.8,2.4,1.8,1.1,0,2.3-.3,2.3-1.5,0-.9-.8-1.1-2-1.4l-1.2-.3c-1.8-.4-3.5-.8-3.5-3.3,0-1.2.7-3.4,4.3-3.4,3.4,0,4.3,2.2,4.3,3.6h-2.3c-.1-.5-.2-1.7-2.3-1.7-.9,0-1.9.3-1.9,1.3s.7,1.1,1.2,1.2l2.7.7c1.5.4,2.9,1,2.9,3,0,3.4-3.4,3.6-4.4,3.6-4.1,0-4.8-2.4-4.8-3.7l2.3.1Z"/><path d="M197.1,86.8h-2.3v-9.2h-3.4v-2h9.1v2h-3.4v9.2Z"/><path d="M206.5,75.3c1.5,0,5.4.6,5.4,5.9s-3.9,5.9-5.4,5.9-5.4-.6-5.4-5.9,3.9-5.9,5.4-5.9ZM206.5,85.1c1.3,0,3-.8,3-3.9s-1.8-3.9-3-3.9-3,.8-3,3.9,1.7,3.9,3,3.9Z"/><path d="M213.7,75.6h5.6c3,0,3.5,2.2,3.5,3.1.11,1.16-.6,2.23-1.7,2.6.9.4,1.4.8,1.4,2.8,0,1.6,0,2,.5,2.2v.3h-2.6c-.22-.75-.29-1.53-.2-2.3,0-1.5-.1-2.1-1.8-2.1h-2.4v4.4h-2.3v-11ZM218.7,80.5c1.2,0,1.8-.4,1.8-1.5.04-.79-.56-1.46-1.35-1.51-.08,0-.17,0-.25,0h-2.9v3h2.7Z"/><path d="M233.1,77.6h-5.9v2.3h5.4v2h-5.4v2.9h6.2v2h-8.5v-11.2h8.2v2Z"/><path d="M7,8.8l3.8,38.2,3.5-38.3h7l-6.2,48.3H6L0,8.8h7Z"/><path d="M137.3,12.3l3.8,38.3,3.5-38.3h7l-6.1,48.3h-9.1l-6-48.3h6.9Z"/><path d="M21.2,73.7V25.4h7v48.3h-7Z"/><path d="M93.8,37.2v24.1h-3.5l-.2-3h-.1c-1.08,2.5-3.58,4.08-6.3,4-3.3,0-8.1-1.8-8.1-8.1V20.1c0-6.3,4.8-8.1,9.1-8.1s9.1,1.8,9.1,8.1v10.3h-7v-9.6c0-2.4-.7-3-2.1-3s-2.2.5-2.2,3v32.7c0,2.4.7,3,2.2,3s2.1-.5,2.1-3v-10.6h-2.8v-5.8l9.8.1Z"/><path d="M97,61.2V13h15.5v6.3h-8.5v12.4h8.2v6.4h-8.2v17h8.7v6.3l-15.7-.2Z"/><path d="M182.3,7.4v30.1l-6.7-30.1h-8v43l-3.6-32.6h-10.5l-5.3,48.3h6.3l.7-7h6.4l.6,7h7l-1-9.2h5V21.4l7.9,34.3h6.9V7.4h-5.7ZM155.9,53.4l2.4-26.8h.5l2.2,26.8h-5.1Z"/><path d="M208.3,34.4v24.1h-3.5l-.2-3.1h-.1c-1.08,2.5-3.58,4.08-6.3,4-3.3,0-8.1-1.8-8.1-8.1V17.4c0-6.3,4.8-8.1,9.1-8.1s9.1,1.8,9.1,8.1v10.2h-7v-9.6c0-2.4-.7-3-2.1-3s-2.2.5-2.2,3v32.7c0,2.5.7,3,2.2,3s2.1-.5,2.1-3v-10.5h-2.7v-5.8h9.7Z"/><path d="M250.9,69.6V21.3h9.2c5.6,0,9,2,9,8.3v6.9c0,3.6-1,6.6-6.9,7.3v.1c3.1.4,6.6,1.5,6.6,5.9,0,11.4,0,17.7,1.1,19.9h-7c-.6-3-.9-6-.9-18.5,0-2.9-1-4.1-4.3-3.9v22.4l-6.8-.1ZM257.9,41.3h1.3c2.4,0,3-1.4,3-3.1v-8.8c0-1.8-1-2.4-2.6-2.4h-1.6l-.1,14.3Z"/><path d="M271,10.2h8.4c6.9,0,9.8,2.4,9.8,10.9v28.6c0,4.6-2.9,8.8-8.3,8.8h-9.9V10.2ZM278,52.7h1.6c1.8,0,2.6-.5,2.6-3.6v-29.6c0-3.1-.9-3.6-2.6-3.6h-1.6v36.8Z"/><path d="M69.5,20.4h-9.1l-4.5,35.2h-4.2V13.6h-7v45.4h-6.5V17h-7v48.3h15.8v-3.5h8l-.9,6.8h7l.6-6.8h6.1l.7,6.8h7l-6-48.2ZM62.3,55.6l2.3-25.1,2.6,25.1h-4.9Z"/><path d="M244.2,4.6h-9.1l-6,46.6V15h-7v40.5c0,2.4-.7,3-2.1,3s-2.2-.5-2.2-3V15h-7v41.1c0,6.3,4.8,8.1,9.1,8.1s9.1-1.8,9.1-8.1v-3.2h6.8l.5-5.8h6.1l.8,5.8h7l-6-48.3ZM237.1,40.6l2.3-27.1,2.4,27.1h-4.7Z"/><polygon points="129.3 0 128.5 0 115.9 66.5 116.8 66.5 129.3 0"/></g></svg>