<svg width="80" height="24" viewBox="0 0 80 24" fill="none" xmlns="http://www.w3.org/2000/svg">
<g clip-path="url(#clip0_454_1862)">
<path d="M23.3767 3.22155H34.0687V0.521286H17.3621L0 23.4683H3.37669L20.3954 0.969592V23.4839H34.3184V20.7785H23.3767V3.22155Z" fill="white"/>
<path d="M77.1906 0.521286V18.073L64.6152 0.521286H62.3467V23.4839H65.1615V5.92702L77.7629 23.4839H80.0002V0.521286H77.1906Z" fill="white"/>
<path d="M47.7157 0C40.8166 0 35.416 5.2702 35.416 12C35.416 18.7298 40.8166 24 47.7157 24C54.6148 24 60.083 18.7298 60.083 12C60.083 5.2702 54.6512 0 47.7157 0ZM47.7833 21.3675C42.6168 21.3675 38.4285 17.1712 38.4285 11.9948C38.4285 6.81842 42.6168 2.62207 47.7833 2.62207C52.9498 2.62207 57.1382 6.81842 57.1382 11.9948C57.1382 17.1712 52.9498 21.3675 47.7833 21.3675Z" fill="white"/>
<path d="M39.8647 9.13814C44.2611 9.53432 45.1456 10.6655 45.0416 11.1972C44.771 12.5578 39.1103 13.7255 31.8158 13.7255C24.5213 13.7255 18.5692 12.5891 18.5692 11.1972C18.5692 9.80539 25.3538 8.60643 33.1425 8.60643C33.1425 8.60643 33.7044 8.63249 33.7044 8.38749C33.694 8.09557 33.1633 8.12685 33.1633 8.12685C22.1279 8.12685 16.207 9.77411 16.207 11.9896C16.207 14.205 23.1945 15.8158 31.8158 15.8158C40.437 15.8158 47.3985 14.0956 47.3985 11.9896C47.3985 10.7802 45.5723 9.20591 39.8074 8.65335C39.8074 8.65335 39.3756 8.60643 39.3496 8.85665C39.3184 9.11208 39.8647 9.14336 39.8647 9.14336V9.13814Z" fill="url(#paint0_linear_454_1862)"/>
<path d="M23.3768 5.69765H20.3955V11.3171H23.3768V5.69765Z" fill="white"/>
</g>
<defs>
<linearGradient id="paint0_linear_454_1862" x1="31.4721" y1="16.2722" x2="31.4721" y2="9.9894" gradientUnits="userSpaceOnUse">
<stop stop-color="#B60081"/>
<stop offset="1" stop-color="white"/>
</linearGradient>
<clipPath id="clip0_454_1862">
<rect width="80" height="24" fill="white"/>
</clipPath>
</defs>
</svg>
