<svg xmlns="http://www.w3.org/2000/svg" width="293.221" height="27.468"><defs><clipPath id="a"><path data-name="長方形 148" fill="none" d="M0 0h293.221v27.468H0z"/></clipPath><clipPath id="b"><path data-name="長方形 146" fill="none" d="M0 0h244.224v20.161H0z"/></clipPath></defs><g clip-path="url(#a)"><path data-name="パス 1282" d="M28.183 0l-4.7 2.747 4.7 2.747z" fill="#a1a2a3"/><path data-name="パス 1283" d="M28.183 21.972l-4.7-2.746 4.7-2.747z" fill="#a1a2a3"/><path data-name="パス 1284" d="M9.395 0l-4.7 2.747 4.7 2.747 4.7-2.747z" fill="#a1a2a3"/><path data-name="パス 1285" d="M18.787 0l-4.7 2.747 4.7 2.747 4.7-2.747z" fill="#a1a2a3"/><path data-name="パス 1286" d="M28.184 16.48l-4.7-2.747-4.7 2.747 4.7 2.745z" fill="#474645"/><path data-name="パス 1287" d="M14.09 8.237L9.39 5.49 4.696 8.237l4.7 2.745z" fill="#474645"/><path data-name="パス 1288" d="M28.184 21.974l-4.7-2.747-4.7 2.747 4.7 2.747z" fill="#474645"/><path data-name="パス 1289" d="M14.09 19.225l-4.7-2.747-4.7 2.747 4.7 2.747z" fill="#474645"/><path data-name="パス 1290" d="M18.789 5.493l-4.7-2.746-4.7 2.746 4.7 2.747z" fill="#dddede"/><path data-name="パス 1291" d="M18.789 10.986l-4.7-2.745-4.7 2.745 4.7 2.747z" fill="#dddede"/><path data-name="パス 1292" d="M18.789 16.479l-4.7-2.747-4.7 2.747 4.7 2.746z" fill="#dddede"/><path data-name="パス 1293" d="M23.486 13.733l-4.7-2.747-4.7 2.747 4.7 2.742z" fill="#a1a2a3"/><path data-name="パス 1294" d="M14.092 13.733l-4.7-2.747-4.7 2.747 4.7 2.747z" fill="#a1a2a3"/><path data-name="パス 1295" d="M14.087 24.721l4.7 2.747 4.7-2.747-4.7-2.749z" fill="#a1a2a3"/><path data-name="パス 1296" d="M4.695 24.721l4.7 2.747 4.7-2.747-4.7-2.748z" fill="#a1a2a3"/><path data-name="パス 1297" d="M18.789 21.974l-4.7-2.749-4.7 2.749 4.7 2.747z" fill="#dddede"/><path data-name="パス 1298" d="M28.184 5.495l-4.7-2.747-4.7 2.747 4.7 2.748z" fill="#474645"/><path data-name="パス 1299" d="M0 0v5.494l4.7-2.747z" fill="#a1a2a3"/><g data-name="グループ 82"><g data-name="グループ 81"><g data-name="グループ 80" clip-path="url(#a)"><g data-name="グループ 79"><g data-name="グループ 78" clip-path="url(#b)" fill="#1a1311" transform="translate(48.996 4.274)"><path data-name="パス 1300" d="M16.278.253v1.261h-7.37v18.393H7.372V1.514H0V.253z"/><path data-name="パス 1301" d="M31.529 1.238v1.674a9.1 9.1 0 00-4.4-1.5 4.244 4.244 0 00-2.962 1.076 3.451 3.451 0 00-1.189 2.665 3.283 3.283 0 00.7 2.055 6.8 6.8 0 002.94 1.758 28.077 28.077 0 013.264 1.407 4.989 4.989 0 011.745 1.632 4.89 4.89 0 01.717 2.773 5.046 5.046 0 01-1.66 3.826 5.692 5.692 0 01-4.052 1.562 9.125 9.125 0 01-5.036-1.716v-1.796a8.876 8.876 0 004.952 2.1 4.14 4.14 0 002.948-1.132 3.8 3.8 0 00.461-5.039 6.793 6.793 0 00-3.023-1.88 29.786 29.786 0 01-3.256-1.41 4.812 4.812 0 01-1.662-1.525 4.411 4.411 0 01-.683-2.552 4.834 4.834 0 011.661-3.692 5.7 5.7 0 014-1.525 9.341 9.341 0 014.544 1.238"/><path data-name="長方形 144" d="M41.828.253h1.519v19.655h-1.519z"/><path data-name="パス 1302" d="M82.922.253v19.654H81.39v-9.314H68.273v9.314h-1.518V.253h1.518v9.075h13.113V.253z"/><path data-name="パス 1303" d="M102.512 0a10.224 10.224 0 017.388 2.932 9.579 9.579 0 013.03 7.155 9.56 9.56 0 01-3.03 7.14 10.736 10.736 0 01-14.748 0 9.588 9.588 0 01-3.015-7.14 9.607 9.607 0 013.015-7.155A10.161 10.161 0 01102.513 0m.055 18.753a8.443 8.443 0 006.193-2.511 8.349 8.349 0 002.524-6.155 8.6 8.6 0 00-8.717-8.681 8.55 8.55 0 00-6.232 2.512 8.319 8.319 0 00-2.553 6.17 8.3 8.3 0 002.553 6.155 8.546 8.546 0 006.234 2.511"/><path data-name="パス 1304" d="M123.665.253v18.388h9.723v1.266h-11.242V.253z"/><path data-name="パス 1305" d="M141.429.253h6.873q5.217 0 7.964 2.743a9.585 9.585 0 012.75 7.091 9.656 9.656 0 01-2.722 7.042q-2.721 2.779-7.724 2.779h-7.142zm1.519 1.266v17.123h5.538a8.991 8.991 0 006.345-2.343 8.05 8.05 0 002.537-6.211 8.163 8.163 0 00-2.5-6.176 8.984 8.984 0 00-6.475-2.393z"/><path data-name="長方形 145" d="M168.204.253h1.519v19.655h-1.519z"/><path data-name="パス 1306" d="M197.673.253v19.654h-1.251l-14.94-17.178v17.178h-1.521V.253h1.286l14.908 17.179V.253z"/><path data-name="パス 1307" d="M224.125 1.674V3.39a13.993 13.993 0 00-6.965-1.983 8.464 8.464 0 00-8.68 8.681 8.443 8.443 0 002.448 6.2 8.945 8.945 0 006.655 2.469 11.613 11.613 0 005.389-1.209v-5.3h-4.153v-1.274h5.685v7.527a16.057 16.057 0 01-6.978 1.66 10.666 10.666 0 01-7.633-2.9 9.555 9.555 0 01-3.06-7.231 9.485 9.485 0 013-7.168 10.5 10.5 0 017.547-2.863 16.268 16.268 0 016.74 1.674"/><path data-name="パス 1308" d="M243.41 1.238v1.674a9.1 9.1 0 00-4.405-1.5 4.247 4.247 0 00-2.962 1.076 3.453 3.453 0 00-1.188 2.665 3.283 3.283 0 00.7 2.055 6.779 6.779 0 002.94 1.758 28.174 28.174 0 013.265 1.407 4.992 4.992 0 011.743 1.632 4.89 4.89 0 01.717 2.773 5.049 5.049 0 01-1.659 3.826 5.694 5.694 0 01-4.052 1.562 9.123 9.123 0 01-5.032-1.722v-1.79a8.876 8.876 0 004.952 2.1 4.135 4.135 0 002.947-1.132 3.8 3.8 0 00.458-5.038 6.783 6.783 0 00-3.023-1.88 29.786 29.786 0 01-3.257-1.41 4.814 4.814 0 01-1.663-1.525 4.424 4.424 0 01-.682-2.552 4.835 4.835 0 011.659-3.692 5.7 5.7 0 014-1.525 9.355 9.355 0 014.547 1.238"/></g></g></g></g></g></g></svg>