<?xml version="1.0" encoding="UTF-8"?>
<svg id="_レイヤー_2" data-name="レイヤー 2" xmlns="http://www.w3.org/2000/svg" xmlns:xlink="http://www.w3.org/1999/xlink" viewBox="0 0 103.88 41.07">
  <defs>
    <style>
      .cls-1 {
        clip-path: url(#clippath);
      }

      .cls-2 {
        fill: none;
      }

      .cls-2, .cls-3, .cls-4, .cls-5, .cls-6, .cls-7, .cls-8 {
        stroke-width: 0px;
      }

      .cls-3 {
        fill: #2f2725;
      }

      .cls-4 {
        fill: #004ea2;
      }

      .cls-9 {
        clip-path: url(#clippath-1);
      }

      .cls-10 {
        clip-path: url(#clippath-2);
      }

      .cls-5 {
        fill: url(#_名称未設定グラデーション_6);
      }

      .cls-6 {
        fill: url(#_名称未設定グラデーション_5);
      }

      .cls-7 {
        fill: url(#_名称未設定グラデーション_4);
      }

      .cls-8 {
        fill: #00a5e3;
      }
    </style>
    <clipPath id="clippath">
      <path class="cls-2" d="M20.73,32.47c-2.18-4.34-3.35-9.86-3.42-13.68-3.94-1.83-8.12-4.2-10.12-3.21-1.47.85-1.31,2.68-.21,5.08,2.79,6.09,11.62,13.46,13.58,14.7,1.16.73,2.02.97,2.66.92-.94-1.07-1.76-2.38-2.48-3.81"/>
    </clipPath>
    <linearGradient id="_名称未設定グラデーション_4" data-name="名称未設定グラデーション 4" x1="1274.82" y1="-2033.75" x2="1275.09" y2="-2033.75" gradientTransform="translate(188879.71 -118373.15) rotate(90) scale(92.87 -92.87)" gradientUnits="userSpaceOnUse">
      <stop offset="0" stop-color="#5eb7e8"/>
      <stop offset=".1" stop-color="#5eb7e8"/>
      <stop offset=".24" stop-color="#4da4db"/>
      <stop offset=".9" stop-color="#004ea2"/>
      <stop offset="1" stop-color="#004ea2"/>
    </linearGradient>
    <clipPath id="clippath-1">
      <path class="cls-2" d="M29.18,22.91c-.24-.77-.89-1.24-2.04-1.99-2.57-1.69-7.1-3.53-9.72-4.35-.09.64-.13,1.4-.11,2.23,3.84,1.79,7.86,4.06,10.64,6.5.55-.82.98-1.63,1.22-2.39"/>
    </clipPath>
    <linearGradient id="_名称未設定グラデーション_5" data-name="名称未設定グラデーション 5" x1="1220.9" y1="-2070.4" x2="1221.17" y2="-2070.4" gradientTransform="translate(-53931.75 -91465.84) scale(44.19 -44.19)" gradientUnits="userSpaceOnUse">
      <stop offset="0" stop-color="#5eb7e8"/>
      <stop offset=".05" stop-color="#5eb7e8"/>
      <stop offset=".22" stop-color="#54b4e8"/>
      <stop offset=".5" stop-color="#3baee8"/>
      <stop offset=".85" stop-color="#12a4e8"/>
      <stop offset="1" stop-color="#00a0e9"/>
    </linearGradient>
    <clipPath id="clippath-2">
      <path class="cls-2" d="M26.29,33.17c1.69-3.13,2.93-7.94,2.99-9.3.02-.38-.02-.69-.1-.97-.25.76-.67,1.56-1.22,2.39-1.75,2.62-4.74,5.4-7.22,7.18.72,1.43,1.55,2.74,2.48,3.81,1.37-.11,2.62-2.26,3.08-3.11"/>
    </clipPath>
    <linearGradient id="_名称未設定グラデーション_6" data-name="名称未設定グラデーション 6" x1="1196.75" y1="-2021.47" x2="1197.02" y2="-2021.47" gradientTransform="translate(-62714.74 -105935.89) scale(52.42 -52.42)" gradientUnits="userSpaceOnUse">
      <stop offset="0" stop-color="#5eb7e8"/>
      <stop offset=".1" stop-color="#5eb7e8"/>
      <stop offset=".23" stop-color="#55aee2"/>
      <stop offset=".44" stop-color="#4095d1"/>
      <stop offset=".71" stop-color="#1c6eb7"/>
      <stop offset=".9" stop-color="#004ea2"/>
      <stop offset="1" stop-color="#004ea2"/>
    </linearGradient>
  </defs>
  <g id="Logo">
    <polygon class="cls-2" points="103.88 41.07 0 41.07 0 0 103.85 0 103.88 41.07"/>
    <g>
      <g>
        <g>
          <path class="cls-3" d="M31.77,12.55c-.02.05-.05.13-.05.13-.02.04-.03.1-.06.17-.01.04-.03.09-.05.15-.09.26-.3.76-.43,1-.04.07-.08.12-.16.12-.08,0-.5-.12-.5-.28,0-.04.05-.11.07-.15.25-.4.43-.84.56-1.3.02-.08.03-.14.1-.14s.33.07.41.1c.16.05.13.14.11.19ZM31.6,11.65c-.27,0-.34-.13-.34-.28,0-.09,0-.08,0-.26v-1.6c0-.15-.01-.3-.01-.45,0-.24.15-.28.36-.28.2,0,.39,0,.58,0h2.6c.19,0,.38,0,.57,0,.31,0,.37.11.37.33,0,.1-.01.24-.01.39v1.6c0,.12,0,.25,0,.33,0,.15-.11.21-.36.21h-3.75ZM33.18,9.57c-.01-.12-.07-.17-.18-.18h-.9c-.11.01-.17.07-.18.18v.19c.01.12.07.18.18.18h.9c.11,0,.17-.07.18-.18v-.19ZM33.18,10.67c-.01-.11-.07-.18-.18-.18h-.9c-.11,0-.17.07-.18.18v.22c.01.11.07.18.18.18h.9c.11,0,.17-.07.18-.18v-.22ZM32.75,12.23v1.19c0,.26.09.27.35.27h.98c.07,0,.19,0,.24-.03.13-.07.21-.42.23-.56.02-.14.03-.19.16-.19.16,0,.5.07.5.28,0,.2-.17.68-.27.86-.16.28-.43.28-.71.28h-1.38c-.37,0-.75-.07-.75-.53,0-.12.01-.23.01-.35v-.7c0-.17,0-.37-.02-.54,0-.02,0-.05,0-.07,0-.07.05-.08.1-.08.08,0,.32.01.47.03.07,0,.1.06.1.13ZM33.85,13.15c-.08,0-.12-.07-.16-.12-.17-.28-.37-.55-.59-.79-.03-.04-.08-.09-.08-.14,0-.12.35-.32.45-.32.06,0,.09.03.12.07.1.11.22.26.31.38.07.1.38.5.38.6,0,.16-.36.33-.45.33ZM34.88,9.94c.11,0,.18-.07.18-.18v-.19c0-.12-.07-.17-.18-.18h-.9c-.11.01-.17.07-.18.18v.19c.01.12.07.18.18.18h.9ZM33.8,10.88c.01.11.07.18.18.18h.9c.11,0,.18-.07.18-.18v-.22c0-.11-.07-.18-.18-.18h-.9c-.11,0-.17.07-.18.18v.22ZM35.87,14.1c-.1,0-.13-.08-.16-.16-.16-.47-.35-.91-.61-1.33-.02-.03-.05-.09-.05-.13,0-.14.38-.26.45-.26s.11.03.14.08c.11.15.26.46.35.63.07.14.36.76.36.88,0,.17-.39.3-.48.3Z"/>
          <path class="cls-3" d="M42.18,11.73c0,1.03-.76,1.84-1.59,2.35-.11.07-.44.24-.56.24-.2,0-.47-.45-.47-.55,0-.07.07-.09.13-.11.79-.25,1.76-.96,1.76-1.88,0-.56-.35-.9-.91-.9s-1,.28-1.4.62c-.04.03-.09.07-.14.07-.16,0-.37-.47-.37-.62,0-.1.12-.16.2-.2.52-.29,1.14-.53,1.75-.53.93,0,1.61.56,1.61,1.53ZM39.46,8.94c.03-.06.05-.12.13-.12.03,0,.07.02.1.04.41.18,1.19.28,1.64.33.09,0,.16,0,.16.1,0,.07-.05.33-.07.4-.03.13-.07.2-.18.2-.21,0-1.26-.23-1.51-.3-.28-.07-.42-.1-.42-.21,0-.11.09-.33.13-.44Z"/>
        </g>
        <g>
          <path class="cls-3" d="M76.42,8.92c.66.87,1.42,1.46,2.4,1.92.09.05.16.07.16.14,0,.1-.17.52-.32.52-.17,0-1.1-.64-1.29-.78-.01,0-.03-.02-.05-.02-.05,0-.07.05-.07.09v.17c0,.16-.01.24-.16.24-.18,0-.35-.01-.53-.01h-1.08c-.18,0-.35.01-.53.01-.15,0-.16-.08-.16-.25v-.13s-.02-.08-.07-.08c-.03,0-.04,0-.05.02-.16.14-.92.76-1.1.76-.14,0-.39-.33-.39-.47,0-.08.12-.14.19-.17.7-.39,1.33-.93,1.83-1.57.14-.18.34-.45.44-.65.03-.05.07-.14.17-.13s.17.03.29.06.12.04.33.33ZM75.16,12.37c-.25,0-.5.01-.75.01-.16,0-.15-.09-.15-.33s0-.33.15-.33c.25,0,.5.01.75.01h1.35c.21,0,.42,0,.63,0,.31,0,.43.27.43.36,0,.26-.63,1.31-.79,1.57-.13.2-.41.6-.57.77-.05.05-.11.1-.2.1-.12,0-.51-.18-.51-.33,0-.07.1-.17.15-.22.29-.31.5-.61.71-.97.07-.11.25-.43.25-.54,0-.12-.11-.1-.25-.1h-1.21ZM74.98,10.48s.04.07.08.07c.14,0,.28.01.41.01h1.08c.14,0,.29,0,.43-.01.03,0,.07-.02.07-.05,0-.03-.01-.04-.03-.05-.34-.29-.67-.62-.95-.98-.03-.04-.06-.06-.1-.06-.05,0-.08.03-.1.06-.26.34-.55.66-.86.96-.01.02-.03.03-.03.05Z"/>
          <path class="cls-3" d="M81.7,14.19c-.28,0-.38-.08-.38-.25,0-.28,0-.47,0-.74v-3.08c0-.21-.01-.41-.01-.62,0-.26.1-.34.36-.34.19,0,.38.01.58.01h1.91c.19,0,.38-.01.57-.01.25,0,.36.07.36.33,0,.21-.01.42-.01.63v3.06c0,.28,0,.44,0,.71,0,.18-.09.29-.39.29h-3ZM84.2,11.22c.11-.01.17-.07.18-.18v-1.05c-.01-.11-.07-.17-.18-.18h-1.97c-.11.01-.17.07-.18.18v1.05c.01.11.07.17.18.18h1.97ZM82.04,13.32c.01.11.07.17.18.18h1.97c.11-.01.17-.07.18-.18v-1.3c-.01-.11-.07-.17-.18-.18h-1.97c-.11.01-.17.07-.18.18v1.3Z"/>
          <path class="cls-3" d="M89.82,9.07s-.09.23-.11.28c-.06.16-.11.32-.16.48-.01.03-.02.06-.02.09,0,.11.09.14.18.15.22.03.45.05.67.05.12,0,.22,0,.22.12,0,.1-.04.33-.07.43-.03.09-.05.14-.14.14-.19,0-.7-.07-.89-.1-.02,0-.04-.01-.06-.01-.1,0-.15.07-.18.16-.02.08-.11.49-.11.54,0,.14.14.14.23.15.2.02.39.03.59.03.18,0,.2.05.2.11,0,.13-.04.31-.09.44-.03.1-.07.15-.18.15-.15,0-.46-.05-.62-.07-.03,0-.09-.01-.1-.01-.18,0-.18.16-.18.45,0,.57.3.87.87.87.3,0,.75-.08.95-.31.12-.13.14-.3.14-.47,0-.32-.11-.65-.22-.95-.01-.03-.03-.08-.03-.12,0-.16.49-.24.56-.24.1,0,.12.1.18.25.12.35.22.77.22,1.15,0,1.02-.94,1.37-1.81,1.37-.99,0-1.57-.57-1.57-1.57,0-.16.03-.41.03-.48,0-.14-.11-.18-.26-.23-.13-.04-.26-.09-.39-.16-.07-.04-.12-.07-.12-.16,0-.04.07-.56.23-.56.06,0,.12.04.16.07.09.06.32.18.42.18.11,0,.13-.09.17-.28.01-.07.04-.16.06-.26,0-.05.03-.1.03-.14,0-.14-.12-.18-.21-.22-.46-.18-.59-.24-.59-.35,0-.11.1-.56.24-.56.05,0,.11.05.15.07.19.11.25.14.45.23.03.01.05.02.09.02.1,0,.13-.09.15-.16.06-.22.2-.69.26-.88.02-.07.03-.13.1-.13.05,0,.21.07.33.1.04.01.11.04.18.06.13.05.14.13.09.26Z"/>
        </g>
        <g>
          <path class="cls-3" d="M48.73,10.2c-.19,0-.38.01-.57.01-.17,0-.17-.07-.17-.27s0-.27.17-.27c.19,0,.38.01.57.01h.93c.19,0,.38-.01.57-.01.18,0,.16.07.16.27s.01.27-.16.27c-.19,0-.38-.01-.57-.01h-.93ZM48.94,12.06c-.17,0-.35.01-.44.01-.16,0-.15-.07-.15-.26s0-.27.15-.27c.12,0,.28.01.44.01h.49c.16,0,.32-.01.44-.01.16,0,.16.08.16.27s0,.26-.16.26c-.1,0-.27-.01-.44-.01h-.49ZM48.97,11.13c-.16,0-.32.01-.45.01-.16,0-.16-.07-.16-.26s0-.27.16-.27c.12,0,.29.01.45.01h.43c.16,0,.34-.01.45-.01.16,0,.16.07.16.27s0,.26-.16.26c-.14,0-.29-.01-.45-.01h-.43ZM48.95,9.29c-.18,0-.35.01-.44.01-.16,0-.15-.07-.15-.28s0-.28.15-.28c.09,0,.27.01.44.01h.52c.17,0,.35-.01.43-.01.17,0,.16.08.16.28s0,.28-.16.28c-.09,0-.26-.01-.43-.01h-.52ZM50.92,14.35c-.27,0-.32-.07-.32-.28,0-.25,0-.16,0-.42v-2.14s-.01-.06-.05-.06c-.02,0-.03.01-.04.03-.05.07-.14.22-.23.22-.09,0-.37-.28-.37-.38,0-.04.07-.12.09-.15.5-.67.9-1.66,1.1-2.47.01-.05.03-.1.08-.1.05,0,.31.08.38.1l.09.03c.09.04.09.13.06.19s-.08.2-.1.25c-.03.1-.09.24-.16.44,0,.02,0,.03,0,.05,0,.08.06.1.12.1h.31c.14,0,.2-.03.26-.15.14-.31.27-.62.35-.94.02-.04.03-.08.08-.08.06,0,.4.11.48.14.08.03.08.11.06.16-.02.05-.03.07-.06.13-.09.2-.17.39-.27.58,0,.02-.02.04-.02.07,0,.07.06.09.12.09h.14c.21,0,.42-.01.62-.01.16,0,.15.08.15.31s0,.31-.15.31c-.18,0-.4-.01-.62-.01h-.16c-.12,0-.18.05-.18.18v.36c0,.12.06.18.18.18h.09c.2,0,.41-.02.55-.02.16,0,.15.09.15.31s0,.31-.15.31c-.12,0-.34-.01-.55-.01h-.09c-.12,0-.18.05-.18.18v.36c0,.13.06.18.18.18h.02c.22,0,.44-.01.6-.01.15,0,.15.07.15.3,0,.25,0,.32-.15.32s-.39-.02-.6-.02h-.02c-.12,0-.18.05-.18.18v.42c0,.13.06.18.18.18h.16c.22,0,.45-.01.68-.01.16,0,.15.07.15.31,0,.24,0,.3-.14.3-.23,0-.46,0-.69,0h-2.09ZM51.23,10.88c0,.11.07.17.18.18h.46c.11-.01.17-.07.18-.18v-.36c-.01-.11-.07-.16-.18-.18h-.46c-.11,0-.18.07-.18.18v.36ZM51.23,12.19c0,.11.07.17.18.18h.46c.11-.01.17-.07.18-.18v-.36c-.01-.11-.07-.16-.18-.18h-.46c-.11,0-.18.07-.18.18v.36ZM52.05,13.14c-.01-.11-.07-.17-.18-.18h-.46c-.11.01-.18.07-.18.18v.42c0,.11.07.17.18.18h.46c.11-.01.17-.07.18-.18v-.42Z"/>
          <path class="cls-3" d="M58.85,9.26c-.01.07-.1.42-.1.42-.01.08-.03.17-.05.28,0,.02-.01.05-.01.07,0,.09.07.14.14.14.03,0,.05,0,.08,0,.27,0,.51,0,.75.15.33.21.4.59.4.95,0,.6-.1,1.49-.39,2.01-.26.48-.71.71-1.24.71-.14,0-.23-.02-.3-.16-.05-.11-.11-.34-.11-.47,0-.07.02-.11.09-.11s.18.02.31.02c.35,0,.52-.08.68-.4.19-.38.29-1.06.29-1.48,0-.33-.02-.6-.41-.6s-.44.05-.49.24c-.17.66-.49,1.36-.83,1.95-.16.26-.46.73-.66.94-.03.03-.07.07-.12.07-.11,0-.53-.25-.53-.4,0-.06.05-.11.09-.15.52-.54.9-1.13,1.17-1.83.03-.08.16-.43.16-.49,0-.05-.03-.09-.09-.09-.09,0-.64.18-.75.23-.04.01-.1.04-.14.04-.16,0-.28-.64-.28-.68,0-.1.11-.1.2-.1.34-.03.75-.13,1.09-.2.13-.03.2-.06.22-.2.04-.23.07-.61.07-.85,0-.07,0-.14,0-.22,0-.05,0-.13.07-.13.06,0,.6.13.6.13.07.02.12.08.09.21ZM61.67,11.19c0,.14-.41.39-.54.39-.09,0-.12-.09-.15-.15-.26-.56-.44-.94-.88-1.4-.03-.03-.06-.07-.06-.11,0-.12.38-.35.5-.35.24,0,1.13,1.46,1.13,1.63Z"/>
          <path class="cls-3" d="M66.23,9.18s-.04.06-.06.1c-.02.03-.07.11-.07.15,0,.05.03.07.07.07.13,0,.62-.14.76-.18.05-.02.12-.04.16-.04.11,0,.14.1.16.2.02.09.05.26.05.35,0,.11-.21.14-.35.16-.41.09-.83.16-1.24.2-.1.01-.13.03-.2.1-.04.05-.22.33-.22.38,0,.03.03.05.05.05.04,0,.09-.02.12-.04.22-.1.47-.17.71-.17.42,0,.66.18.75.59.01.06.03.11.1.11.08,0,.66-.31.77-.37.05-.02.12-.07.17-.07.12,0,.28.5.28.62,0,.08-.07.1-.2.14-.03.01-.06.02-.09.03-.26.1-.52.21-.77.32-.12.05-.17.09-.17.22v.09c0,.2,0,.4,0,.6,0,.24-.03.26-.28.26-.28,0-.4-.01-.4-.18,0-.14.01-.29.01-.43,0-.06-.02-.11-.09-.11-.03,0-.71.29-.71.7,0,.44.64.48.95.48.44,0,.79-.06,1.22-.16.04,0,.09-.01.13-.01.09,0,.13.07.13.45,0,.2,0,.25-.15.28-.25.06-.98.09-1.26.09-.37,0-.69-.02-1.04-.17-.4-.18-.66-.49-.66-.94,0-.59.48-.91.93-1.18.13-.08.27-.15.41-.22.07-.03.12-.07.12-.15,0-.05-.02-.14-.03-.18-.03-.14-.14-.22-.29-.22-.37,0-.97.31-1.23.58-.19.19-.41.53-.55.77-.02.03-.05.07-.09.07-.12,0-.56-.26-.56-.38,0-.05.05-.1.09-.14.15-.16,1.1-1.48,1.1-1.61,0-.06-.05-.08-.14-.08-.1,0-.26.02-.46.02-.14,0-.17-.03-.17-.37,0-.26.03-.3.19-.3.11,0,.28.01.47.01h.19c.17,0,.35,0,.41-.09.11-.14.31-.66.35-.85.01-.07.03-.14.09-.14.04,0,.33.11.53.24.12.08.07.21-.03.36Z"/>
          <path class="cls-3" d="M49.79,12.45c-.12,0-.24,0-.37,0h-.44c-.12,0-.24,0-.37,0-.22,0-.33.08-.33.31,0,.13,0,.27,0,.4v.59c0,.16,0,.23,0,.39,0,.14.1.19.35.19,0,0,1.05,0,1.19,0,.22,0,.3-.03.3-.18,0-.16,0-.3,0-.46v-.54c0-.13.01-.27.01-.4,0-.24-.12-.31-.34-.31ZM49.54,13.65c0,.11-.07.17-.18.18h-.28c-.11-.01-.18-.07-.18-.18v-.51c0-.11.07-.17.18-.18h.28c.11.01.16.07.18.18v.51Z"/>
        </g>
      </g>
      <g>
        <g>
          <g class="cls-1">
            <rect class="cls-7" x="2.53" y="12.26" width="23.87" height="26.41" transform="translate(-7.84 6.48) rotate(-20)"/>
          </g>
          <g class="cls-9">
            <rect class="cls-6" x="17.3" y="16.56" width="11.88" height="8.73"/>
          </g>
          <path class="cls-8" d="M7.19,15.58c2-.99,6.19,1.38,10.13,3.21-.02-.83.02-1.59.11-2.23-2.38-.75-4.68-1.27-6.49-1.44-1.87-.17-2.88-.04-3.75.46"/>
          <g class="cls-10">
            <rect class="cls-5" x="17.14" y="22.01" width="15.76" height="15.16" transform="translate(-13.74 29.73) rotate(-50)"/>
          </g>
        </g>
        <g>
          <path class="cls-4" d="M39.93,23.71h-2.49c-2.51,0-3.9,1.67-3.9,3.33,0,1.91,1.34,3.48,3.85,3.48h2.61c2.51,0,3.84-1.57,3.84-3.48,0-1.66-1.39-3.33-3.9-3.33M39.41,29.03h-1.47c-1.54,0-2.46-.78-2.46-1.98,0-1.04.88-1.76,2.51-1.76h1.38c1.63,0,2.51.72,2.51,1.76,0,1.2-.92,1.98-2.46,1.98Z"/>
          <path class="cls-4" d="M52,20.73v3.17h-2.84c-2.4,0-3.73,1.57-3.73,3.15,0,1.82,1.28,3.33,3.68,3.33h4.84v-9.64h-1.94M49.72,28.86c-1.48,0-2.37-.67-2.37-1.82,0-.99.86-1.58,2.42-1.58h2.23v3.4h-2.27Z"/>
          <path class="cls-4" d="M64.31,23.9h0s-4.33,0-4.33,0c-2.4,0-3.73,1.57-3.73,3.15,0,1.82,1.28,3.33,3.67,3.33h5.23v-6.47h-.84M60.55,28.86c-1.48,0-2.37-.67-2.37-1.82,0-.99.86-1.58,2.42-1.58h2.62v3.4h-2.66Z"/>
          <path class="cls-4" d="M93.3,30.45c2.37,0,3.94-1.14,3.94-2.79v-3.71h-1.84v3.37c0,1.16-.9,1.66-2.1,1.66s-2.1-.51-2.1-1.66v-3.37h-1.84v3.71c0,1.65,1.57,2.79,3.94,2.79"/>
          <polyline class="cls-4" points="74.83 30.37 77.49 30.37 73.19 27.24 76.87 23.96 74.43 23.96 70.04 27.94 70.04 23.95 68.15 23.95 68.15 30.37 69.68 30.37 71.98 28.32 74.83 30.37"/>
          <polyline class="cls-4" points="85.68 23.96 83.22 26.85 80.31 23.96 78.03 23.96 82.12 28.13 80.21 30.37 82.52 30.37 87.95 23.96 85.68 23.96"/>
        </g>
      </g>
    </g>
  </g>
</svg>