<svg width="445" height="30" viewBox="0 0 445 30" fill="none" xmlns="http://www.w3.org/2000/svg">
<path d="M122.452 11.9768C122.039 17.5522 120.594 21.8886 117.91 24.9861L119.561 26.6381C121.626 23.9536 123.485 20.4432 124.311 12.1833L122.452 11.9768Z" fill="#243D5F"/>
<path d="M137.32 11.9768L135.462 12.1833C136.701 20.6497 138.559 23.9536 140.211 26.4316L141.863 24.9861V24.7796C140.831 23.5406 138.559 20.2367 137.32 11.9768Z" fill="#243D5F"/>
<path d="M141.45 6.4014H130.712V0.619497H128.854V6.4014H118.323V8.25987H128.854V29.116H130.712V8.25987H141.45V6.4014Z" fill="#243D5F"/>
<path d="M147.852 13.8353V16.1067H167.056V13.8353H147.852Z" fill="#243D5F"/>
<path d="M92.5104 13.0093C94.1624 10.7378 95.1949 8.67286 95.8144 6.81439V5.16242H91.6845V1.90735e-06H90.0325V5.16242H85.4896V7.02088H94.1624C92.5104 10.9443 89.6195 14.6613 85.4896 17.7587V20.0302V20.2367H85.6961C86.7285 19.6172 88.174 18.5847 90.239 16.5197V29.529H92.0974V15.0742C92.5104 15.9002 94.5754 18.5847 96.2274 19.8237L96.4339 20.0302V17.1392C94.3689 15.6937 92.7169 13.4223 92.5104 13.0093Z" fill="#243D5F"/>
<path d="M104.9 1.90735e-06H103.042V4.74942H96.6404V23.7471H98.2924V22.0951H103.042V28.9095H104.9V22.0951H109.856V23.7471H111.508V4.74942H104.9V1.90735e-06ZM103.042 20.4432H98.2924V14.2483H103.042V20.4432ZM103.042 12.5963H98.2924V6.40139H103.042V12.5963ZM109.856 20.4432H104.9V14.2483H109.856V20.4432ZM109.856 12.5963H104.9V6.40139H109.856V12.5963Z" fill="#243D5F"/>
<path d="M29.942 8.67286V9.29235H49.9722V12.3898H29.942V14.0418H49.9722V17.1392H29.942V18.7912H51.6242V7.64038H44.1903C45.6358 6.6079 47.2877 4.95592 48.3202 3.71695V2.06497H37.5824C37.7889 1.85848 38.8214 0.619497 38.8214 0.619497H38.6149H36.5499C34.6914 2.68446 31.8005 5.57541 28.0836 7.43388V9.49885V9.70534L28.703 9.49885C28.703 9.29235 29.7355 8.67286 29.942 8.67286ZM36.1369 3.71695C36.1369 3.71695 45.4293 3.71695 45.6358 3.71695C44.8098 4.74943 43.1578 6.4014 41.2993 7.64038C41.2993 7.64038 31.594 7.64038 31.181 7.64038C33.4525 6.1949 35.1044 4.74943 36.1369 3.71695Z" fill="#243D5F"/>
<path d="M175.109 2.06497V10.9443C175.109 12.8028 174.696 17.7587 173.87 20.6497C173.251 23.1276 171.805 24.7796 170.979 25.8121V28.29V28.4965L171.186 28.29C172.218 27.2575 174.49 24.9861 175.522 21.8886C176.761 18.1717 176.968 11.9768 176.968 10.9443V2.06497H175.109Z" fill="#243D5F"/>
<path d="M194.313 14.4548C193.281 20.4432 191.009 24.7796 184.401 26.2251V2.06497H182.543V28.4965C193.487 27.2575 195.346 18.9977 196.172 14.4548H194.313Z" fill="#243D5F"/>
<path d="M220.125 2.47795H203.812V4.33642H220.125V2.47795Z" fill="#243D5F"/>
<path d="M223.636 0.619497H223.842H221.984V4.74943H223.636V0.619497Z" fill="#243D5F"/>
<path d="M200.715 10.7378V12.8028H212.691V14.0418C212.691 17.7587 211.452 21.6821 209.8 23.3341C208.148 25.1926 205.464 26.0186 203.399 26.4316V28.4965C206.703 27.6705 214.343 26.0186 214.343 14.0418V12.8028H224.462V10.7378H200.715Z" fill="#243D5F"/>
<path d="M227.146 0.619497H225.288V4.74943H227.146V0.619497Z" fill="#243D5F"/>
<path d="M298.594 0.619497V4.74943H300.452V0.619497H298.594Z" fill="#243D5F"/>
<path d="M302.104 0.619497V4.74943H303.756V0.619497H303.963H302.104Z" fill="#243D5F"/>
<path d="M241.188 8.25986C237.265 13.6288 231.276 18.3782 225.907 20.2367V22.5081H226.114C228.179 21.6821 231.483 20.0302 235.819 16.7262V29.3225H237.678V15.0743C239.536 13.4223 242.014 11.1508 243.872 8.25986V8.05337H243.666H241.188V8.25986Z" fill="#243D5F"/>
<path d="M270.717 5.16242C267 17.9652 259.153 25.3991 248.828 26.0186V28.29C254.61 27.877 260.186 25.1926 264.522 20.8562C268.239 17.1392 270.923 12.1833 272.988 5.16242V4.95592H272.782H270.717V5.16242Z" fill="#243D5F"/>
<path d="M256.056 8.87935L257.501 6.81438C255.023 5.16241 251.719 3.30394 249.448 2.47795L248.209 4.12993C250.48 5.36891 253.784 7.02088 256.056 8.87935Z" fill="#243D5F"/>
<path d="M437.773 27.2575V12.1833H444.381V10.3248H437.773V0.619497H437.566H435.914V10.3248H429.926V12.1833H435.914V27.2575H428.48V29.116H445V27.2575H437.773Z" fill="#243D5F"/>
<path d="M428.687 19.8237V17.1392C427.241 15.6937 425.589 13.4223 425.383 13.2158C427.035 10.9443 428.067 9.08585 428.687 7.22739V5.78191H424.763V0.619497H424.557H422.905V5.57541H418.568V7.43388H426.828C425.383 11.1508 422.492 14.8678 418.568 17.5522V19.8237V20.0302H418.775C419.807 19.4107 421.046 18.5847 422.905 16.5197V29.3225H424.763V15.0743C425.383 15.9002 427.241 18.3782 428.687 19.6172V19.8237Z" fill="#243D5F"/>
<path d="M338.861 9.29235H342.371V7.43388H338.861V0.619497H338.654H337.002V7.43388H332.666V9.29235H336.796C336.796 12.3898 333.079 18.3782 332.666 19.2042V21.8886V22.0951L332.872 21.6821C334.937 18.5847 336.383 15.4872 337.002 14.2483V29.116H338.654V13.6288C339.48 15.9002 340.513 17.3457 341.132 18.1717L341.339 18.5847V15.4872C340.306 14.0418 339.274 12.1833 338.448 10.1183C338.861 10.1183 338.861 9.49885 338.861 9.29235Z" fill="#243D5F"/>
<path d="M352.49 15.0743H359.097V13.4223H351.664V8.46637H358.271V6.6079H351.664V0.619497H351.457H349.805V6.6079H346.501C346.708 6.1949 346.914 5.16242 347.327 2.06497H345.882V2.27147C345.469 5.78191 344.849 8.25987 342.991 10.3248C342.991 10.3248 342.991 10.3248 342.991 12.3898V12.5963L343.197 12.3898C343.197 12.3898 345.262 10.5313 345.882 8.67286C345.882 8.67286 349.599 8.67286 350.012 8.67286V13.6288H342.165V15.4872H349.186C348.153 17.9652 346.088 21.2691 342.165 24.5731V27.0511V27.2575L342.371 27.0511C346.088 23.9536 348.979 19.6172 350.012 17.3457V29.3225H351.87V17.3457C352.903 20.0302 355.587 24.1601 359.097 27.464L359.304 27.6705V24.9861C356.413 22.3016 354.142 18.9977 352.49 15.0743Z" fill="#243D5F"/>
<path d="M379.747 8.46637H386.355V6.6079H379.747C379.747 6.4014 379.747 3.71695 379.747 3.71695V1.03249V0.619497H379.541H377.889C377.889 0.619497 377.889 6.4014 377.889 6.6079H362.608V8.46637H377.889C378.095 15.6937 379.128 21.0627 381.193 24.5731C383.051 27.877 385.323 29.116 386.355 29.3225V27.464C383.671 26.0186 380.367 21.6821 379.747 8.46637Z" fill="#243D5F"/>
<path d="M386.355 2.68446H382.225V4.54293H386.355V2.68446Z" fill="#243D5F"/>
<path d="M371.074 25.3991V15.0742H376.856V13.4223H376.65H363.434V15.2807H369.422V25.8121C369.216 25.8121 363.434 26.6381 363.434 26.6381V28.4965H363.64C368.183 27.877 373.552 27.051 377.889 26.0186V24.1601L377.269 24.3666C376.03 24.3666 374.172 24.7796 371.074 25.3991Z" fill="#243D5F"/>
<path d="M395.028 10.1183V11.7703H410.102V10.1183C411.548 11.1508 413.2 12.1833 414.852 13.0093H415.058V10.9443C410.102 8.46637 406.179 5.16242 403.288 0.619497H401.636C398.538 5.16242 394.615 8.67286 389.865 10.7378V13.0093V13.2158H390.072C391.93 11.9768 393.582 10.9443 395.028 10.1183ZM402.668 2.47797C404.32 5.16242 406.798 7.64038 409.896 9.70534H395.234C398.332 7.84687 400.397 5.57541 402.668 2.47797Z" fill="#243D5F"/>
<path d="M389.865 16.3132V18.1717H398.125C396.886 21.2691 395.234 24.7796 393.789 26.8446C393.582 26.8446 393.169 26.8446 391.104 26.8446H390.278V28.9095H390.485L397.299 28.4965L401.429 28.29L403.494 28.0835C406.179 27.877 410.515 27.464 411.754 27.464C411.754 27.6705 411.961 27.877 412.58 28.9095H414.645H414.852V28.703C413.406 26.4316 411.341 23.1276 407.211 19.2042L405.972 20.4432C407.624 22.0951 409.276 23.7471 410.515 25.6056C405.559 26.2251 402.668 26.2251 396.267 26.6381C397.299 24.9861 399.158 21.2691 400.397 17.9652H415.265V16.3132H415.058H389.865Z" fill="#243D5F"/>
<path d="M320.07 16.5197C322.754 12.5963 324.613 8.05337 325.852 2.68446H307.06V4.74943H323.58C319.45 18.3782 310.571 24.5731 307.06 26.6381V28.9095V29.116H307.267C311.81 26.6381 315.733 23.1276 319.244 18.3782C321.722 20.6497 326.471 25.6056 329.155 28.9095L329.362 29.116V28.9095V25.8121C326.471 22.9211 323.993 20.4432 320.07 16.5197Z" fill="#243D5F"/>
<path d="M65.4594 21.8886C66.0789 21.0626 66.2854 20.0302 66.2854 18.5847C66.2854 14.2483 63.8074 11.7703 62.5684 10.5313L63.1879 9.49883L64.4269 6.81438C65.0464 5.3689 65.6659 3.92343 66.0789 3.09744V1.44547H57.819V29.116H59.471V22.9211H62.9814C63.8074 22.9211 64.8399 22.7146 65.4594 21.8886ZM63.8074 20.4432C63.6009 20.6496 63.1879 20.8561 62.7749 20.8561H59.471V2.89095H64.2204C63.6009 4.95591 61.7425 9.29234 60.71 11.1508C64.0139 13.6288 64.6334 16.5197 64.6334 18.1717C64.6334 19.2042 64.4269 20.0302 63.8074 20.4432Z" fill="#243D5F"/>
<path d="M70.0023 2.89095H81.3596V1.23898H68.1438V13.6288C68.1438 20.2367 66.0789 24.9861 64.0139 27.051L65.2529 28.29C68.5568 24.9861 70.0023 18.7912 70.0023 13.8353C70.0023 13.8353 70.0023 12.1833 70.0023 11.1508C71.4478 17.1392 72.8933 20.0302 74.3387 22.3016C72.4803 24.1601 70.6218 25.6056 68.5568 26.8445V28.9095V29.116H68.7633C71.2413 27.877 73.7192 26.0186 75.5777 23.9536C77.2297 25.8121 78.6752 27.464 81.3596 29.116H81.5661V26.8445C80.1206 25.8121 78.4687 24.3666 77.0232 22.5081C79.2947 18.9977 80.5336 16.5197 81.3596 9.08585H70.0023V2.89095ZM79.2947 10.7378C79.0882 13.4223 78.2622 17.5522 75.7842 21.0626C73.7193 18.1717 72.6868 14.8677 71.8608 10.7378H79.2947Z" fill="#243D5F"/>
<path d="M7.84687 21.8886C8.25986 21.0626 8.67285 20.0302 8.67285 18.3782C8.67285 14.0418 6.1949 11.5638 4.95592 10.3248L5.57541 9.08585L6.81439 6.40139C7.43387 4.95591 8.05336 3.30394 8.46636 2.47796V1.23898H0V28.9095H1.65197V22.7146H5.16241C6.1949 22.9211 7.02088 22.7146 7.84687 21.8886ZM6.1949 20.4432C5.9884 20.6496 5.57541 20.8561 5.16241 20.8561H1.85847V2.89095H6.60789C5.9884 4.95591 4.12993 9.29234 3.09745 11.1508C6.40139 13.6288 6.81439 16.5197 6.81439 18.1717C6.81439 19.2042 6.60789 20.0302 6.1949 20.4432Z" fill="#243D5F"/>
<path d="M23.5406 9.08585H12.1833V2.89095H23.5406V1.23898H10.5313V13.6288C10.5313 20.2367 8.46633 24.9861 6.40137 27.051L7.64035 28.29C10.9443 24.9861 12.3898 18.7912 12.3898 13.8353C12.3898 13.8353 12.3898 12.1833 12.3898 11.1508C13.8352 17.1392 15.2807 20.0302 16.7262 22.3016C14.8677 24.1601 13.0093 25.6056 10.9443 26.8445V28.9095V29.116H11.1508C13.6287 27.877 16.1067 26.0186 17.9652 23.9536C19.6171 25.8121 21.0626 27.464 23.7471 29.116H23.9536V26.8445C22.5081 25.8121 20.8561 24.3666 19.4106 22.5081C21.4756 18.9977 22.7146 16.5197 23.5406 9.08585ZM17.9652 20.8561C15.9002 17.9652 14.8677 14.6613 14.0417 10.7378H21.4756C21.2691 13.4223 20.6496 17.5522 17.9652 20.8561Z" fill="#243D5F"/>
<path d="M282.074 2.68446C280.422 5.98841 278.357 8.67286 276.086 10.7378V13.6288H276.292C279.803 10.7378 283.313 4.74943 283.313 4.74943C283.313 4.74943 294.671 4.74943 294.877 4.74943C291.16 23.3341 280.835 25.8121 277.325 26.6381V28.9095C282.281 27.6705 293.638 24.3666 297.355 2.68446H282.074Z" fill="#243D5F"/>
<path d="M45.4293 23.7471C45.0163 26.8445 44.6033 27.2575 43.5708 27.2575H37.5824C37.3759 27.2575 36.7564 27.2575 36.7564 26.2251V20.8561H35.1044V26.8445C35.1044 28.9095 35.9304 29.116 37.3759 29.116H43.7773C45.8423 29.116 46.6682 28.9095 47.2877 23.7471C47.2877 23.7471 47.2877 23.7471 47.2877 23.5406L45.4293 23.7471Z" fill="#243D5F"/>
<path d="M28.4965 25.1926V28.0835C28.703 27.877 28.9095 27.877 28.9095 27.877C31.3875 25.6056 32.42 22.9211 33.0394 21.4756C33.0394 21.4756 33.0394 21.2691 33.2459 21.0626H31.181C30.355 22.7146 29.7355 23.7471 28.4965 25.1926Z" fill="#243D5F"/>
<path d="M47.7007 21.4756C48.9397 23.1276 50.5916 26.2251 51.0046 26.8446C51.2111 26.8446 52.6566 26.8446 53.2761 26.8446C52.6566 25.6056 51.2111 23.1276 49.9721 21.4756H47.7007Z" fill="#243D5F"/>
<path d="M39.0278 20.8561C39.4408 21.4756 40.2668 22.7146 41.0928 24.1601C41.2993 24.1601 42.7448 24.1601 43.1578 24.1601C42.7448 23.5406 41.9188 22.0951 40.6798 20.8561H39.0278Z" fill="#243D5F"/>
</svg>
