<?xml version="1.0" encoding="UTF-8"?>
<svg id="_レイヤー_1" data-name="レイヤー 1" xmlns="http://www.w3.org/2000/svg" viewBox="0 0 32 29.47">
  <defs>
    <style>
      .cls-1 {
        fill: #00a6db;
      }
    </style>
  </defs>
  <path class="cls-1" d="m16,0C7.16,0,0,7.17,0,16c0,5.66,2.93,10.63,7.36,13.47h17.28c4.42-2.84,7.36-7.81,7.36-13.47C32,7.17,24.84,0,16,0Zm0,26.11c-5.58,0-10.09-4.52-10.09-10.11S10.41,5.9,16,5.9s10.09,4.52,10.09,10.1-4.51,10.11-10.09,10.11Zm-7.58-10.11c0-4.18,3.4-7.58,7.58-7.58s7.58,3.4,7.58,7.58-3.39,7.59-7.58,7.59-7.58-3.4-7.58-7.59Z"/>
</svg>