<?xml version="1.0" encoding="utf-8"?>
<!-- Generator: Adobe Illustrator 15.1.0, SVG Export Plug-In . SVG Version: 6.00 Build 0)  -->
<!DOCTYPE svg PUBLIC "-//W3C//DTD SVG 1.1//EN" "http://www.w3.org/Graphics/SVG/1.1/DTD/svg11.dtd">
<svg version="1.1" id="レイヤー_1" xmlns="http://www.w3.org/2000/svg" xmlns:xlink="http://www.w3.org/1999/xlink" x="0px"
	 y="0px" width="160px" height="43px" viewBox="0 0 160 43" enable-background="new 0 0 160 43" xml:space="preserve">
<g>
	<path fill="#FFFFFF" d="M17.47,38.2c-0.42-0.011-0.78,0.13-1.06,0.409c-0.35,0.351-0.55,0.898-0.55,1.511
		c0,0.89,0.42,1.92,1.61,1.92c1.19,0,1.61-1.03,1.61-1.92c0-0.62-0.2-1.17-0.55-1.511C18.26,38.34,17.9,38.2,17.47,38.2z"/>
	<path fill="#FFFFFF" d="M127.25,20.01v7.051c0.98-0.131,1.891-0.291,2.92-0.5l0.25-0.052c-1.391-1.88-2.37-4.079-2.88-6.5
		L127.25,20.01L127.25,20.01z"/>
	<rect x="127.25" y="11.19" fill="#FFFFFF" width="4.471" height="1.53"/>
	<path fill="#FFFFFF" d="M27.29,40.73h1.87c-0.04-0.11-0.86-2.15-0.93-2.33C28.15,38.58,27.33,40.62,27.29,40.73z"/>
	<path fill="#FFFFFF" d="M114.641,13.4h6.779c-1.21-0.8-2.38-1.79-3.43-2.88C116.98,11.62,115.939,12.51,114.641,13.4z"/>
	<rect x="127.25" y="15.43" fill="#FFFFFF" width="4.471" height="1.78"/>
	<path fill="#FFFFFF" d="M16.85,28.65c3.17,0,6.09-1.03,8.46-2.76c-3.72,2.27-10.05,0.84-13.39-4.73c-1.23-2.06-4.19-7.51-5.16-9.3
		c9.24,2.09,10.27-8.18,3.9-8.18c-4.54,0-7.08,4.24-7.79,7.39C2.63,12.11,2.5,13.19,2.5,14.3C2.5,22.221,8.92,28.641,16.85,28.65z"
		/>
	<path fill="#FFFFFF" d="M0-0.01v16.7c0-2.03,0.36-3.97,1.02-5.78C3.45,4.15,9.57,1.47,13.4,1.76c8.71,0.7,7.35,10.91-0.88,10.82
		c0.93,1.8,3.24,5.95,4.18,7.48c4.13,6.7,10.03,4.709,11.44,3.07c0.27-0.351,0.54-0.72,0.78-1.101c-0.14,0.16-0.37,0.33-0.64,0.471
		c-3.29,1.779-6.83,0.95-8.92-2.8c-0.78-1.39-2.74-4.79-3.9-6.85c10.43-0.43,8.42-14.53-4.43-11.77C10.9,1.11,10.87,0.92,11,0.88
		c13.91-4.53,20.2,9.6,9.21,11.7c0.7,1.31,3.05,5.72,3.46,6.39c2.26,3.761,5.7,3.061,6.7,0.09c0.53-1.5,0.82-3.11,0.82-4.78
		c0-5.73-3.36-10.67-8.22-12.97c-0.05-0.02-0.09-0.07-0.09-0.13c0-0.08,0.07-0.14,0.15-0.14c0.02,0,0.04,0,0.06,0.01
		C29.3,3.53,33.68,9.6,33.68,16.7c0,9.3-7.54,16.84-16.84,16.84C7.54,33.54,0,26,0,16.69V43h160V-0.01H0z M5.61,42.68l-0.78-1.77
		c-0.21-0.471-0.42-0.471-0.8-0.471H3.64v2.229H2.83v-5.107h1.28c0.99,0,2,0.17,2,1.408c0,0.561-0.39,1.021-0.97,1.159
		c0.17,0.08,0.27,0.21,0.41,0.49l0.98,2.062H5.61L5.61,42.68z M10.36,38.29h-2.1v1.37h1.91v0.73H8.26v1.56h2.1v0.72h-2.9v-5.109h2.9
		V38.29z M12.36,42.77c-0.36,0-0.71-0.1-1.04-0.209l-0.03-0.011l0.08-0.76l0.05,0.021c0.14,0.049,0.62,0.239,1.03,0.239
		c0.38,0,0.94-0.21,0.94-0.78c0-0.488-0.42-0.688-0.92-0.92c-0.58-0.279-1.24-0.59-1.24-1.459c0-0.859,0.65-1.41,1.65-1.41
		c0.37,0,0.76,0.062,1.09,0.182L14,37.67l-0.12,0.76l-0.05-0.02c-0.37-0.15-0.57-0.21-0.93-0.21c-0.25,0-0.83,0.069-0.83,0.63
		c0,0.391,0.39,0.57,0.84,0.79c0.59,0.28,1.32,0.63,1.33,1.61C14.24,42.21,13.55,42.77,12.36,42.77z M17.47,42.76
		c-1.49,0-2.46-1.039-2.46-2.64c0-1.58,0.99-2.64,2.46-2.64c1.47,0,2.46,1.06,2.46,2.64C19.93,41.721,18.97,42.76,17.47,42.76z
		 M24.99,42.67H24c0,0-2.1-3.79-2.22-4.029v4.029h-0.81v-5.109h1.05c0,0,2.03,3.709,2.16,3.939v-3.939h0.81V42.67z M29.94,42.67
		c0,0-0.49-1.22-0.51-1.27h-2.4c-0.02,0.06-0.51,1.27-0.51,1.27h-0.85l2.18-5.109h0.81l2.16,5.109H29.94z M146.98,8.64h12.14v3.08
		h-12.14V8.64z M138.3,13.14l0.101-0.07c1.021-0.73,3.182-2.65,4.119-4.65l0.07-0.15h3.391l-0.148,0.35
		c-1.74,4.11-5.229,6.66-7.148,7.81l-0.381,0.23L138.3,13.14L138.3,13.14z M42.32,22.96c-0.59-4.72-0.53-10.17,0.15-14.58l0.03-0.21
		h3.96l-0.04,0.29c-0.7,4.57-0.72,9.84-0.05,14.44l0.04,0.279h-4.06L42.32,22.96z M56.34,26.939c-2,2.211-5.25,3.311-9.93,3.371
		h-0.25V27.02L46.39,27c9.21-0.8,9.31-3.93,8.25-18.56l-0.02-0.27h3.82l0.12,1.44C59.17,16.92,59.7,23.23,56.34,26.939z
		 M84.73,18.94H79.1c-5.06,0-6.94,2.79-6.94,4.56c0,3.2,4.22,3.45,5.52,3.45h2.39v3.35h-2.96c-5.16,0-8.48-2.06-8.88-5.521
		c-0.27-2.25,0.79-4.489,2.53-5.849H61.9v-3.35h5.03c2.37-1,5.35-2.44,7.53-3.64h-9.14v-3.3h16.12v3.26l-0.119,0.08
		c-2.358,1.38-4.508,2.57-6.758,3.61H84.73V18.94L84.73,18.94z M90.811,26.12h-4.188l0.142-0.351
		c1.551-3.75,2.85-7.352,3.868-11.629h-3.688v-3.36h4.41c0.17-0.9,0.33-1.83,0.479-2.8l0.027-0.21h3.91L95.73,8.05
		c-0.131,0.91-0.28,1.82-0.451,2.73h5.011v3.35h-5.72c-1.07,4.56-2.49,8.841-3.7,11.83L90.811,26.12z M109.59,27.359l-0.38-0.26
		c-1.3-0.869-2.69-1.619-4.06-2.222c-0.021,2.438-0.4,5.603-5.301,5.729c-2.129,0.062-4.33-0.719-5.619-1.979
		c-0.881-0.858-1.32-1.897-1.313-3.08c0.021-3.079,2.723-5.32,6.41-5.32c0.643,0,1.313,0.06,2.01,0.18v-6.32v-3.31h8.229v3.31h-4.42
		v7.35c1.771,0.64,3.369,1.417,4.359,2.1l0.11,0.067L109.59,27.359z M123.29,14.47l-0.36-0.18c-0.18-0.1-0.369-0.2-0.55-0.3v2.31
		h-2.64v1.33h3.289v2.87h-3.289v6.25c1.25-0.189,2.35-0.391,3.109-0.57l0.311-0.07l-0.04,2.94l-0.19,0.04
		c-2.64,0.58-6.949,1.189-10.17,1.17h-0.25l0.04-2.88h0.24c1.13-0.01,2.351-0.09,3.56-0.2V20.49h-3.709v-2.87h3.709v-1.33h-2.58
		v-2.34c-0.25,0.16-0.51,0.32-0.777,0.48l-0.383,0.23V11.3l0.121-0.08c0.899-0.58,2.299-1.82,3.102-2.95l0.068-0.1h4.012l0.08,0.09
		c1.05,1.26,2.328,2.25,3.18,2.771l0.12,0.07L123.29,14.47L123.29,14.47z M123.08,21.38v0.25c-0.01,1.46-0.08,2.54-0.26,3.979
		l-0.03,0.221l-2.5-0.01l0.021-0.271c0.129-1.609,0.142-2.199,0.16-3.63l0.01-0.54L123.08,21.38L123.08,21.38z M115.76,26.25
		l0.02,0.27H113.2l-0.03-0.209c-0.23-1.67-0.35-3.17-0.37-4.721v-0.25h2.729v0.25C115.529,23.08,115.57,24.061,115.76,26.25z
		 M135.43,21.02c-0.459,1.48-1.449,3.009-2.32,4.08c0.603,0.791,1.281,1.5,2.031,2.103l0.09,0.079v3.52l-0.381-0.229
		c-1.72-1.062-3.199-2.399-4.379-3.979l0.01,2.729l-0.188,0.051c-1.312,0.34-4.183,0.811-6.2,0.93l-0.26,0.021V8.47h11.25v11.55
		h-4.271c0.142,0.82,0.399,1.64,0.75,2.451c0.33-0.551,0.629-1.171,0.779-1.591l0.061-0.18h3.132L135.43,21.02z M144.4,17.65v12.661
		h-3.43V21.34c-0.791,0.68-1.593,1.301-2.343,1.85l-0.397,0.291V19.6l0.1-0.07c1.4-1.05,3.85-3.61,4.65-5.5l0.067-0.15h3.25
		l-0.118,0.33C145.76,15.46,145.141,16.61,144.4,17.65z M159.689,18.01h-2.439v10.57c0,0.779-0.221,1.68-2,1.68h-4.57l-1.06-2.93
		l4.14-0.01V18.01h-7.47v-3.07h13.399V18.01z"/>
	<path fill="#FFFFFF" d="M97.26,24.16c-0.38,0.359-0.57,0.84-0.57,1.41c0,0.479,0.16,0.88,0.461,1.188
		c0.439,0.44,1.222,0.682,2.189,0.682c1.96-0.01,1.98-0.859,2-2.721v-1.078c-0.561-0.121-1.1-0.201-1.59-0.223
		C98.7,23.38,97.79,23.65,97.26,24.16z"/>
	<path fill="#FFFFFF" d="M4.29,38.279H3.64v1.439h0.57c0.65,0,1.04-0.271,1.04-0.738C5.25,38.54,4.9,38.29,4.29,38.279z"/>
</g>
<path fill="#009B63" d="M2.5,14.3c0-1.11,0.13-2.19,0.37-3.23l0,0c0.71-3.15,3.25-7.39,7.79-7.39c6.37,0,5.34,10.27-3.9,8.18
	c0.97,1.79,3.93,7.24,5.16,9.3c3.34,5.57,9.67,7,13.39,4.73c-2.37,1.729-5.29,2.76-8.46,2.76C8.92,28.641,2.5,22.221,2.5,14.3
	 M23.09,1.05L23.09,1.05c-0.02-0.01-0.04-0.01-0.06-0.01c-0.08,0-0.15,0.06-0.15,0.14c0,0.06,0.04,0.11,0.09,0.13l0,0
	c4.86,2.3,8.22,7.24,8.22,12.97c0,1.67-0.29,3.28-0.82,4.78c-1,2.969-4.44,3.67-6.7-0.09c-0.41-0.67-2.76-5.08-3.46-6.39
	c10.99-2.1,4.7-16.23-9.21-11.7c-0.13,0.04-0.1,0.23,0.03,0.2c12.85-2.76,14.86,11.34,4.43,11.77c1.16,2.06,3.12,5.46,3.9,6.85
	c2.09,3.75,5.63,4.579,8.92,2.8c0.27-0.141,0.5-0.311,0.64-0.471l0,0c-0.24,0.381-0.51,0.75-0.78,1.101
	c-1.41,1.64-7.31,3.63-11.44-3.07c-0.94-1.53-3.25-5.68-4.18-7.48c8.23,0.09,9.59-10.12,0.88-10.82C9.57,1.47,3.45,4.15,1.02,10.91
	C0.36,12.72,0,14.66,0,16.69C0,26,7.54,33.54,16.84,33.54c9.3,0,16.84-7.54,16.84-16.84C33.68,9.6,29.3,3.53,23.09,1.05"/>
<path fill="#F0831E" d="M5.25,38.98c0,0.47-0.39,0.738-1.04,0.738H3.64v-1.439h0.65C4.9,38.29,5.25,38.54,5.25,38.98 M5.14,40.13
	c0.58-0.14,0.97-0.601,0.97-1.159c0-1.24-1.01-1.41-2-1.41H2.83v5.109h0.81v-2.23h0.39c0.38,0,0.59,0,0.8,0.473l0.78,1.771h0.92
	l-0.98-2.062C5.41,40.34,5.31,40.21,5.14,40.13"/>
<polygon fill="#F0831E" points="7.46,37.561 7.46,42.67 10.36,42.67 10.36,41.95 8.26,41.95 8.26,40.391 10.17,40.391 10.17,39.66 
	8.26,39.66 8.26,38.29 10.36,38.29 10.36,37.561 "/>
<path fill="#F0831E" d="M12.91,39.62c-0.45-0.22-0.84-0.399-0.84-0.79c0-0.561,0.58-0.63,0.83-0.63c0.36,0,0.56,0.06,0.93,0.21
	l0.05,0.02L14,37.67l-0.03-0.01c-0.33-0.12-0.72-0.18-1.09-0.18c-1,0-1.65,0.549-1.65,1.41c0,0.867,0.66,1.18,1.24,1.459
	c0.5,0.229,0.92,0.43,0.92,0.92c0,0.568-0.56,0.778-0.94,0.778c-0.41,0-0.89-0.188-1.03-0.237l-0.05-0.021l-0.08,0.76l0.03,0.012
	c0.33,0.108,0.68,0.209,1.04,0.209c1.19,0,1.88-0.561,1.88-1.539C14.23,40.25,13.5,39.9,12.91,39.62"/>
<path fill="#F0831E" d="M17.47,42.04c-1.19,0-1.61-1.03-1.61-1.92c0-0.61,0.2-1.16,0.55-1.511c0.28-0.279,0.64-0.42,1.06-0.409
	c0.43,0,0.79,0.14,1.06,0.409c0.35,0.341,0.55,0.891,0.55,1.511C19.08,41.01,18.66,42.04,17.47,42.04 M17.47,37.48
	c-1.47,0-2.46,1.06-2.46,2.64c0,1.601,0.97,2.64,2.46,2.64c1.5,0,2.46-1.039,2.46-2.64C19.93,38.54,18.94,37.48,17.47,37.48"/>
<path fill="#F0831E" d="M24.18,37.561V41.5c-0.13-0.23-2.16-3.939-2.16-3.939h-1.05v5.109h0.81v-4.029C21.9,38.88,24,42.67,24,42.67
	h0.99v-5.109H24.18"/>
<path fill="#F0831E" d="M29.16,40.73h-1.87c0.04-0.11,0.86-2.15,0.94-2.33C28.3,38.58,29.12,40.62,29.16,40.73 M28.66,37.561h-0.81
	l-2.18,5.109h0.85c0,0,0.49-1.21,0.51-1.27h2.4c0.02,0.05,0.51,1.27,0.51,1.27h0.88L28.66,37.561"/>
<path d="M117.99,10.52c1.05,1.09,2.22,2.08,3.43,2.88h-6.779C115.939,12.51,116.98,11.62,117.99,10.52 M119.99,8.26l-0.08-0.09
	h-4.01l-0.07,0.1c-0.801,1.13-2.2,2.37-3.1,2.95l-0.121,0.08v3.36l0.381-0.23c0.27-0.16,0.529-0.32,0.779-0.48v2.34h2.58v1.33
	h-3.709v2.87h3.709v6.689c-1.209,0.109-2.432,0.189-3.562,0.199h-0.24l-0.04,2.88h0.25c3.223,0.021,7.53-0.59,10.172-1.17
	l0.188-0.04l0.04-2.939l-0.313,0.07c-0.76,0.18-1.859,0.381-3.109,0.569V20.5h3.289v-2.87h-3.289V16.3h2.642v-2.31
	c0.183,0.1,0.37,0.2,0.552,0.3l0.358,0.18V11.1l-0.12-0.07C122.32,10.51,121.04,9.52,119.99,8.26"/>
<path d="M112.8,21.34v0.25c0.021,1.551,0.14,3.051,0.37,4.721l0.03,0.209h2.579l-0.021-0.27c-0.188-2.189-0.229-3.17-0.229-4.66
	v-0.25H112.8"/>
<path d="M120.48,21.38l-0.01,0.54c-0.021,1.43-0.031,2.02-0.16,3.63l-0.021,0.271l2.5,0.012l0.029-0.223
	c0.181-1.438,0.25-2.52,0.261-3.979v-0.25L120.48,21.38"/>
<path d="M130.17,26.561c-1.029,0.209-1.939,0.369-2.92,0.5v-7.05h0.29c0.51,2.419,1.489,4.62,2.88,6.5L130.17,26.561 M127.25,11.19
	h4.471v1.53h-4.471V11.19z M127.25,15.43h4.471v1.78h-4.471V15.43z M132.34,20.88c-0.15,0.42-0.449,1.04-0.779,1.591
	c-0.351-0.811-0.608-1.631-0.75-2.451h4.271V8.47h-11.25V30.32l0.26-0.021c2.021-0.119,4.893-0.59,6.2-0.93l0.188-0.051l-0.01-2.729
	c1.18,1.58,2.659,2.92,4.379,3.979l0.381,0.229v-3.521l-0.09-0.078c-0.75-0.602-1.431-1.311-2.031-2.102
	c0.871-1.07,1.861-2.601,2.32-4.081l0.103-0.32H132.4L132.34,20.88"/>
<path d="M138.68,16.43c1.92-1.15,5.41-3.7,7.15-7.81l0.15-0.35h-3.393l-0.068,0.15c-0.939,2-3.102,3.92-4.119,4.65l-0.103,0.07v3.52
	L138.68,16.43"/>
<path d="M146.3,13.88h-3.25l-0.069,0.15c-0.801,1.89-3.25,4.45-4.648,5.5l-0.102,0.07v3.88l0.399-0.291
	c0.75-0.549,1.55-1.17,2.341-1.852v8.973h3.43V17.65c0.74-1.04,1.359-2.19,1.779-3.44L146.3,13.88"/>
<rect x="146.98" y="8.64" width="12.14" height="3.08"/>
<path d="M159.689,18.01v-3.07H146.29v3.07h7.47v9.311l-4.14,0.011l1.06,2.93h4.57c1.779,0,2-0.899,2-1.68V18.01H159.689"/>
<path d="M100.29,14.14v-3.36h-5.011c0.171-0.91,0.32-1.82,0.451-2.73l0.039-0.28h-3.91L91.83,7.98c-0.15,0.97-0.311,1.9-0.48,2.8
	h-4.41v3.36h3.69c-1.021,4.28-2.319,7.879-3.87,11.629l-0.14,0.351h4.19l0.06-0.16c1.21-2.989,2.63-7.27,3.7-11.83h5.72"/>
<path d="M101.34,24.721c-0.02,1.859-0.04,2.709-2,2.719c-0.97,0-1.75-0.237-2.189-0.68c-0.301-0.31-0.461-0.71-0.461-1.189
	c0-0.568,0.19-1.051,0.57-1.408c0.53-0.512,1.44-0.78,2.49-0.74c0.49,0.021,1.029,0.102,1.59,0.223V24.721 M105.15,21.44v-7.35h4.42
	v-3.31h-8.23v3.31v6.32c-0.699-0.12-1.369-0.18-2.01-0.18c-3.689,0-6.391,2.241-6.41,5.32c-0.01,1.181,0.43,2.22,1.311,3.08
	c1.289,1.261,3.49,2.04,5.619,1.979c4.9-0.129,5.28-3.289,5.301-5.729c1.369,0.601,2.762,1.351,4.062,2.22l0.38,0.26l0.03-3.75
	l-0.108-0.067C108.52,22.859,106.92,22.08,105.15,21.44"/>
<path d="M46.37,22.9c-0.67-4.602-0.65-9.87,0.05-14.44l0.04-0.29H42.5l-0.03,0.21c-0.68,4.41-0.74,9.86-0.15,14.58l0.03,0.22h4.06
	L46.37,22.9"/>
<path d="M58.44,8.17h-3.82l0.02,0.27C55.7,23.07,55.6,26.2,46.39,27l-0.23,0.02v3.291h0.25c4.68-0.061,7.93-1.16,9.93-3.371
	c3.36-3.709,2.83-10.02,2.22-17.33L58.44,8.17"/>
<path d="M81.439,11.9V8.64H65.32v3.3h9.14c-2.18,1.2-5.16,2.64-7.53,3.64H61.9v3.35h8.86c-1.74,1.36-2.8,3.599-2.53,5.849
	c0.4,3.461,3.72,5.521,8.88,5.521h2.96v-3.35h-2.39c-1.3,0-5.52-0.25-5.52-3.45c0-1.77,1.88-4.56,6.94-4.56h5.63v-3.35H74.56
	c2.25-1.04,4.4-2.23,6.76-3.61L81.439,11.9"/>
</svg>
