<?xml version="1.0" encoding="utf-8"?>
<!-- Generator: Adobe Illustrator 15.1.0, SVG Export Plug-In . SVG Version: 6.00 Build 0)  -->
<!DOCTYPE svg PUBLIC "-//W3C//DTD SVG 1.1//EN" "http://www.w3.org/Graphics/SVG/1.1/DTD/svg11.dtd">
<svg version="1.1" id="レイヤー_1" xmlns="http://www.w3.org/2000/svg" xmlns:xlink="http://www.w3.org/1999/xlink" x="0px"
	 y="0px" width="224px" height="41px" viewBox="0 0 224 41" enable-background="new 0 0 224 41" xml:space="preserve">
<rect fill="#FFFFFF" width="224" height="41"/>
<g>
	<path fill="#009B63" d="M2.391,13.678c0-1.064,0.121-2.1,0.349-3.092l-0.001-0.002c0.679-3.018,3.106-7.075,7.449-7.075
		c6.092,0,5.11,9.824-3.732,7.832c0.926,1.712,3.756,6.924,4.94,8.898c3.199,5.33,9.255,6.695,12.813,4.527
		c-2.27,1.66-5.063,2.639-8.089,2.639C8.537,27.404,2.391,21.258,2.391,13.678 M22.091,1.004v0.002
		C22.076,1,22.059,0.993,22.038,0.993c-0.078,0-0.14,0.063-0.14,0.141c0,0.056,0.034,0.105,0.082,0.128
		c4.649,2.198,7.863,6.93,7.863,12.416c0,1.602-0.274,3.139-0.778,4.568c-0.96,2.84-4.249,3.51-6.41-0.084
		c-0.391-0.646-2.64-4.854-3.313-6.121c10.518-2.008,4.499-15.528-8.815-11.187c-0.127,0.042-0.097,0.215,0.025,0.188
		c12.292-2.637,14.219,10.847,4.242,11.266c1.112,1.967,2.983,5.224,3.724,6.554c2.005,3.585,5.392,4.382,8.534,2.684
		c0.258-0.139,0.481-0.298,0.613-0.45l0.002,0.004c-0.235,0.364-0.483,0.717-0.751,1.055c-1.347,1.572-6.993,3.472-10.943-2.939
		c-0.899-1.464-3.113-5.431-4-7.159c7.876,0.083,9.183-9.686,0.845-10.358C9.159,1.402,3.299,3.972,0.974,10.442
		C0.345,12.168,0,14.029,0,15.974c0,8.895,7.213,16.112,16.114,16.112c8.899,0,16.112-7.217,16.112-16.112
		C32.226,9.184,28.031,3.379,22.091,1.004"/>
	<path fill="#F0831E" d="M5.025,37.298c0,0.444-0.374,0.706-0.997,0.706c0,0-0.472,0-0.544,0c0-0.075,0-1.299,0-1.375
		c0.076,0,0.62,0,0.62,0C4.689,36.629,5.025,36.875,5.025,37.298 M4.913,38.394c0.558-0.136,0.927-0.57,0.927-1.112
		c0-1.182-0.966-1.344-1.909-1.344H2.715v4.892h0.769c0,0,0-2.054,0-2.133c0.069,0,0.374,0,0.374,0c0.362,0,0.563,0,0.767,0.442
		l0.746,1.69h0.88l-0.938-1.974C5.18,38.598,5.08,38.477,4.913,38.394"/>
	<path fill="#F0831E" d="M7.133,35.938v4.892h2.776v-0.688c0,0-1.923,0-2.004,0c0-0.077,0-1.423,0-1.501c0.08,0,1.826,0,1.826,0
		v-0.69c0,0-1.746,0-1.826,0c0-0.078,0-1.245,0-1.321c0.082,0,2.004,0,2.004,0v-0.691H7.133"/>
	<path fill="#F0831E" d="M12.356,37.903c-0.431-0.206-0.803-0.384-0.803-0.759c0-0.539,0.559-0.598,0.798-0.598
		c0.349,0,0.537,0.06,0.887,0.196l0.049,0.021l0.111-0.722l-0.034-0.011c-0.313-0.11-0.693-0.174-1.041-0.174
		c-0.964,0-1.585,0.529-1.585,1.35c0,0.836,0.63,1.133,1.184,1.391c0.475,0.225,0.881,0.416,0.881,0.882
		c0,0.544-0.538,0.741-0.901,0.741c-0.388,0-0.851-0.175-0.983-0.23l-0.051-0.02l-0.077,0.729l0.03,0.012
		c0.314,0.1,0.649,0.2,0.999,0.2c1.144,0,1.799-0.536,1.799-1.474C13.621,38.514,12.918,38.175,12.356,37.903"/>
	<path fill="#F0831E" d="M16.716,40.221c-1.136,0-1.54-0.986-1.54-1.836c0-0.586,0.19-1.111,0.521-1.441
		c0.269-0.266,0.613-0.4,1.019-0.396c0.41-0.004,0.75,0.131,1.021,0.396c0.333,0.33,0.523,0.855,0.523,1.441
		C18.26,39.234,17.854,40.221,16.716,40.221 M16.716,35.857c-1.405,0-2.353,1.018-2.353,2.527c0,1.535,0.923,2.526,2.353,2.526
		c1.432,0,2.357-0.991,2.357-2.526C19.073,36.875,18.126,35.857,16.716,35.857"/>
	<path fill="#F0831E" d="M23.133,35.938c0,0,0,3.518,0,3.775c-0.121-0.223-2.068-3.775-2.068-3.775h-1.001v4.892h0.771
		c0,0,0-3.599,0-3.856c0.125,0.223,2.125,3.856,2.125,3.856h0.948v-4.892H23.133"/>
	<path fill="#F0831E" d="M27.905,38.971c-0.113,0-1.677,0-1.79,0c0.042-0.105,0.825-2.055,0.895-2.229
		C27.077,36.916,27.863,38.865,27.905,38.971 M27.423,35.938h-0.777l-2.088,4.892h0.815c0,0,0.468-1.16,0.49-1.212
		c0.053,0,2.241,0,2.297,0c0.018,0.052,0.488,1.212,0.488,1.212h0.841L27.423,35.938"/>
	<path d="M84.674,23.792v-2.468H81c0.122-0.67,0.233-1.339,0.324-2.006l0.03-0.206h-2.873l-0.022,0.153
		c-0.11,0.713-0.226,1.398-0.351,2.059h-3.239v2.468h2.714c-0.753,3.146-1.707,5.794-2.845,8.554l-0.105,0.252h3.08l0.047-0.114
		c0.887-2.198,1.935-5.341,2.717-8.691H84.674"/>
	<path d="M85.452,31.572c-0.02,1.365-0.03,1.993-1.47,1.999c-0.71,0.002-1.28-0.176-1.612-0.503
		c-0.225-0.227-0.339-0.521-0.339-0.875c0-0.424,0.144-0.771,0.42-1.037c0.392-0.377,1.062-0.574,1.831-0.546
		c0.357,0.017,0.757,0.077,1.17,0.161C85.452,30.889,85.452,31.572,85.452,31.572 M91.466,30.694
		c-0.737-0.487-1.912-1.062-3.211-1.53c0-1.301,0-3.63,0-5.405h3.249v-2.435h-6.051v0.04c0,0,0,5.551,0,7.037
		c-0.514-0.087-1.01-0.136-1.474-0.136c-2.713,0-4.695,1.645-4.713,3.912c-0.007,0.873,0.316,1.635,0.965,2.269
		c0.945,0.928,2.568,1.498,4.131,1.458c3.602-0.097,3.885-2.422,3.894-4.215c1.004,0.44,2.028,0.991,2.989,1.635l0.279,0.188
		l0.024-2.762L91.466,30.694"/>
	<path d="M45.269,30.232c-0.494-3.386-0.479-7.256,0.041-10.617l0.032-0.21h-2.91l-0.025,0.155
		c-0.498,3.238-0.541,7.245-0.113,10.719l0.019,0.161H45.3L45.269,30.232"/>
	<path d="M54.149,19.405h-2.805l0.015,0.196c0.775,10.759,0.703,13.055-6.07,13.646l-0.166,0.015v2.417l0.186-0.003
		c3.437-0.045,5.824-0.854,7.293-2.476c2.475-2.724,2.084-7.366,1.635-12.741L54.149,19.405"/>
	<path d="M70.892,22.151v-2.397H59.036v2.42h6.722c-1.603,0.881-3.795,1.942-5.536,2.681h-3.701v2.463h6.513
		c-1.28,0.997-2.055,2.65-1.861,4.302c0.297,2.537,2.737,4.057,6.529,4.057h2.181v-2.467h-1.761c-0.952,0-4.06-0.184-4.06-2.537
		c0-1.348,1.358-3.354,5.103-3.354h4.143v-2.463h-7.476c1.653-0.763,3.231-1.634,4.97-2.651L70.892,22.151"/>
	<path d="M161.667,27.446v-2.44h-15.94v2.44h7.679c-0.329,2.613-2.064,5.462-6.109,5.714l-0.166,0.012l-0.034,2.52l0.193-0.009
		c5.018-0.227,8.528-3.438,9.09-8.236H161.667"/>
	<path d="M159.506,22.336l0.017,0.121h1.882l-0.028-0.168c-0.13-0.785-0.366-1.573-0.729-2.664l-0.034-0.1h-1.833l0.063,0.19
		C159.168,20.695,159.375,21.504,159.506,22.336"/>
	<path d="M158.76,22.289c-0.107-0.719-0.258-1.293-0.507-2.1l-0.035-0.131h-0.139l-10.393,0.01v2.441l11.102-0.012L158.76,22.289"/>
	<path d="M162.063,22.335l0.019,0.12l1.882,0.002l-0.029-0.168c-0.132-0.789-0.365-1.575-0.731-2.666l-0.03-0.098h-1.835l0.065,0.19
		C161.728,20.691,161.931,21.5,162.063,22.335"/>
	<path d="M171.048,22.852l-0.057,0.087c-2.422,3.917-6.341,5.623-9.484,6.673l-0.125,0.04l0.007,2.591l0.23-0.067
		c2-0.594,3.91-1.425,5.638-2.421v5.6h2.677v-7.399c1.872-1.459,3.363-3.119,4.263-4.835l0.143-0.27h-0.304L171.048,22.852"/>
	<path d="M181.688,23.717l0.233,0.071v-2.749l-0.127-0.038c-2.004-0.603-4.973-1.265-6.914-1.544l-0.208-0.031v2.613l0.155,0.021
		C176.725,22.334,179.709,23.123,181.688,23.717"/>
	<path d="M190.032,22.004h-2.612l-0.033,0.147c-1.641,7.667-7.751,9.912-12.586,10.445l-0.164,0.019l-0.003,2.971l0.202-0.021
		c8.575-0.894,13.604-5.256,15.379-13.339l0.046-0.223H190.032"/>
	<path d="M204.534,22.98c-0.134-0.924-0.341-1.833-0.699-2.965l-8.055-0.01l-0.046,0.106c-0.912,2.03-1.916,3.308-4.129,5.258
		l-0.062,0.054l0.005,2.998l0.284-0.189c2.458-1.637,4.388-3.253,5.798-5.771c0.192,0,5.311,0,5.702,0
		c-0.453,3.104-1.709,5.626-3.742,7.489c-1.865,1.71-4.346,2.792-7.173,3.132l-0.159,0.02l-0.002,2.516l0.198-0.015
		c3.248-0.234,6.34-1.464,8.71-3.461c2.651-2.236,4.395-5.403,5.037-9.161H204.534"/>
	<path d="M206.216,19.602l-0.033-0.099h-1.834l0.067,0.19c0.324,0.977,0.528,1.782,0.658,2.62l0.018,0.12h1.882l-0.026-0.166
		C206.815,21.479,206.578,20.693,206.216,19.602"/>
	<path d="M209.506,22.265c-0.132-0.789-0.368-1.573-0.732-2.663l-0.034-0.099h-1.829l0.061,0.19c0.325,0.977,0.528,1.782,0.66,2.62
		l0.02,0.12h1.882L209.506,22.265"/>
	<path d="M223.87,31.952l-0.052-0.052c-1.542-1.631-2.606-2.499-3.949-3.598c0,0-0.328-0.263-0.483-0.389
		c1.483-2.232,2.551-4.813,3.165-7.681l0.048-0.218l-12.283-0.006v2.457c0,0,8.135-0.006,8.616-0.006
		c-0.991,2.975-3.531,8.057-9.754,10.511l-0.118,0.044l0.01,2.712l0.245-0.087c3.359-1.213,6.169-3.071,8.367-5.525
		c1.986,1.664,4.063,3.487,5.868,5.574l0.322,0.372L223.87,31.952"/>
	<rect x="111.773" y="26.063" width="14.094" height="2.596"/>
	<polyline points="110.929,24.713 110.929,22.271 103.96,22.271 103.96,19.27 101.107,19.27 101.107,22.271 94.19,22.271 
		94.19,24.713 101.107,24.713 101.107,35.635 103.96,35.635 103.96,24.713 110.929,24.713 	"/>
	<path d="M96.747,26.305l-0.021,0.158c-0.301,2.181-1.424,3.679-2.48,4.858l-0.048,0.052v3.451l0.305-0.275
		c2.504-2.255,4.086-3.919,4.971-8.021l0.052-0.223H96.747"/>
	<path d="M108.4,26.463l-0.023-0.158h-2.775l0.049,0.223c0.887,4.103,2.469,5.767,4.976,8.021l0.303,0.275v-3.451l-0.047-0.052
		C109.824,30.141,108.7,28.642,108.4,26.463"/>
	<path d="M141.483,25.561l-0.03,0.146c-0.625,3.174-2.088,5.318-4.229,6.249c0-0.552,0.011-12.504,0.011-12.504h-2.854l0.003,16.202
		l0.214-0.035c5.375-0.906,8.402-4.027,9.531-9.828l0.043-0.217L141.483,25.561"/>
	<path d="M128.563,20.182l-0.002,4.736c0.002,2.813,0.003,5.722-2.556,7.689l-0.073,0.055l0.004,3.168l0.276-0.16
		c4.374-2.545,5.175-5.73,5.175-11.096v-4.211v-0.182H128.563"/>
	<g>
		<path d="M45.626,8.289c0,0-0.94,0-1.084,0c0-0.153,0-2.593,0-2.747c0.146,0,1.236,0,1.236,0c1.168,0,1.839,0.485,1.839,1.333
			C47.618,7.761,46.874,8.289,45.626,8.289 M44.542,9.666c0.135,0,0.74,0,0.74,0c0.727,0,1.128,0,1.532,0.887l1.493,3.375h1.753
			l-1.871-3.94c-0.264-0.517-0.471-0.751-0.804-0.92c1.117-0.271,1.857-1.137,1.857-2.219c0-2.364-1.924-2.682-3.809-2.682H43v9.762
			h1.542C44.542,13.927,44.542,9.828,44.542,9.666"/>
		<path d="M53.819,7.796c1.113,0,1.626,0.883,1.656,1.785c-0.166,0-3.258,0-3.441,0C52.156,8.702,52.679,7.796,53.819,7.796
			 M54.19,14.092c1.026,0,1.598-0.216,2.054-0.388l0.241-0.091l0.001-0.059v-1.469l-0.138,0.113
			c-0.288,0.238-1.264,0.682-2.104,0.682c-1.22,0-2.175-0.947-2.218-2.169c0.177,0,4.996,0,4.996,0v-0.083
			c0-2.683-1.069-4.043-3.178-4.043c-1.982,0-3.37,1.494-3.37,3.63C50.476,12.716,51.795,14.092,54.19,14.092"/>
		<path d="M59.97,10.846c0.66,0.319,1.229,0.596,1.229,1.115c0,0.875-1.028,0.919-1.234,0.919c-0.332,0-1.057-0.153-1.563-0.481
			l-0.121-0.079l-0.08,1.353l0.048,0.026c0.653,0.349,1.393,0.394,1.964,0.394c1.258,0,2.53-0.702,2.53-2.269
			c0-1.299-0.968-1.738-1.821-2.125c-0.654-0.296-1.216-0.552-1.216-1.132c0-0.567,0.621-0.769,1.153-0.769
			c0.279,0,1.035,0.17,1.317,0.346l0.114,0.07l0.13-1.331l-0.066-0.019c-0.474-0.141-0.99-0.279-1.632-0.279
			c-1.578,0-2.558,0.859-2.558,2.242C58.161,9.967,59.122,10.434,59.97,10.846"/>
		<path d="M67.262,12.88c-1.454,0-2.115-1.317-2.115-2.541c0-1.232,0.741-2.542,2.115-2.542c1.366,0,2.103,1.31,2.103,2.542
			C69.364,11.563,68.706,12.88,67.262,12.88 M67.262,14.092c2.078,0,3.644-1.613,3.644-3.753c0-2.211-1.499-3.754-3.644-3.754
			c-2.153,0-3.657,1.543-3.657,3.754C63.604,12.479,65.176,14.092,67.262,14.092"/>
		<path d="M73.655,10.6c0-1.046,0.266-2.803,2.046-2.803c1.005,0.061,1.401,0.74,1.401,2.418v3.712h1.458V9.679
			c0-2.024-0.936-3.094-2.709-3.094c-0.96,0-1.801,0.449-2.238,1.139c0-0.285,0-0.974,0-0.974h-1.42v7.177h1.461V10.6"/>
		<path d="M82.546,12.88c-0.587,0-1.221-0.404-1.221-1.057c0-1.098,1.471-1.263,2.349-1.263c0,0,0.634,0.021,0.741,0.024
			c0,0.123,0,0.538,0,0.538C84.415,12.207,83.699,12.88,82.546,12.88 M82.438,14.092c1.133,0,1.801-0.576,2.114-0.947
			c0,0.246,0,0.783,0,0.783h1.389l-0.012-0.095c-0.037-0.273-0.055-0.719-0.055-1.363v-2.9c0-2.036-0.922-2.983-2.901-2.983
			c-0.813,0-1.604,0.226-2.353,0.672l-0.043,0.026l0.083,1.316l0.127-0.107c0.509-0.429,1.268-0.695,1.981-0.695
			c1.141,0,1.619,0.486,1.642,1.659c-0.161-0.003-1.286-0.025-1.286-0.025c-1.24,0-3.342,0.504-3.342,2.393
			C79.782,13.286,80.725,14.092,82.438,14.092"/>
		<path d="M97.419,14.092c1.142,0,2.108-0.14,2.956-0.431l0.055-0.018V8.51h-3.563v1.294c0,0,1.866,0,2.021,0
			c0,0.154,0,2.636,0,2.762c-0.047,0.01-0.098,0.021-0.098,0.021c-0.281,0.063-0.574,0.128-1.357,0.128
			c-2.046,0-3.532-1.543-3.532-3.669c0-2.16,1.48-3.668,3.601-3.668c1.139,0,1.891,0.187,2.592,0.646l0.119,0.077l0.125-1.594
			l-0.06-0.021C99.491,4.215,98.87,4,97.434,4c-3.038,0-5.156,2.059-5.156,5.005C92.277,12.095,94.295,14.092,97.419,14.092"/>
		<path d="M103.688,10.654c0-1.686,0.718-2.775,1.828-2.775c0.265,0,0.493,0.04,0.683,0.118l0.114,0.047V6.697l-0.096-0.02
			c-0.258-0.051-0.46-0.092-0.84-0.092c-0.688,0-1.377,0.447-1.772,1.097c0-0.291,0-0.932,0-0.932h-1.377v7.177h1.46V10.654"/>
		<path d="M110.146,12.88c-1.454,0-2.114-1.317-2.114-2.541c0-1.232,0.74-2.542,2.114-2.542c1.365,0,2.104,1.31,2.104,2.542
			C112.25,11.563,111.591,12.88,110.146,12.88 M110.146,14.092c2.078,0,3.644-1.613,3.644-3.753c0-2.211-1.497-3.754-3.644-3.754
			c-2.151,0-3.657,1.543-3.657,3.754C106.489,12.479,108.063,14.092,110.146,14.092"/>
		<path d="M117.858,14.092c0.961,0,1.803-0.448,2.238-1.139c0,0.284,0,0.974,0,0.974h1.42V6.75h-1.46v3.327
			c0,1.047-0.267,2.803-2.046,2.803c-1.007-0.062-1.402-0.739-1.402-2.418V6.75h-1.46v4.249
			C115.148,13.022,116.086,14.092,117.858,14.092"/>
		<path d="M126.794,7.796c0.476,0,0.874,0.162,1.185,0.477c0.435,0.443,0.674,1.187,0.655,2.035v0.005
			c0.015,0.604-0.165,1.514-0.726,2.087c-0.311,0.318-0.69,0.479-1.129,0.479c-1.359,0-1.979-1.311-1.979-2.528
			C124.801,9.122,125.424,7.796,126.794,7.796 M124.801,13.08c0.488,0.662,1.246,1.012,2.28,1.012c2.285,0,3.095-2.088,3.095-3.877
			c0-1.808-0.962-3.63-3.107-3.63c-1.107,0-1.899,0.502-2.322,1.025c0-0.263,0-0.86,0-0.86h-1.405v10.064h1.46
			C124.801,16.814,124.801,13.438,124.801,13.08"/>
	</g>
</g>
</svg>
