<?xml version="1.0" encoding="UTF-8"?>
<svg xmlns="http://www.w3.org/2000/svg" width="161" height="21" viewBox="0 0 161 21" fill="none">
  <g id="logo_SCREEN">
    <path id="Vector" d="M107.928 0.225586V20.9964H132.427V16.6293H112.391V12.7907H132.427V8.43135H112.391V4.59273H132.427V0.225586H107.928Z" fill="#1065B0"></path>
    <path id="Vector_2" d="M155.95 0.225586V15.1187L139.065 0.225586H134.605V20.9964H139.065V6.10108L155.95 20.9942H160.407V0.225586H155.95Z" fill="#1065B0"></path>
    <path id="Vector_3" d="M81.2539 0.225586V20.9964H105.745V16.6293H85.7144V12.7907H105.745V8.43135H85.7144V4.59273H105.745V0.225586H81.2539Z" fill="#1065B0"></path>
    <path id="Vector_4" d="M79.5107 6.5098C79.5092 4.843 78.8305 3.24494 77.6235 2.06664C76.4166 0.888347 74.7802 0.226179 73.0738 0.225586L54.1426 0.225586V20.9964H58.6008V12.7907H66.34L73.3788 20.9964H79.2092L72.167 12.7907H73.0738C74.7801 12.791 76.4167 12.1294 77.6237 10.9514C78.8308 9.77337 79.5095 8.17649 79.5107 6.5098ZM58.6008 8.43135V4.59273H73.0738C73.3359 4.58655 73.5967 4.63164 73.8407 4.72534C74.0847 4.81904 74.307 4.95947 74.4946 5.13836C74.6822 5.31725 74.8313 5.53098 74.9331 5.76699C75.0349 6.00299 75.0873 6.2565 75.0873 6.5126C75.0873 6.7687 75.0349 7.02221 74.9331 7.25821C74.8313 7.49422 74.6822 7.70795 74.4946 7.88684C74.307 8.06573 74.0847 8.20616 73.8407 8.29986C73.5967 8.39356 73.3359 8.43865 73.0738 8.43247L58.6008 8.43135Z" fill="#1065B0"></path>
    <path id="Vector_5" d="M20.2486 8.43135H6.34645C5.82518 8.43135 5.32525 8.22908 4.95666 7.86903C4.58806 7.50899 4.38099 7.02066 4.38099 6.51148C4.38099 6.0023 4.58806 5.51398 4.95666 5.15393C5.32525 4.79389 5.82518 4.59162 6.34645 4.59162H25.7202V0.225586H6.34645C4.65552 0.247638 3.04149 0.91925 1.85372 2.09506C0.665956 3.27086 0 4.85627 0 6.50812C0 8.15997 0.665956 9.74538 1.85372 10.9212C3.04149 12.097 4.65552 12.7686 6.34645 12.7907H20.2486C20.7619 12.8028 21.2501 13.0105 21.6088 13.3694C21.9675 13.7283 22.1683 14.2101 22.1683 14.7116C22.1683 15.2132 21.9675 15.6949 21.6088 16.0539C21.2501 16.4128 20.7619 16.6205 20.2486 16.6326H0.880526V20.9998H20.2543C21.9602 20.9998 23.5963 20.3378 24.8026 19.1595C26.0089 17.9812 26.6866 16.3831 26.6866 14.7167C26.6866 13.0503 26.0089 11.4522 24.8026 10.2739C23.5963 9.09555 21.9602 8.43359 20.2543 8.43359L20.2486 8.43135Z" fill="#1065B0"></path>
    <path id="Vector_6" d="M27.9023 10.6037C27.9011 13.3581 29.0198 16.0002 31.0124 17.949C33.005 19.8979 35.7084 20.994 38.5281 20.9964H51.9522V16.6293H38.5281C37.7116 16.6401 36.9011 16.4925 36.1435 16.1948C35.386 15.8971 34.6965 15.4554 34.1152 14.8952C33.5339 14.3351 33.0723 13.6677 32.7573 12.9319C32.4422 12.196 32.28 11.4064 32.28 10.6088C32.28 9.81115 32.4422 9.0215 32.7573 8.28565C33.0723 7.5498 33.5339 6.88243 34.1152 6.32229C34.6965 5.76216 35.386 5.32042 36.1435 5.02275C36.9011 4.72507 37.7116 4.57738 38.5281 4.58826H51.9522V0.225586H38.5281C35.7107 0.227069 33.009 1.32092 31.0166 3.26684C29.0243 5.21277 27.9042 7.85162 27.9023 10.6037Z" fill="#1065B0"></path>
  </g>
</svg>
