<svg xmlns="http://www.w3.org/2000/svg" xmlns:xlink="http://www.w3.org/1999/xlink" width="276" height="60" viewBox="0 0 276 60">
  <defs>
    <clipPath id="clip-path">
      <rect id="長方形_31793" data-name="長方形 31793" width="276" height="60" transform="translate(82)" fill="#fff" stroke="#707070" stroke-width="1"/>
    </clipPath>
  </defs>
  <g id="マスクグループ_459" data-name="マスクグループ 459" transform="translate(-82)" clip-path="url(#clip-path)">
    <g id="グループ_17306" data-name="グループ 17306" transform="translate(50)">
      <g id="グループ_17247" data-name="グループ 17247">
        <path id="パス_14112" data-name="パス 14112" d="M307.849,37.025h2.233v3.061c.367,1.373,1.834,1.373,2.285,1.373h5.5l-.283,1.248h-5.272a2.64,2.64,0,0,1-2.527-1.112,6.124,6.124,0,0,1-1.5,1.4l-.524-1.425a5.432,5.432,0,0,0,1.058-.745V38.272h-.975Zm.965-3.889a9.17,9.17,0,0,1,1.645,1.678l-.974.953a8.258,8.258,0,0,0-1.562-1.75Zm2.211,3.512a6.686,6.686,0,0,1-.513.471l-.828-1.006A7.448,7.448,0,0,0,311.969,33l1.216.3a7.628,7.628,0,0,1-.493,1.08h1.216a6.173,6.173,0,0,0,.629-1.332l1.258.263a6.815,6.815,0,0,1-.545,1.069h2.18v1.111h-2.275v.755h1.94v.943h-1.94v.755h1.94v.932h-1.94v.808h2.4V40.82h-6.531Zm1.248-1.153v.755h1.7v-.755Zm0,1.7v.755h1.7v-.755Zm0,1.687v.808h1.7V38.88Z"/>
        <path id="パス_14113" data-name="パス 14113" d="M320.3,37.885a5.571,5.571,0,0,1-.734.828l-.576-1.6a8.646,8.646,0,0,0,2.159-4.057l1.289.137a10.524,10.524,0,0,1-.807,2.421v7.327H320.3Zm4.665-4.822v3.522a12.034,12.034,0,0,0,3.175-1.782l.839,1.09a14.613,14.613,0,0,1-4.014,2.023v3.155c0,.241,0,.388.408.388H327.3c.251,0,.3-.073.335-.157a10.7,10.7,0,0,0,.137-1.7l1.31.356c-.011,2.642-.524,2.82-1.342,2.82h-3.019c-.545,0-1.1-.115-1.1-1V33.063Z"/>
        <path id="パス_14114" data-name="パス 14114" d="M339.726,34.495v1.3h-2.717v2.182a5.853,5.853,0,0,1,.171,1.348c0,3.091-3.016,3.369-4.514,3.422l-.438-1.273c2.984.011,3.358-.834,3.5-1.486a1.361,1.361,0,0,1-1.273.62,2.017,2.017,0,0,1-2.022-2.128,2.1,2.1,0,0,1,2.225-2.161,1.581,1.581,0,0,1,.952.267l-.011-.791h-4.974v-1.3h4.953l-.022-1.069h1.455v1.069Zm-4.075,3.7a.843.843,0,0,0-.91-.8,1.078,1.078,0,0,0-.064,2.15.915.915,0,0,0,.974-.952Z"/>
        <path id="パス_14115" data-name="パス 14115" d="M348.07,34.816c-.578.4-1.712,1.284-2.557,1.947a5.434,5.434,0,0,1,1.359-.214,2.718,2.718,0,0,1,2.92,2.813c0,2.054-1.658,3.3-3.947,3.3-1.979,0-2.867-.92-2.867-1.872a1.806,1.806,0,0,1,1.979-1.669,2.727,2.727,0,0,1,2.578,1.851,1.813,1.813,0,0,0,.856-1.562c0-.984-.664-1.7-2.1-1.7-1.658,0-2.877.9-4.5,2.439l-.8-1.2c.438-.321,2.31-1.754,4.759-3.9-1.144.075-2.235.128-3.593.15v-1.38c2.342.011,3.38,0,5.915-.107Zm-3.145,5.4c-.439,0-.706.278-.706.5,0,.5.6.823,1.5.823a2.857,2.857,0,0,0,.685-.075A1.552,1.552,0,0,0,344.925,40.218Z"/>
        <path id="パス_14116" data-name="パス 14116" d="M354.146,34.271c.075.556.214,1.251.342,1.775a5.369,5.369,0,0,1,2.417-.866c.1-.545.129-.8.247-1.754l1.529.16c-.107.439-.321,1.348-.374,1.573,2.128.139,2.973,1.882,2.973,3.658a6.039,6.039,0,0,1-.16,1.422,7.33,7.33,0,0,1,.716.642l-.791,1.22a5.174,5.174,0,0,0-.481-.557,2.081,2.081,0,0,1-1.894,1,1.618,1.618,0,0,1-1.839-1.551c0-.823.631-1.615,1.936-1.615a2.6,2.6,0,0,1,1.112.225,6.118,6.118,0,0,0,.075-.877c0-1.38-.631-2.279-1.979-2.343a15.53,15.53,0,0,1-1.9,4.364A2.82,2.82,0,0,1,353.9,42.25c-.92,0-1.744-.706-1.744-2.246a4.481,4.481,0,0,1,1.348-3.166,15.922,15.922,0,0,1-.588-2.3Zm-.171,3.808a3.2,3.2,0,0,0-.631,1.861c0,.321.075.941.62.941.353,0,.642-.214,1.059-.791A10.985,10.985,0,0,1,353.975,38.079Zm2.663-1.637a5.781,5.781,0,0,0-1.775.792,10.288,10.288,0,0,0,.812,1.754A15.121,15.121,0,0,0,356.638,36.442Zm2.075,3.9c-.331,0-.834.129-.834.557,0,.288.256.535.77.535a.967.967,0,0,0,1.037-.728A1.473,1.473,0,0,0,358.713,40.346Z"/>
        <path id="パス_14117" data-name="パス 14117" d="M369.613,42.807a39,39,0,0,0-5.123-3.541c-.663-.417-.963-.717-.963-1.155,0-.514.4-.877,1.262-1.572a36.209,36.209,0,0,0,3.733-3.241l1.541.812a37.5,37.5,0,0,1-4.193,3.316c-.257.182-.578.417-.578.578s.139.246,1.38.909a31.288,31.288,0,0,1,4.353,2.813Z"/>
        <path id="パス_14118" data-name="パス 14118" d="M379.519,34.806V36.1h-3.081l-.043,1.583h.642a9.843,9.843,0,0,0,2.353-.171l.075,1.284a8.665,8.665,0,0,1-2.407.2h-.7c-.032,1.882-.043,2.246,1.894,2.246,1.1,0,2.3-.043,2.3-1.712a5.177,5.177,0,0,0-.567-2.2l1.3-.353a5.588,5.588,0,0,1,.728,2.706c0,2.9-2.322,2.942-3.808,2.942-1.53,0-2.439-.214-2.985-1.2a5.232,5.232,0,0,1-.31-2.428h-1.84V37.683h1.872l.022-1.583h-1.8V34.806h1.818l.032-1.294,1.487.01-.032,1.284Z"/>
        <path id="パス_14119" data-name="パス 14119" d="M386.279,33.757a15.091,15.091,0,0,0-.427,3.466c.417-.684.46-.759.674-1.08l.834.641a9.944,9.944,0,0,0-1.006,1.551,2.82,2.82,0,0,0-.417,1.327l-1.326.075a18.772,18.772,0,0,1-.161-2.525,17.67,17.67,0,0,1,.353-3.6Zm4.857-.085c.1,1.219.16,2.439.16,3.669,0,2.439-.278,4.5-4.139,5.455l-1.07-1.091c3.573-.9,3.69-2.311,3.69-4.493,0-1.24-.053-1.968-.171-3.54Z"/>
        <path id="パス_14120" data-name="パス 14120" d="M397.158,41.031a1.706,1.706,0,1,1-3.412,0,1.706,1.706,0,0,1,3.412,0Zm-2.77,0a1.059,1.059,0,1,0,1.059-1.059A1.054,1.054,0,0,0,394.388,41.031Z"/>
      </g>
      <path id="パス_14121" data-name="パス 14121" d="M1316,16.812H296.166c-9.814,0-12.959,2.459-15.346,11.047l-5.91,21.092C272.523,57.543,269.383,60,259.564,60H-50V0H1316Z" fill="#009"/>
      <g id="グループ_17256" data-name="グループ 17256">
        <g id="グループ_17250" data-name="グループ 17250">
          <g id="グループ_17249" data-name="グループ 17249">
            <g id="グループ_17248" data-name="グループ 17248">
              <path id="パス_14122" data-name="パス 14122" d="M34.227,43.022h1.328L34.334,48.9H33Z" fill="#fff"/>
              <path id="パス_14123" data-name="パス 14123" d="M36.614,43.022h1.647l.881,4.076h.011l.829-4.076H41.23L39.986,48.9H38.341l-.894-4.065h-.019l-.82,4.065H35.36Z" fill="#fff"/>
              <path id="パス_14124" data-name="パス 14124" d="M45.127,44.354a2.081,2.081,0,0,0-1.081-.27c-.522,0-.952.093-.968.566-.025.833,1.9.518,1.844,2.305C44.87,48.579,43.589,49,42.439,49a4.686,4.686,0,0,1-1.52-.3l.352-1.195a2.19,2.19,0,0,0,1.207.339c.412,0,1.06-.1,1.08-.7.031-.943-1.9-.588-1.846-2.247a1.988,1.988,0,0,1,2.267-1.967,3.41,3.41,0,0,1,1.508.257Z" fill="#fff"/>
              <path id="パス_14125" data-name="パス 14125" d="M50.285,45.76C49.9,47.629,49.469,49,47.674,49c-1.114,0-1.967-.471-1.924-1.854a6.119,6.119,0,0,1,.144-1.11l.66-3.014h1.338l-.706,3.326a5.288,5.288,0,0,0-.114.638c-.013.48.208.854.676.854.849,0,1.021-1.215,1.225-2.158l.574-2.66h1.312Z" fill="#fff"/>
              <path id="パス_14126" data-name="パス 14126" d="M51.8,43.022h1.581c.94.012,2.073.043,2.024,1.5a1.493,1.493,0,0,1-1.487,1.507v.02c.388.039.493.662.553,1.04l.292,1.81H53.443l-.205-1.5c-.1-.765-.141-.825-.737-.825h-.143L51.885,48.9H50.563Zm.792,2.444h.446c.572,0,1.027-.169,1.042-.727.016-.42-.191-.6-.589-.6h-.629Z" fill="#fff"/>
              <path id="パス_14127" data-name="パス 14127" d="M58.067,43.022h1.66l.611,5.876H59l-.09-1.254h-1.92L56.361,48.9H54.933Zm.618,1.215h-.014l-1.123,2.294h1.271Z" fill="#fff"/>
              <path id="パス_14128" data-name="パス 14128" d="M62.144,43.022h1.65l.878,4.076h.014l.832-4.076h1.246L65.518,48.9h-1.64l-.9-4.065h-.013L62.141,48.9H60.894Z" fill="#fff"/>
              <path id="パス_14129" data-name="パス 14129" d="M71.339,44.439a1.977,1.977,0,0,0-1.219-.355c-1.326,0-1.893,1.111-1.932,2.223-.035,1.042.509,1.533,1.3,1.533a2.469,2.469,0,0,0,1.264-.331l-.181,1.263A4.2,4.2,0,0,1,69.248,49a2.362,2.362,0,0,1-2.419-2.737,3.13,3.13,0,0,1,3.124-3.338,4.14,4.14,0,0,1,1.736.307Z" fill="#fff"/>
              <path id="パス_14130" data-name="パス 14130" d="M72.538,43.022h3.48l-.228,1.114H73.617l-.268,1.21h2.059l-.243,1.111h-2.05l-.289,1.33h2.259L74.859,48.9H71.284Z" fill="#fff"/>
            </g>
          </g>
          <path id="パス_14131" data-name="パス 14131" d="M73.216,16h-10.4l-3.1,14.95c-1.075,5.162-4.362,6.523-8.338,6.523-3.621,0-7.055-1.9-6.164-6.523.19-1.005.268-1.385.433-2.235h4.689c-.1.44-.267,1.189-.488,2.235-.337,1.583.358,2.584,2.126,2.584a2.8,2.8,0,0,0,3-2.584L58.083,16H47.157c-5.854,0-7.623,1.464-8.678,6.585L34.971,39.42H56.11c5.2,0,8.036-2.99,8.781-6.591.717-3.47.721-3.468.721-3.468H70.77c5.215,0,8.356-2.192,9.1-6.634C80.561,18.578,77.562,16,73.216,16Zm1.813,6.727c-.289,2.074-1.927,3-4.819,3H66.366l1.281-6.156h3.929C74.5,19.571,75.265,21.033,75.029,22.727Z" fill="#fff"/>
        </g>
        <g id="グループ_17255" data-name="グループ 17255">
          <g id="グループ_17254" data-name="グループ 17254">
            <path id="パス_14132" data-name="パス 14132" d="M190.218,42.351V35.662H198.7V33.368h-8.483v-5.6h9.669V25.482h-9.669V20.108h-3.3v5.374h-4.6a16.619,16.619,0,0,0,.842-4.33H179.8c-.337,4.258-1.815,7.355-4.089,8.711V32.42a9.767,9.767,0,0,0,5.573-4.65h5.629v5.6h-7.9v2.294h7.9v6.689h-11.2v2.292h24.814V42.351Z" fill="#fff"/>
            <g id="グループ_17251" data-name="グループ 17251">
              <path id="パス_14133" data-name="パス 14133" d="M204.285,30.927V42.878h9.8V30.927Zm2.968,9.755V33.127h3.873v7.555Z" fill="#fff"/>
              <path id="パス_14134" data-name="パス 14134" d="M217.245,19.859h-3.47c-1.718,2.971-6.349,5.557-10.673,6.556v2.159A35.286,35.286,0,0,0,208,27.2v1.333h14.919V27.075a24.77,24.77,0,0,0,4.843,1.474V25.767C224.19,25.033,218.759,22.661,217.245,19.859Zm-7.114,6.476a14.843,14.843,0,0,0,5.96-4.391,14.9,14.9,0,0,0,5.27,4.391Z" fill="#fff"/>
              <path id="パス_14135" data-name="パス 14135" d="M216.295,30.927v14.21h3.02V33.127h4.254v6.349c0,.665-.331,1.089-.952,1.089H220.8v2.293h3.057c1.786,0,2.73-.969,2.73-2.856V30.927Z" fill="#fff"/>
            </g>
            <path id="パス_14136" data-name="パス 14136" d="M144.423,30.4H141.4c.266,9.021-1.015,11.681-3.311,11.681-2.092,0-2.723-.744-2.353-4.561.534-5.477-.619-7.93-4.12-7.93a6.969,6.969,0,0,0-4.19,1.649,3.858,3.858,0,0,0-.543.592l-.082-.047a4.823,4.823,0,0,0,.281-.739c.965-3.264,2.044-6.617,3.092-9.982h-3.515a196.969,196.969,0,0,0-6.26,23.577h3.588c.2-1.652.5-3.362.876-5.122,1.017-4.042,3.7-6.9,5.858-6.9,1.912,0,2.009,1.4,1.7,4.9-.521,5.92,1.113,7.286,4.926,7.286C142.861,44.809,144.858,42.423,144.423,30.4Z" fill="#fff"/>
            <g id="グループ_17252" data-name="グループ 17252">
              <path id="パス_14137" data-name="パス 14137" d="M113.518,23.051h-3.213a33.739,33.739,0,0,1,5.955,11.24h3.664A30.647,30.647,0,0,0,113.518,23.051Z" fill="#fff"/>
              <path id="パス_14138" data-name="パス 14138" d="M103.663,25.682c-.4,0-.843,0-1.322.012q.463-2.573.838-5.214H99.845q-.4,2.649-.908,5.285c-1.937.054-4.065.127-6.09.2V28.6c1.852-.091,3.793-.183,5.577-.255a125.1,125.1,0,0,1-4.524,16.3h3.577a123.883,123.883,0,0,0,4.385-16.418c.649-.016,1.235-.024,1.73-.024,4.181,0,4.677,1.137,4.677,5.392,0,7.655-.488,8.654-4.526,8.642h-1.932v2.408H105.1c5.13,0,6.534-1.5,6.534-11.05C111.633,27.679,110.406,25.682,103.663,25.682Z" fill="#fff"/>
            </g>
            <g id="グループ_17253" data-name="グループ 17253">
              <path id="パス_14139" data-name="パス 14139" d="M148.633,21.481a211.917,211.917,0,0,0-.411,23.162h3.187a193.314,193.314,0,0,1,.413-23.162Z" fill="#fff"/>
              <path id="パス_14140" data-name="パス 14140" d="M171.391,19.867a3.323,3.323,0,0,0-3.2,2.469H154.45v2.27h8.081l.049,3.844h-8.13v2.269h8.163l.07,4.924a13.842,13.842,0,0,0-2.718-.269c-3.985,0-5.67,2.333-5.67,4.688,0,3.166,2.432,4.767,6.056,4.767,4.143,0,5.529-1.723,5.529-4.389l-.012-1.142c1.663.78,3.444,1.8,5.448,2.91V39.151c-1.974-1-3.746-1.9-5.487-2.58l-.079-5.852h5.123V28.45h-5.152l-.051-3.844h2.706a3.323,3.323,0,1,0,3.015-4.739Zm-8.654,20.052a2.234,2.234,0,0,1-2.375,2.547c-1.823,0-2.85-.842-2.85-2.366a2.42,2.42,0,0,1,2.6-2.339,10.05,10.05,0,0,1,2.6.354Zm8.654-15.2a1.5,1.5,0,1,1,1.479-1.5A1.487,1.487,0,0,1,171.391,24.716Z" fill="#fff"/>
            </g>
          </g>
        </g>
      </g>
    </g>
  </g>
</svg>
