<?xml version="1.0" encoding="UTF-8"?>
<svg id="logo_ana_tagline" xmlns="http://www.w3.org/2000/svg" version="1.1" viewBox="0 0 194.6 18">
  <!-- Generator: Adobe Illustrator 29.6.1, SVG Export Plug-In . SVG Version: 2.1.1 Build 9)  -->
  <defs>
    <style>
      .st0 {
        fill: #00aff0;
      }

      .st1 {
        fill: #00146e;
      }
    </style>
  </defs>
  <path class="st1" d="M160.1,12.3c0,1.6-.6,2-1.5,2s-.8,0-1.2-.2l-.3,1.3c.5.2,1.1.3,1.6.3,1.8,0,3-.8,3-3.3v-5.9h-1.7v5.8Z"/>
  <rect class="st1" x="78.3" y="6.5" width="1.6" height="9"/>
  <path class="st1" d="M85.4,8.9c-1.1,0-1.8.6-2.1,1.1h0v-1h-1.5c0,.6,0,1.2,0,1.9v4.6h1.6v-3.8c0-.2,0-.4,0-.5.2-.5.6-1,1.3-1s1.2.7,1.2,1.6v3.7h1.6v-3.9c0-2.1-1.2-2.8-2.3-2.8Z"/>
  <path class="st1" d="M91.8,11.6c-.8-.3-1.1-.5-1.1-.9s.3-.7.9-.7,1.1.2,1.4.4l.3-1.2c-.4-.2-1-.4-1.7-.4-1.5,0-2.5.9-2.5,2s.5,1.5,1.8,1.9c.8.3,1.1.5,1.1,1s-.3.7-1,.7-1.3-.3-1.7-.5l-.3,1.2c.5.3,1.2.5,2,.5,1.7,0,2.7-.9,2.7-2.1,0-1-.5-1.6-1.7-2Z"/>
  <path class="st1" d="M98.6,8.9c-1,0-1.8.4-2.2,1.2h0v-1h-1.5c0,.6,0,1.3,0,2.2v6.7h1.6v-3.1h0c.3.5,1,.9,1.8.9,1.5,0,3-1.1,3-3.5s-1.2-3.3-2.7-3.3ZM98,14.4c-.7,0-1.3-.5-1.5-1.2,0-.1,0-.3,0-.5v-1c0-.1,0-.3,0-.4.2-.7.8-1.2,1.5-1.2,1.1,0,1.6.9,1.6,2.1s-.6,2.2-1.7,2.2Z"/>
  <path class="st1" d="M103.6,6.3c-.5,0-.9.4-.9.9s.4.9.9.9.9-.4.9-.9c0-.5-.4-.9-.9-.9Z"/>
  <rect class="st1" x="102.7" y="9" width="1.6" height="6.5"/>
  <path class="st1" d="M107.7,10.3h0v-1.2h-1.5c0,.6,0,1.2,0,2.1v4.4h1.6v-3.4c0-.2,0-.3,0-.5.1-.7.7-1.2,1.5-1.2s.3,0,.5,0v-1.5c-.1,0-.2,0-.4,0-.7,0-1.5.5-1.8,1.4Z"/>
  <path class="st1" d="M115.9,11.6c0-1.4-.6-2.8-2.7-2.8s-1.9.3-2.4.6l.3,1.1c.4-.3,1.1-.5,1.8-.5,1.2,0,1.3.7,1.3,1.1h0c-2.4,0-3.9.9-3.9,2.6s.7,1.9,2.1,1.9,1.5-.4,1.9-.9h0v.7h1.6c0-.4-.1-1-.1-1.6v-2.3ZM114.3,13.3c0,.1,0,.2,0,.4-.2.5-.6.9-1.3.9s-.9-.3-.9-.9c0-1,1.1-1.2,2.3-1.2v.9Z"/>
  <path class="st1" d="M119.5,7.3l-1.6.5v1.2h-.9v1.2h.9v3.1c0,.9.2,1.5.5,1.8.3.3.8.5,1.4.5s1,0,1.2-.2v-1.2c-.2,0-.4,0-.7,0-.6,0-.8-.4-.8-1.2v-2.9h1.6v-1.2h-1.6v-1.7Z"/>
  <rect class="st1" x="122.5" y="9" width="1.6" height="6.5"/>
  <path class="st1" d="M123.3,6.3c-.6,0-.9.4-.9.9s.4.9.9.9.9-.4.9-.9c0-.5-.4-.9-.9-.9Z"/>
  <path class="st1" d="M128.7,8.9c-2,0-3.4,1.3-3.4,3.5s1.4,3.4,3.3,3.4,3.4-1.1,3.4-3.5-1.3-3.3-3.2-3.3ZM128.6,14.5c-1,0-1.6-1-1.6-2.2s.5-2.2,1.6-2.2,1.6,1.2,1.6,2.2-.7,2.2-1.6,2.2Z"/>
  <path class="st1" d="M136.6,8.9c-1.1,0-1.8.6-2.1,1.1h0v-1h-1.5c0,.6,0,1.2,0,1.9v4.6h1.6v-3.8c0-.2,0-.4,0-.5.2-.5.6-1,1.3-1s1.2.7,1.2,1.6v3.7h1.6v-3.9c0-2.1-1.2-2.8-2.3-2.8Z"/>
  <path class="st1" d="M146.1,8.9c-2,0-3.4,1.3-3.4,3.5s1.4,3.4,3.3,3.4,3.3-1.1,3.3-3.5-1.3-3.3-3.2-3.3ZM146.1,14.5c-1,0-1.6-1-1.6-2.2s.5-2.2,1.6-2.2,1.6,1.2,1.6,2.2-.7,2.2-1.6,2.2Z"/>
  <path class="st1" d="M151.8,6.5c-.6.5-.8,1.4-.8,2.2v.3h-.9v1.2h.9v5.3h1.6v-5.3h1.4v-1.2h-1.4v-.3c0-.8.3-1.5,1.1-1.5s.5,0,.7.1v-1.3c-.1,0-.5-.2-.9-.2s-1.2.2-1.7.6Z"/>
  <path class="st1" d="M177.4,7.2c-.6-.5-1.5-.7-2.7-.7s-2,0-2.6.2v8.9h1.7v-3.3c.2,0,.6,0,.9,0,1.2,0,2.2-.3,2.9-1,.5-.5.8-1.2.8-2.1s-.4-1.6-.9-2.1ZM174.6,11c-.3,0-.7,0-.9,0v-3.2c.2,0,.6,0,1,0,1.2,0,1.9.6,1.9,1.6s-.8,1.7-2,1.7Z"/>
  <polygon class="st1" points="192.7 6.5 192.7 13.1 189.1 6.5 187.1 6.5 187.1 15.5 188.7 15.5 188.7 8.7 192.5 15.5 194.3 15.5 194.3 6.5 192.7 6.5"/>
  <path class="st1" d="M165.7,6.5l-3.1,9h1.7s.3-1,.8-2.4h3.4c.4,1.3.8,2.4.8,2.4h1.8l-3.1-9h-2.2ZM165.5,11.9c.6-1.8,1.2-3.7,1.3-4,0,.3.7,2.1,1.3,4h-2.5Z"/>
  <path class="st1" d="M180.8,6.5l-3.1,9h1.7s.3-1,.8-2.4h3.4c.4,1.3.8,2.4.8,2.4h1.8l-3.1-9h-2.2ZM180.6,11.9c.6-1.8,1.2-3.7,1.3-4,0,.3.7,2.1,1.3,4h-2.5Z"/>
  <polygon class="st0" points="66.9 .1 56.7 17.9 59.5 17.9 69.8 .1 66.9 .1"/>
  <polygon class="st1" points="56.7 17.9 66.9 .1 55.5 .1 45.3 17.9 56.7 17.9"/>
  <path class="st1" d="M20,6c0-.1.2-.3.3-.3s.3.1.3.2l3.3,11.9h5.3l2.7-15.4h-2.4l-2.1,11.9c0,.1-.2.3-.3.3s-.3-.1-.3-.2l-3.3-11.9h-5.3l-2.7,15.4h2.4l2.1-11.8Z"/>
  <path class="st1" d="M10.9,12.6l-.5-6.9c0-.2-.1-.3-.3-.3-.2,0-.3,0-.4.2l-7,12.3H.2L8.9,2.4h5.1l1,15.4h-3.8v-1.7c-.1-.4-.4-.6-.8-.6h-5.8s1.3-2.3,1.3-2.3h4.3c.3,0,.6-.3.5-.6Z"/>
  <path class="st1" d="M39.9,12.7l-.6-6.8c0-.2-.2-.3-.3-.3s-.2,0-.3.2l-6.3,12.2h-2.6l7.9-15.4h5.1l1.4,15.4h-3.8l-.2-1.7c0-.4-.3-.6-.6-.6h-5.4l1.2-2.3h4c.3,0,.6-.3.6-.6Z"/>
</svg>