<svg xmlns="http://www.w3.org/2000/svg" width="28.65" height="21" viewBox="0 0 28.65 21">
  <path id="Path_34" data-name="Path 34" d="M213.633,478.837h-5.6a10.49,10.49,0,1,0-12.506.574h-1.389c-3.624,0-6.572-3.908-6.572-8.71s2.948-8.71,6.572-8.71a.893.893,0,1,0,0-1.786c-4.608,0-8.357,4.708-8.357,10.5s3.749,10.5,8.357,10.5l19.491.008a.8.8,0,0,0,.8-.8v-.765A.8.8,0,0,0,213.633,478.837Zm-7.944-13.109a2.47,2.47,0,1,1-.9,2.707A2.472,2.472,0,0,1,205.689,465.728Zm-12.067.41a2.47,2.47,0,1,1,.666,2.772A2.472,2.472,0,0,1,193.622,466.138Zm-.341,8.076a2.47,2.47,0,1,1,3.829,1.269A2.468,2.468,0,0,1,193.281,474.215Zm7.25,5.316a2.47,2.47,0,1,1,3.1-2.583A2.468,2.468,0,0,1,200.531,479.53Zm1.009-9.365a.565.565,0,1,1-.687.688A.56.56,0,0,1,201.54,470.165Zm-.234-3.5a2.47,2.47,0,1,1,3.1-2.583A2.467,2.467,0,0,1,201.306,466.667Zm3.964,8.973a2.47,2.47,0,1,1,3.922-.942A2.468,2.468,0,0,1,205.271,475.64Z" transform="translate(-185.784 -460.205)" fill="#009bd1"/>
</svg>
