<svg id="logo_odekakenet" xmlns="http://www.w3.org/2000/svg" width="148.5" height="24" viewBox="0 0 148.5 24">
  <metadata><?xpacket begin="﻿" id="W5M0MpCehiHzreSzNTczkc9d"?>
<x:xmpmeta xmlns:x="adobe:ns:meta/" x:xmptk="Adobe XMP Core 5.6-c138 79.159824, 2016/09/14-01:09:01        ">
   <rdf:RDF xmlns:rdf="http://www.w3.org/1999/02/22-rdf-syntax-ns#">
      <rdf:Description rdf:about=""/>
   </rdf:RDF>
</x:xmpmeta>
                                                                                                    
                                                                                                    
                                                                                                    
                                                                                                    
                                                                                                    
                                                                                                    
                                                                                                    
                                                                                                    
                                                                                                    
                                                                                                    
                                                                                                    
                                                                                                    
                                                                                                    
                                                                                                    
                                                                                                    
                                                                                                    
                                                                                                    
                                                                                                    
                                                                                                    
                                                                                                    
                           
<?xpacket end="w"?></metadata>
<defs>
    <style>
      .cls-1, .cls-2, .cls-3, .cls-4, .cls-5, .cls-6 {
        fill-rule: evenodd;
      }

      .cls-2 {
        fill: #f8300e;
      }

      .cls-3 {
        fill: #18b245;
      }

      .cls-4 {
        fill: #ffb400;
      }

      .cls-5 {
        fill: #3591c1;
      }

      .cls-6 {
        fill: #f23095;
      }
    </style>
  </defs>
  <path id="シェイプ_7" data-name="シェイプ 7" class="cls-1" d="M299.271,31.271V28.9h-3.522v2.375h-5.218V34.8h10.1c-2.2,1.762-7.435,2.538-10.154,2.626l0.1,3.523a35.073,35.073,0,0,0,5.167-.586v3.249h3.522V40.458a32.666,32.666,0,0,0,5.9.611l0.006-3.526c-0.018,0-.941-0.006-2.191-0.11a5.556,5.556,0,0,0,2.192-4.4v-1.76h-5.912Zm18.313,5.312a3.131,3.131,0,0,1-3.271,3.442h-3.485v3.529h3.485a6.586,6.586,0,0,0,6.793-6.971V33.3h-3.521v3.286Zm17.179-1.356h-7.371V28.941h-3.52V43.658h3.52V38.752h7.371V35.227Zm-47.339-3.351h-3.161V28.448h-3.5v3.428h-3.318v3.506h3.318V44.5h3.5V35.383h3.161V31.876Zm-56.293,2.276s3.045,0,5.925,0a0.022,0.022,0,0,0-.007.005,6.146,6.146,0,0,0-1.506,3.938,5.591,5.591,0,0,0,.089,1c0.407,2.215,2.3,4.858,9.028,4.858V40.452c-1.567,0-5.255-.192-5.584-1.989a2.087,2.087,0,0,1-.035-0.363,2.72,2.72,0,0,1,.7-1.7,7.455,7.455,0,0,1,5.588-2.243V30.655l-14.195-.009Zm-7.19.925h-0.8V29.129h-3.5v1.534H214.3V34.17h5.343v0.908h-0.928a4.435,4.435,0,1,0,4.429,4.435V38.585h0.8a1.981,1.981,0,0,1,2.065,2.027v3.325h3.5V40.611A5.491,5.491,0,0,0,223.941,35.078Zm-5.226,5.363a0.928,0.928,0,1,1,.928-0.927A0.929,0.929,0,0,1,218.715,40.44Zm39.316-7.532h-2.6V29.284h-3.5v3.624H248.4v3.506h3.526v7.558h3.5V36.414h2.6c1.326,0,1.326.574,1.326,0.993v6.565h3.5V37.408C262.859,34.717,260.918,32.908,258.031,32.908Zm-49.51,6.42a5.811,5.811,0,0,0-3.876-10.14h-1.822v0.005h-3.237V44.1h3.521V40.821h0.565v0a3.3,3.3,0,0,1,3.3,3.3h3.522A6.819,6.819,0,0,0,208.521,39.329Zm-5.414-6.61h1.538a2.288,2.288,0,1,1,0,4.575h-1.538V32.718Zm-10.058,4.623a3.235,3.235,0,0,1-3.234,3.232,3.189,3.189,0,0,1-1.708-.487l-1.871,2.984a6.691,6.691,0,0,0,3.579,1.033,6.772,6.772,0,0,0,6.757-6.763V29.188h-3.523v8.154Zm0.923-11.436h-0.684l-1.135-3.935h0.721l0.752,3.092h0.015l0.759-3.092h0.736l0.767,3.092h0.015l0.8-3.092h0.661l-1.142,3.935H195.55l-0.8-3.047h-0.015Zm6.177,0h-0.684l-1.135-3.935h0.722l0.751,3.092h0.015l0.759-3.092h0.737l0.766,3.092H202.1l0.8-3.092h0.661l-1.142,3.935h-0.684l-0.8-3.047h-0.015Zm6.177,0h-0.684l-1.135-3.935h0.722l0.752,3.092H206l0.759-3.092h0.736l0.767,3.092h0.015l0.8-3.092h0.662l-1.143,3.935H207.9l-0.8-3.047h-0.015Zm5.24-.8h-0.782v0.8h0.782v-0.8Zm2.57,1.377a0.872,0.872,0,0,1-1.007,1,1.867,1.867,0,0,1-.278-0.022V26.892h0.135c0.391,0,.488-0.038.488-0.482v-4.44h0.662v4.514Zm0-5.23h-0.662V20.5h0.662v0.752Zm2.5,4.65h-0.662V21.971h0.624v0.654h0.015a1.278,1.278,0,0,1,1.1-.767,0.553,0.553,0,0,1,.173.022v0.685h-0.248a1,1,0,0,0-1.007,1.053v2.288Zm4.185-1.746h-1.841V23.483h1.841V24.16Zm3.172-2.3a1.882,1.882,0,0,1,1.826,2.077,1.841,1.841,0,1,1-3.652,0A1.882,1.882,0,0,1,223.988,21.858Zm0,3.582a1.307,1.307,0,0,0,1.142-1.505,1.186,1.186,0,1,0-2.284,0A1.307,1.307,0,0,0,223.988,25.44Zm6.591,0.466h-0.624V25.364H229.94a1.185,1.185,0,0,1-1.12.655c-1.337,0-1.728-1.257-1.728-2.2a1.723,1.723,0,0,1,1.638-1.964,1.327,1.327,0,0,1,1.172.67h0.015V20.5h0.662v5.4Zm-1.744-.459a1.131,1.131,0,0,0,1.075-1.325c0-.64-0.1-1.67-1.06-1.67a1.2,1.2,0,0,0-1.075,1.475C227.775,24.792,228.114,25.447,228.835,25.447Zm6.749-.775a1.7,1.7,0,0,1-.7,1.076,1.684,1.684,0,0,1-1.067.271,1.767,1.767,0,0,1-1.759-1.971,1.9,1.9,0,0,1,1.886-2.19c1.135,0,1.691.9,1.691,2.295h-2.87a1.1,1.1,0,0,0,1.142,1.295,1,1,0,0,0,1.015-.775h0.661Zm-0.631-1.046a1.065,1.065,0,0,0-1.1-1.174,1.154,1.154,0,0,0-1.089,1.174h2.187Zm5.5,2.28h-0.848l-1.225-1.987-0.549.5v1.49h-0.639V20.5h0.639v3.13l1.691-1.663h0.841l-1.5,1.467Zm1.21-2.739a1.343,1.343,0,0,1,1.624-1.309c0.316,0,1.458.09,1.458,1.1v2.265a0.2,0.2,0,0,0,.218.233,1.25,1.25,0,0,0,.218-0.03v0.482a1.234,1.234,0,0,1-.361.075,0.577,0.577,0,0,1-.7-0.6,1.787,1.787,0,0,1-1.42.64,1.134,1.134,0,0,1-1.233-1.137,1.182,1.182,0,0,1,1.2-1.234l1.09-.135a0.371,0.371,0,0,0,.345-0.467c0-.414-0.3-0.639-0.924-0.639a0.783,0.783,0,0,0-.9.76h-0.609Zm2.421,0.73a2.426,2.426,0,0,1-1.09.248,0.776,0.776,0,0,0-.842.639,0.622,0.622,0,0,0,.714.685,1.128,1.128,0,0,0,1.218-.926V23.9Zm5.809,2.009h-0.85l-1.224-1.987-0.549.5v1.49h-0.639V20.5h0.639v3.13l1.691-1.663H249.8l-1.5,1.467Zm4.42-1.234a1.7,1.7,0,0,1-.7,1.076,1.684,1.684,0,0,1-1.067.271,1.767,1.767,0,0,1-1.758-1.971,1.9,1.9,0,0,1,1.886-2.19c1.135,0,1.691.9,1.691,2.295H251.5a1.1,1.1,0,0,0,1.142,1.295,1,1,0,0,0,1.015-.775h0.661Zm-0.631-1.046a1.064,1.064,0,0,0-1.1-1.174,1.155,1.155,0,0,0-1.09,1.174h2.187Zm3.06,2.28H255.96v-0.8h0.782v0.8Zm5.095,0h-0.662V23.483c0-.685-0.195-1.03-0.842-1.03a1.1,1.1,0,0,0-1.036,1.309v2.145h-0.661V21.971h0.623v0.557h0.015a1.425,1.425,0,0,1,1.188-.67,1.243,1.243,0,0,1,1.375,1.37v2.678Zm5.065-1.234a1.637,1.637,0,0,1-1.766,1.347,1.767,1.767,0,0,1-1.759-1.971,1.9,1.9,0,0,1,1.887-2.19c1.135,0,1.69.9,1.69,2.295h-2.87a1.1,1.1,0,0,0,1.142,1.295,1,1,0,0,0,1.015-.775H266.9Zm-0.631-1.046a1.065,1.065,0,0,0-1.1-1.174,1.154,1.154,0,0,0-1.089,1.174h2.187Zm3.036-1.106v2.558a0.318,0.318,0,0,0,.4.309h0.233v0.519c-0.24.023-.428,0.053-0.5,0.053a0.708,0.708,0,0,1-.8-0.843v-2.6h-0.534V21.971h0.534v-1.1h0.661v1.1h0.631V22.52h-0.631Z" transform="translate(-186.25 -20.5)"/>
  <path id="シェイプ_7-2" data-name="シェイプ 7" class="cls-2" d="M224.951,32.54a2.1,2.1,0,1,0,2.1-2.109A2.1,2.1,0,0,0,224.951,32.54Z" transform="translate(-186.25 -20.5)"/>
  <path id="シェイプ_7-3" data-name="シェイプ 7" class="cls-3" d="M245.625,36.106a1.52,1.52,0,0,0-1.323.776,1.529,1.529,0,1,0,0,1.507A1.526,1.526,0,1,0,245.625,36.106Z" transform="translate(-186.25 -20.5)"/>
  <path id="シェイプ_7-4" data-name="シェイプ 7" class="cls-4" d="M263.62,28.163l-1.414,3.9a4.206,4.206,0,0,1,2.431,3.964h4.14A8.344,8.344,0,0,0,263.62,28.163Z" transform="translate(-186.25 -20.5)"/>
  <path id="シェイプ_7-5" data-name="シェイプ 7" class="cls-5" d="M274.8,36.837V33.521h-4.452v3.316a8.053,8.053,0,0,0,4.172,6.985l2.072-3.956A3.63,3.63,0,0,1,274.8,36.837Z" transform="translate(-186.25 -20.5)"/>
  <path id="シェイプ_7-6" data-name="シェイプ 7" class="cls-6" d="M313.976,37.958l2.49-2.494L313.7,32.692l-1.931,1.93-1.924-1.93-2.492,2.493,2.771,2.772,1.929-1.931Z" transform="translate(-186.25 -20.5)"/>
</svg>
