<svg xmlns="http://www.w3.org/2000/svg" width="19.406" height="24.31" viewBox="0 0 19.406 24.31">
              <path d="M9.704.05a5.781 5.781 0 1 0 5.781 5.781A5.783 5.783 0 0 0 9.704.05m0 10.642a4.861 4.861 0 1 1 4.861-4.861 4.863 4.863 0 0 1-4.861 4.861"></path>
              <path d="M18.15 18.255a8.662 8.662 0 0 0-8.447-5.641 8.662 8.662 0 0 0-8.453 5.641 15.855 15.855 0 0 0-1.2 5.542.46.46 0 0 0 .46.462.48.48 0 0 0 .48-.48v-.439a14.974 14.974 0 0 1 1.109-4.726 7.8 7.8 0 0 1 7.6-5.085 7.8 7.8 0 0 1 7.609 5.085 14.974 14.974 0 0 1 1.109 4.721v.439a.48.48 0 0 0 .48.48.46.46 0 0 0 .46-.462 15.855 15.855 0 0 0-1.2-5.543"></path>
            </svg>